<svg width="19" height="19" viewBox="0 0 19 19" fill="none" xmlns="http://www.w3.org/2000/svg">
<path d="M17.0789 2.12558C15.4992 0.653148 12.9453 -0.0603014 9.48679 0.00398691C5.9995 0.069196 3.66841 0.651139 2.15077 1.83545C0.683408 2.98042 0 4.65585 0 7.10809V9.61082C0 12.5058 1.63166 15.6885 4.75013 16.1701C5.11015 16.2261 5.4493 15.9934 5.50776 15.651C5.56622 15.3088 5.32181 14.9863 4.96179 14.9307C2.59681 14.5654 1.32068 11.9172 1.32068 9.61082V7.10809C1.32068 3.59183 2.6911 1.38685 9.51268 1.25928C12.6053 1.20102 14.8374 1.7946 16.1542 3.0221C17.1804 3.97881 17.6792 5.3153 17.6792 7.10809V9.61082C17.6792 13.4006 15.8901 15.0722 11.3011 15.5644H8.04716C7.87204 15.5644 7.70405 15.6306 7.58026 15.7483L5.28747 17.9282C5.02959 18.1734 5.02959 18.5709 5.28747 18.8161C5.41637 18.9386 5.58542 19 5.75438 19C5.92334 19 6.09238 18.9387 6.22128 18.8161L8.32072 16.8201H11.338C11.3623 16.8201 11.3867 16.8188 11.4109 16.8162C14.0372 16.5389 15.8356 15.8891 17.0704 14.771C18.3688 13.5954 19 11.9075 19 9.61073V7.10809C19 4.99035 18.3537 3.314 17.0789 2.12558Z" fill="white"/>
<path d="M9.74905 3.9293C9.74915 3.9293 9.74915 3.9293 9.74933 3.9293C10.879 3.9293 11.9412 4.34931 12.7401 5.11189C13.539 5.87455 13.9791 6.88858 13.979 7.96713C13.979 8.33673 14.2928 8.63637 14.68 8.63637C14.6801 8.63637 14.6801 8.63637 14.6801 8.63637C15.0673 8.63637 15.3812 8.33681 15.3812 7.96722C15.3813 6.53112 14.7954 5.18095 13.7316 4.1655C12.6679 3.15004 11.2537 2.59091 9.74933 2.59091C9.74924 2.59091 9.74896 2.59091 9.74887 2.59091C9.36167 2.59091 9.04785 2.89055 9.04785 3.26015C9.04795 3.62966 9.36185 3.9293 9.74905 3.9293Z" fill="white"/>
<path d="M9.70375 6.4342C10.6141 6.43436 11.3548 7.14137 11.3549 8.01027C11.355 8.35609 11.6486 8.63645 12.011 8.63637C12.3734 8.63637 12.667 8.35592 12.6669 8.0101C12.6666 6.45081 11.3375 5.18207 9.70393 5.18182H9.70384C9.34156 5.18182 9.04794 5.4621 9.04785 5.80793C9.04785 6.15375 9.34147 6.4342 9.70375 6.4342Z" fill="white"/>
<path d="M6.78987 7.21269C6.49333 7.40625 6.41726 7.79263 6.61996 8.07569C6.82265 8.35875 7.22752 8.43128 7.52406 8.2378C7.75729 8.08563 8.30353 7.72913 8.2652 7.01648C8.24091 6.58994 7.83786 5.98094 7.50403 5.54513C7.01572 4.90748 6.59489 4.52342 6.25585 4.40437C5.93927 4.29186 5.60821 4.28945 5.27117 4.39741C4.57305 4.62194 4.06619 5.02769 3.80547 5.5708C3.5516 6.09949 3.55724 6.70709 3.82186 7.32826C4.44686 8.79183 5.32182 10.0732 6.42828 11.1422C7.54236 12.1927 8.88465 13.0279 10.4185 13.6248C10.7504 13.7537 11.0788 13.8182 11.3944 13.8182C11.6971 13.8182 11.9881 13.7589 12.2593 13.6403C12.8282 13.3913 13.2532 12.9076 13.4887 12.2404C13.6015 11.9194 13.5989 11.6035 13.482 11.3034C13.3564 10.9775 12.954 10.5759 12.2861 10.1098C11.8294 9.7911 11.1914 9.40638 10.7428 9.38311C9.99778 9.34735 9.62465 9.86785 9.46524 10.0905C9.26245 10.3735 9.33835 10.7599 9.63489 10.9536C9.93151 11.1472 10.3362 11.0747 10.5391 10.7916C10.6099 10.6929 10.6503 10.648 10.6734 10.6284C11.0386 10.74 12.0798 11.4703 12.2672 11.7501C12.2718 11.768 12.2729 11.7952 12.2555 11.8448C12.1735 12.0773 12.0135 12.3818 11.7173 12.5114C11.4398 12.6326 11.1245 12.5583 10.9093 12.4747C9.5348 11.9398 8.33484 11.1943 7.34817 10.264C6.368 9.31696 5.58696 8.17156 5.02693 6.86009C4.93915 6.6541 4.86118 6.353 4.98825 6.0884C5.12398 5.80567 5.44299 5.65284 5.68584 5.57469C5.73771 5.55813 5.76624 5.55904 5.78602 5.56359C6.07926 5.74283 6.84381 6.73615 6.9609 7.08478C6.94026 7.10655 6.89334 7.14521 6.78987 7.21269Z" fill="white"/>
</svg>
