<svg width="17" height="34" viewBox="0 0 17 34" fill="none" xmlns="http://www.w3.org/2000/svg">
<g id="Climate Icon">
<path id="Stroke 1" d="M8.5 14V22.5212" stroke="white" stroke-width="2" stroke-linecap="round" stroke-linejoin="round"/>
<path id="Stroke 2" fill-rule="evenodd" clip-rule="evenodd" d="M12.7857 19.3922V5.26272C12.7857 2.90828 10.8671 1 8.5 1C6.13286 1 4.21429 2.90828 4.21429 5.26272V19.3922C2.27286 20.7407 1 22.9757 1 25.5092C1 29.6298 4.35714 32.969 8.5 32.969C12.6429 32.969 16 29.6298 16 25.5092C16 22.9757 14.7271 20.7407 12.7857 19.3922Z" stroke="white" stroke-width="2"/>
<path id="Stroke 4" fill-rule="evenodd" clip-rule="evenodd" d="M11.4286 25.6944C11.4286 27.1852 10.2132 28.3941 8.71429 28.3941C7.2154 28.3941 6 27.1852 6 25.6944C6 24.2035 7.2154 22.9946 8.71429 22.9946C10.2132 22.9946 11.4286 24.2035 11.4286 25.6944Z" stroke="white" stroke-width="2"/>
</g>
</svg>
