<svg width="34" height="30" viewBox="0 0 34 30" fill="none" xmlns="http://www.w3.org/2000/svg">
<g id="Settings Icon">
<path id="Stroke 1" fill-rule="evenodd" clip-rule="evenodd" d="M7.26383 25.313C7.26383 23.5777 5.8606 22.1709 4.13191 22.1709C2.40187 22.1709 1 23.5777 1 25.313C1 27.0477 2.40187 28.4545 4.13191 28.4545C5.8606 28.4545 7.26383 27.0477 7.26383 25.313Z" stroke="white" stroke-width="2"/>
<path id="Stroke 3" fill-rule="evenodd" clip-rule="evenodd" d="M32.4553 4.14146C32.4553 2.40683 31.0521 1 29.3234 1C27.5933 1 26.1915 2.40683 26.1915 4.14146C26.1915 5.87678 27.5933 7.28361 29.3234 7.28361C31.0521 7.28361 32.4553 5.87678 32.4553 4.14146Z" stroke="white" stroke-width="2"/>
<path id="Stroke 5" fill-rule="evenodd" clip-rule="evenodd" d="M19.7917 14.6586C19.7917 12.9239 18.3885 11.5171 16.6598 11.5171C14.9298 11.5171 13.5279 12.9239 13.5279 14.6586C13.5279 16.3932 14.9298 17.8 16.6598 17.8C18.3885 17.8 19.7917 16.3932 19.7917 14.6586Z" stroke="white" stroke-width="2"/>
<path id="Stroke 7" d="M4.13214 1.04541V22.0338" stroke="white" stroke-width="2" stroke-linecap="round"/>
<path id="Stroke 9" d="M16.6597 17.8003V28.2716" stroke="white" stroke-width="2" stroke-linecap="round"/>
<path id="Stroke 11" d="M16.6597 1.04541V11.5174" stroke="white" stroke-width="2" stroke-linecap="round"/>
<path id="Stroke 13" d="M29.1876 7.2832V28.2716" stroke="white" stroke-width="2" stroke-linecap="round"/>
</g>
</svg>
