<svg width="35" height="21" viewBox="0 0 35 21" fill="none" xmlns="http://www.w3.org/2000/svg">
<g id="Surveillance Icon">
<path id="Stroke 1" fill-rule="evenodd" clip-rule="evenodd" d="M17.7531 1C7.13657 1 2.09351 10.2666 2.09351 10.2666C2.09351 10.2666 7.13657 19.5338 17.7531 19.5338C28.3696 19.5338 33.4127 10.2666 33.4127 10.2666C33.4127 10.2666 28.3696 1 17.7531 1Z" stroke="white" stroke-width="2"/>
<path id="Stroke 3" fill-rule="evenodd" clip-rule="evenodd" d="M17.7531 3.11621C13.941 3.11621 10.8527 6.19489 10.8527 9.99421C10.8527 13.7922 13.941 16.8715 17.7531 16.8715C21.5645 16.8715 24.6542 13.7922 24.6542 9.99421C24.6542 6.19489 21.5645 3.11621 17.7531 3.11621Z" stroke="white" stroke-width="2"/>
<path id="Stroke 5" d="M15.4586 8.51562C15.2244 8.9187 15.0909 9.38827 15.0909 9.88838C15.0909 11.4084 16.326 12.6393 17.8498 12.6393" stroke="white" stroke-width="2" stroke-linecap="round"/>
</g>
</svg>
