<svg width="80" height="80" viewBox="0 0 80 80" fill="none" xmlns="http://www.w3.org/2000/svg">
<path id="&#208;&#163;&#208;&#180;&#209;&#131;&#209;&#134;&#209;&#131;&#209;&#136;&#208;&#184;&#208;&#184; &#208;&#172;&#209;&#132;&#208;&#186;&#208;&#187;" fill-rule="evenodd" clip-rule="evenodd" d="M0 39.9997L40.0003 0L80 39.9997L40.0003 80L0 39.9997ZM39.2451 12.0366V2.8906L23.6771 18.4587L39.2451 12.0366ZM38.4981 13.9788C37.3961 16.4365 35.4524 21.1157 34.2266 26.0169C29.9033 23.4324 25.1672 21.4736 22.6592 20.5126L38.4981 13.9788ZM39.2451 31.3108V16.0665C37.5235 20.1381 34.8398 27.3474 34.6369 33.1297C35.9317 32.1163 37.5154 31.4603 39.2451 31.3108ZM33.8667 27.5659C33.541 29.0837 33.2993 30.601 33.186 32.0624L23.6499 22.5263C26.3431 23.6182 30.2854 25.3751 33.8667 27.5659ZM26.0663 34.1632C21.1675 35.3865 16.5034 37.3271 14.0452 38.4316L20.6082 22.7095C21.5819 25.2417 23.5175 29.8998 26.0663 34.1632ZM12.0698 39.2446L18.6464 23.4893L2.8906 39.2446H12.0698ZM40.0003 32.7828C36.0208 32.7828 32.7828 36.0203 32.7828 39.9997C32.7828 43.9792 36.0208 47.2172 40.0003 47.2172C43.7537 47.2172 46.8447 44.3357 47.184 40.6693V39.3302C46.8447 35.6638 43.7537 32.7828 40.0003 32.7828ZM67.8798 40.7549L60.9559 56.9084L77.1094 40.7549H67.8798ZM65.9321 41.4657C63.4659 42.5707 58.8113 44.5013 53.9327 45.7221C56.403 49.8531 58.2988 54.3571 59.3001 56.9371L65.9321 41.4657ZM47.8857 46.7616C49.3476 46.6493 50.8659 46.4072 52.3832 46.0815C54.5751 49.6633 56.3315 53.6055 57.4224 56.2983L47.8857 46.7616ZM45.7754 53.8723C44.5521 58.7615 42.6155 63.4276 41.5125 65.8903L57.1475 59.3011C54.5937 58.3149 49.9885 56.3904 45.7754 53.8723ZM40.7554 77.1094V67.8481L56.7619 61.1024L40.7554 77.1094ZM40.7554 63.8248C42.466 59.7794 45.1255 52.6374 45.3596 46.8739C44.0648 47.8847 42.4836 48.5402 40.7554 48.6892V63.8248ZM56.3516 57.3625C53.6584 56.2706 49.7171 54.5137 46.1349 52.3228C46.4606 50.8055 46.7027 49.2882 46.8155 47.8268L56.3516 57.3625ZM39.2451 63.8329C37.5345 59.798 34.8735 52.6677 34.6419 46.8739C35.9357 47.8847 37.5174 48.5402 39.2451 48.6892V63.8329ZM23.5029 61.3666L39.2451 77.1094V67.8516L23.5029 61.3666ZM34.2211 53.8748C35.4464 58.7826 37.3916 63.4548 38.4961 65.91L22.6471 59.3807C25.1516 58.4222 29.8917 56.4644 34.2211 53.8748ZM33.8626 52.3253C33.5379 50.8085 33.2968 49.2902 33.1845 47.8258L23.6443 57.365C26.3376 56.2741 30.2803 54.5177 33.8626 52.3253ZM27.6178 46.0805C29.1341 46.4047 30.6524 46.6453 32.1178 46.7571L22.5801 56.2942C23.672 53.6015 25.4289 49.6598 27.6178 46.0805ZM26.0683 45.7226C21.1499 44.4962 16.4717 42.546 14.0206 41.4425L20.5096 57.432C21.4495 54.9657 23.4344 50.1294 26.0683 45.7226ZM2.8906 40.7549H12.1116L18.4098 56.2736L2.8906 40.7549ZM27.6158 33.8042C29.1326 33.4795 30.6503 33.2384 32.1143 33.1261L22.5791 23.591C23.67 26.2822 25.4254 30.2229 27.6158 33.8042ZM16.2437 40.7549C20.3022 42.4685 27.3449 45.0747 33.0833 45.3012C32.0972 44.0175 31.4578 42.4574 31.3108 40.7549H16.2437ZM15.9728 39.2446C20.0057 37.5265 27.2971 34.7839 33.174 34.5775C32.1349 35.8828 31.4624 37.4892 31.3108 39.2446H15.9728ZM40.7554 16.07C42.4776 20.1471 45.1628 27.362 45.3651 33.1312C44.0704 32.1168 42.4861 31.4603 40.7554 31.3108V16.07ZM56.8082 18.9435L40.7554 2.8906V12.0447L56.8082 18.9435ZM45.7739 26.0184C44.5526 21.1439 42.6225 16.4853 41.5191 14.0166L56.9698 20.6561C54.3833 21.6609 49.8928 23.5537 45.7739 26.0184ZM46.1338 27.5669C46.4601 29.0842 46.7022 30.6 46.815 32.0599L56.3471 22.5278C53.6528 23.6197 49.7131 25.3756 46.1338 27.5669ZM52.3807 33.8133C50.8614 33.4871 49.3416 33.2449 47.8777 33.1322L57.4259 23.5844C56.333 26.2792 54.5736 30.2285 52.3807 33.8133ZM46.9131 45.3067C52.6284 45.0807 59.6903 42.469 63.7584 40.7549H48.6897C48.5427 42.4599 47.9013 44.022 46.9131 45.3067ZM48.6897 39.2446C48.5387 37.4922 47.8676 35.8884 46.8311 34.584C52.6702 34.7929 59.9606 37.527 64.006 39.2446H48.6897ZM53.9302 34.1727C58.7987 35.391 63.4452 37.3161 65.9165 38.4215L59.2417 23.1052C58.2238 25.7093 56.3516 30.1218 53.9302 34.1727ZM77.1094 39.2446H67.9221L60.8265 22.9617L77.1094 39.2446Z" fill="white"/>
</svg>
