<svg width="80" height="79" viewBox="0 0 80 79" fill="none" xmlns="http://www.w3.org/2000/svg">
<path id="Podolgrad Mark" fill-rule="evenodd" clip-rule="evenodd" d="M53.9609 59.1415H53.8021L36.355 76.371L0 40.2866L1.60366 38.7108L36.3603 73.2063L38.4006 71.1915L25.5607 58.5117L2.75481 35.9903L39.2024 0L40.8008 1.57843L5.95684 35.9903L7.90981 37.919L26.9421 19.1241L28.5457 20.6999L12.2656 36.7796L9.51083 39.5L27.1379 56.9072H28.8924V54.8061H26.2699V52.6972H26.2249V28.3987L26.8971 28.1034C30.1573 26.6687 33.6425 25.8011 37.1753 25.4953L32.3035 20.6843L28.8342 17.2582L28.7998 17.2242L40.0625 6.10205L45.1831 11.1353L51.349 17.2242L51.2431 17.3314L45.019 23.4622L45.0322 23.4648L42.976 25.4953C46.5089 25.8011 49.994 26.6687 53.2543 28.1034L53.9238 28.3987V52.5717H53.9609V54.8061H51.0684V56.9072H52.8653L70.4923 39.5L51.4892 20.7339L53.0929 19.1555L72.8925 38.7082L73.6917 39.5L77.2457 43.0097L40.8008 79L39.2024 77.419L74.0463 43.0097L72.0907 41.081L69.2459 43.8877L53.9609 58.9847V59.1415ZM78.399 40.2887L43.555 5.8794L43.5498 5.88462L41.9461 4.30881L43.555 2.71992L80 38.7103L78.399 40.2887ZM28.4875 52.5717H51.6612V42.2753H28.4875V52.5717ZM31.8377 40.041H28.4875V30.9545H31.8377V40.041ZM34.1003 40.041H46.051V30.9545H34.1003V40.041ZM48.3269 28.7201C45.6462 27.978 42.8622 27.6017 40.0757 27.6043C37.2891 27.6017 34.5052 27.978 31.8245 28.7201H48.3269ZM32.0336 17.2582L40.0016 9.38958L42.7564 12.11L48.0437 17.3314L40.1418 25.1347C40.1286 25.1452 40.1207 25.1504 40.1127 25.153C40.1021 25.1582 40.0889 25.1608 40.0757 25.1608C40.0625 25.1608 40.0492 25.1582 40.0386 25.153C40.028 25.1504 40.0201 25.1452 40.0095 25.1347L32.0336 17.2582ZM51.6612 40.041H48.3136V30.9545H51.6612V40.041ZM42.2875 44.1697C41.6576 43.749 40.8902 43.5007 40.0752 43.5007C39.5327 43.5007 39.0087 43.6105 38.5377 43.8091C37.8258 44.107 37.2224 44.6009 36.7964 45.2229C36.373 45.8448 36.1216 46.6001 36.1216 47.405C36.1216 47.9433 36.2327 48.4581 36.4338 48.9259C36.7329 49.6289 37.233 50.2221 37.8655 50.6428C38.4927 51.0636 39.2601 51.3118 40.0752 51.3092C40.6176 51.3092 41.139 51.2021 41.6153 51.0009C42.3245 50.7056 42.9252 50.2116 43.3513 49.5897C43.78 48.9677 44.0287 48.2099 44.0287 47.405C44.0287 46.8692 43.9176 46.3544 43.7165 45.8866C43.4174 45.1837 42.9173 44.5904 42.2875 44.1697ZM29.4005 59.1415L37.2468 66.89L40.0016 69.6104L50.6027 59.1415H29.4005ZM31.1576 56.9072H48.8059V54.8061H31.1576V56.9072ZM41.0199 48.79C41.2898 48.6097 41.5068 48.3536 41.6338 48.0557C41.7185 47.8571 41.7661 47.6402 41.7661 47.405C41.7661 47.0574 41.6603 46.7412 41.4777 46.4746C41.2951 46.2055 41.0358 45.9938 40.7341 45.8683C40.5303 45.7821 40.3107 45.7377 40.0752 45.7351C39.7205 45.7377 39.403 45.8396 39.1304 46.0199C38.8605 46.2029 38.6461 46.459 38.5165 46.7569C38.4318 46.9555 38.3842 47.1724 38.3842 47.405C38.3842 47.7551 38.49 48.0714 38.6726 48.3379C38.8552 48.6045 39.1145 48.8188 39.4189 48.9442C39.62 49.0304 39.8396 49.0749 40.0752 49.0749C40.4298 49.0749 40.75 48.9729 41.0199 48.79Z" fill="white"/>
</svg>
