<svg width="160" height="196" viewBox="0 0 160 196" fill="none" xmlns="http://www.w3.org/2000/svg">
<g id="Edeldorf Logo">
<path id="Fill 1" fill-rule="evenodd" clip-rule="evenodd" d="M5.61981 172.567C6.71101 172.567 7.75101 172.496 8.03901 172.422C8.43901 172.326 8.77181 172.115 9.13021 171.689C9.38941 171.33 9.67421 170.666 9.67421 170.215C9.67421 170.048 9.74461 170 9.86301 170L10.4998 170.074C10.6182 170.096 10.7174 170.118 10.6918 170.263C10.6182 170.666 10.6182 171.9 10.6182 172.73C10.6182 173.8 10.7174 174.938 10.7622 175.438C10.7846 175.579 10.6918 175.604 10.5734 175.627L10.0038 175.748C9.91101 175.771 9.86301 175.723 9.81821 175.556C9.71901 175.175 9.48221 174.63 9.34141 174.348C9.07901 173.896 8.50941 173.585 8.03901 173.515C7.39901 173.419 6.66301 173.371 5.61981 173.371V174.797C5.61981 176.078 5.73821 178.382 5.73821 178.808C5.73821 180.042 5.99741 180.472 6.30781 180.613C6.66301 180.757 7.11101 180.827 8.29821 180.827C8.70141 180.827 9.69661 180.802 10.1958 180.757C10.6662 180.709 11.3798 180.472 11.9942 179.972C12.615 179.475 13.943 178.001 14.4134 177.434C14.5094 177.338 14.5798 177.312 14.6502 177.36L15.0534 177.597C15.1494 177.645 15.1718 177.716 15.1494 177.786L14.0838 181.372C14.0102 181.583 13.8438 181.728 13.559 181.728C13.4406 181.728 12.919 181.705 11.4054 181.683C9.86301 181.683 7.35101 181.657 3.24861 181.657C2.36861 181.657 1.70621 181.683 1.23261 181.683C0.73661 181.705 0.42621 181.728 0.21501 181.728C0.0486103 181.728 0.000610352 181.657 0.000610352 181.468V180.968C0.000610352 180.827 0.0710104 180.757 0.23741 180.757H0.94781C2.03901 180.757 2.13181 180.587 2.13181 179.757V171.807C2.13181 169.836 2.08701 166.914 2.06461 166.68C1.96861 165.918 1.72861 165.754 1.09181 165.754H0.16701C0.0710104 165.754 0.0486104 165.68 0.0486104 165.514V164.947C0.0486104 164.873 0.0710104 164.777 0.21501 164.777C0.73661 164.777 1.56221 164.851 3.72221 164.851L12.0422 164.825C12.423 164.825 12.8742 164.777 12.9926 164.777C13.111 164.777 13.1558 164.825 13.1814 164.899C13.2774 165.229 14.0614 168.481 14.1542 168.718C14.2022 168.837 14.2022 168.888 14.0838 168.958L13.6998 169.148C13.607 169.196 13.4886 169.17 13.4214 169.051C13.2998 168.862 11.1654 166.725 10.6182 166.392C10.1222 166.084 9.45661 165.777 8.81981 165.754L5.68701 165.658L5.61981 172.567Z" fill="#FEFEFE"/>
<path id="Fill 3" fill-rule="evenodd" clip-rule="evenodd" d="M24.6636 173.064C24.6636 173.372 24.686 177.406 24.7116 178.88C24.7116 179.354 24.8044 179.736 25.1148 180.184C25.3964 180.613 26.2028 180.754 27.0092 180.754C28.3852 180.754 30.2092 180.069 31.4412 178.428C32.3916 177.172 33.1276 175.224 33.1276 173.016C33.1276 171.068 32.3212 169.075 31.2076 167.841C29.95 166.441 27.8636 165.681 26.4876 165.681C25.8252 165.681 25.47 165.704 25.1596 165.87C24.8044 166.037 24.7116 166.418 24.686 166.893C24.6636 167.889 24.6636 170.997 24.6636 171.379V173.064ZM21.1084 170.76C21.1084 170.145 21.0348 166.774 20.99 166.418C20.9164 165.848 20.606 165.752 20.206 165.752H19.0188C18.9004 165.752 18.83 165.73 18.83 165.589V164.9C18.83 164.803 18.9004 164.778 18.9964 164.778C19.3036 164.778 20.3468 164.852 22.7212 164.852C23.3356 164.852 25.7068 164.778 26.2508 164.778C29.4764 164.778 32.0364 165.063 34.2892 166.938C35.854 168.245 36.9452 170.216 36.9452 172.968C36.9452 175.698 36.1612 177.502 34.5964 179.213C32.2988 181.706 28.2412 181.729 26.7468 181.729C26.3692 181.729 23.5724 181.658 22.27 181.658C20.206 181.658 19.2588 181.729 18.926 181.729C18.8076 181.729 18.7596 181.681 18.7596 181.517V180.895C18.7596 180.803 18.83 180.754 18.9516 180.754H20.1836C20.6316 180.754 20.894 180.565 20.942 180.184C21.0124 179.687 21.1084 174.346 21.1084 172.542V170.76Z" fill="#FEFEFE"/>
<path id="Fill 5" fill-rule="evenodd" clip-rule="evenodd" d="M46.5856 172.567C47.6768 172.567 48.7168 172.496 49.0048 172.422C49.408 172.326 49.7376 172.115 50.096 171.689C50.3552 171.33 50.64 170.666 50.64 170.215C50.64 170.048 50.7104 170 50.8288 170L51.4688 170.074C51.584 170.096 51.6832 170.118 51.6576 170.263C51.584 170.666 51.584 171.9 51.584 172.73C51.584 173.8 51.6832 174.938 51.728 175.438C51.7536 175.579 51.6576 175.604 51.5392 175.627L50.9696 175.748C50.8768 175.771 50.8288 175.723 50.784 175.556C50.6848 175.175 50.448 174.63 50.3072 174.348C50.048 173.896 49.4752 173.585 49.0048 173.515C48.3648 173.419 47.6288 173.371 46.5856 173.371V174.797C46.5856 176.078 46.704 178.382 46.704 178.808C46.704 180.042 46.9632 180.472 47.2736 180.613C47.6288 180.757 48.08 180.827 49.264 180.827C49.6672 180.827 50.6624 180.802 51.1616 180.757C51.6352 180.709 52.3456 180.472 52.96 179.972C53.5808 179.475 54.9088 178.001 55.3792 177.434C55.4752 177.338 55.5488 177.312 55.616 177.36L56.0192 177.597C56.1184 177.645 56.1376 177.716 56.1184 177.786L55.0496 181.372C54.976 181.583 54.8096 181.728 54.5248 181.728C54.4064 181.728 53.8848 181.705 52.3712 181.683C50.8288 181.683 48.3168 181.657 44.2144 181.657C43.3344 181.657 42.672 181.683 42.1984 181.683C41.7024 181.705 41.392 181.728 41.1808 181.728C41.0144 181.728 40.9664 181.657 40.9664 181.468V180.968C40.9664 180.827 41.04 180.757 41.2032 180.757H41.9136C43.0048 180.757 43.0976 180.587 43.0976 179.757V171.807C43.0976 169.836 43.0528 166.914 43.0304 166.68C42.9344 165.918 42.6976 165.754 42.0576 165.754H41.1328C41.04 165.754 41.0144 165.68 41.0144 165.514V164.947C41.0144 164.873 41.04 164.777 41.1808 164.777C41.7024 164.777 42.528 164.851 44.688 164.851L53.0112 164.825C53.3888 164.825 53.84 164.777 53.9584 164.777C54.0768 164.777 54.1216 164.825 54.1472 164.899C54.2432 165.229 55.0272 168.481 55.12 168.718C55.168 168.837 55.168 168.888 55.0496 168.958L54.6688 169.148C54.5728 169.196 54.4544 169.17 54.3872 169.051C54.2656 168.862 52.1312 166.725 51.584 166.392C51.088 166.084 50.4256 165.777 49.7856 165.754L46.6528 165.658L46.5856 172.567Z" fill="#FEFEFE"/>
<path id="Fill 7" fill-rule="evenodd" clip-rule="evenodd" d="M65.4387 174.226C65.4387 174.63 65.4387 179.757 65.5091 180.705H66.8595C67.9763 180.705 69.0419 180.705 70.3219 180.587C71.6019 180.472 73.2147 177.623 73.5699 176.745C73.6403 176.601 73.7107 176.53 73.8547 176.601L74.3251 176.79C74.3987 176.838 74.3987 176.863 74.3763 177.004C74.3059 177.171 73.3587 181.087 73.2147 181.728C72.5971 181.683 65.7715 181.657 63.5891 181.657C61.2403 181.657 60.3891 181.728 60.0787 181.728C59.9123 181.728 59.8899 181.683 59.8899 181.516V180.92C59.8899 180.802 59.9123 180.757 60.0563 180.757H60.7923C61.6659 180.757 61.8099 180.423 61.8099 180.164C61.8099 179.709 61.8835 173.8 61.8835 172.352V171.022C61.8835 169.503 61.8355 166.988 61.8099 166.607C61.7651 165.988 61.6435 165.751 61.0995 165.751H60.2227C60.0787 165.751 60.0563 165.632 60.0563 165.514V164.947C60.0563 164.825 60.0787 164.777 60.2227 164.777C60.4819 164.777 61.3363 164.851 63.4931 164.851C66.2675 164.851 67.2627 164.777 67.4771 164.777C67.6659 164.777 67.6883 164.851 67.6883 165.017V165.562C67.6883 165.68 67.6403 165.751 67.4547 165.751H66.3379C65.6051 165.751 65.5091 165.988 65.5091 166.629C65.5091 166.94 65.4387 170.525 65.4387 172.185V174.226Z" fill="#FEFEFE"/>
<path id="Fill 9" fill-rule="evenodd" clip-rule="evenodd" d="M83.8073 173.064C83.8073 173.372 83.8297 177.406 83.8553 178.88C83.8553 179.354 83.9481 179.736 84.2585 180.184C84.5401 180.613 85.3465 180.754 86.1529 180.754C87.5289 180.754 89.3529 180.069 90.5849 178.428C91.5353 177.172 92.2713 175.224 92.2713 173.016C92.2713 171.068 91.4649 169.075 90.3513 167.841C89.0937 166.441 87.0073 165.681 85.6313 165.681C84.9689 165.681 84.6137 165.704 84.3033 165.87C83.9481 166.037 83.8553 166.418 83.8297 166.893C83.8073 167.889 83.8073 170.997 83.8073 171.379V173.064ZM80.2521 170.76C80.2521 170.145 80.1785 166.774 80.1337 166.418C80.0601 165.848 79.7497 165.752 79.3497 165.752H78.1625C78.0441 165.752 77.9737 165.73 77.9737 165.589V164.9C77.9737 164.803 78.0441 164.778 78.1401 164.778C78.4473 164.778 79.4905 164.852 81.8649 164.852C82.4793 164.852 84.8505 164.778 85.3945 164.778C88.6201 164.778 91.1801 165.063 93.4329 166.938C94.9977 168.245 96.0857 170.216 96.0857 172.968C96.0857 175.698 95.3049 177.502 93.7401 179.213C91.4425 181.706 87.3849 181.729 85.8905 181.729C85.5129 181.729 82.7161 181.658 81.4137 181.658C79.3497 181.658 78.4025 181.729 78.0697 181.729C77.9513 181.729 77.9033 181.681 77.9033 181.517V180.895C77.9033 180.803 77.9737 180.754 78.0921 180.754H79.3273C79.7753 180.754 80.0377 180.565 80.0857 180.184C80.1561 179.687 80.2521 174.346 80.2521 172.542V170.76Z" fill="#FEFEFE"/>
<path id="Fill 11" fill-rule="evenodd" clip-rule="evenodd" d="M115.236 173.658C115.236 168.458 111.824 165.609 109.831 165.609C109.357 165.609 108.17 165.491 106.724 166.891C105.325 168.221 104.615 170.714 104.615 172.659C104.615 178.737 108.103 180.897 110.068 180.897C114.452 180.897 115.236 175.603 115.236 173.658ZM104.308 180.471C102.624 179.449 100.823 176.885 100.823 173.418C100.823 171.973 101.2 169.717 103.028 167.509C105.114 164.968 107.792 164.494 109.927 164.494C111.892 164.494 113.716 164.802 115.706 166.369C117.511 167.795 118.957 170.191 118.957 173.466C118.957 175.2 118.413 177.004 117.178 178.667C115.639 180.589 113.623 182.012 109.876 182.012C108.24 182.012 106.18 181.634 104.308 180.471Z" fill="#FEFEFE"/>
<path id="Fill 13" fill-rule="evenodd" clip-rule="evenodd" d="M128.326 173.419C128.78 173.444 129.062 173.444 129.276 173.444C132.403 173.444 133.142 170.452 133.142 169.337C133.142 168.244 132.761 167.199 132.243 166.677C131.385 165.918 130.32 165.632 129.606 165.632C129.206 165.632 128.896 165.68 128.707 165.847C128.563 165.943 128.496 166.203 128.448 166.488L128.326 173.419ZM125.011 170.855C125.011 169.099 125.011 167.581 124.985 166.94C124.96 166.155 124.656 165.751 124.323 165.751H123.372C123.254 165.751 123.232 165.68 123.232 165.588V164.943C123.232 164.825 123.254 164.777 123.372 164.777C123.587 164.777 124.323 164.851 126.908 164.851C128.233 164.851 130.32 164.777 131.292 164.777C133.142 164.777 134.518 165.443 135.488 166.344C136.342 167.129 136.838 168.055 136.838 168.933C136.838 171.948 134.585 173.3 132.502 173.489V173.659C133.235 173.893 133.612 174.348 134.067 174.915C134.374 175.293 135.676 177.408 135.865 177.693C136.009 177.905 137.289 179.709 137.763 180.257C138.048 180.564 138.947 180.757 139.494 180.757C139.66 180.757 139.683 180.85 139.683 180.946V181.516C139.683 181.657 139.66 181.728 139.494 181.728C139.305 181.728 138.688 181.657 136.864 181.657C136.172 181.657 135.299 181.705 134.611 181.728C133.897 181.183 132.428 178.427 132.025 177.623C131.219 176.008 130.249 174.249 129.11 174.249H128.304V175.46C128.304 176.863 128.377 179.52 128.422 179.827C128.47 180.327 128.659 180.757 129.014 180.757H129.99C130.153 180.757 130.176 180.827 130.176 180.946V181.516C130.176 181.683 130.153 181.728 129.798 181.728C129.772 181.728 129.184 181.657 126.691 181.657C124.179 181.657 123.635 181.728 123.372 181.728C123.187 181.728 123.187 181.657 123.187 181.49V180.946C123.187 180.827 123.187 180.757 123.302 180.757H124.012C124.534 180.757 124.96 180.587 124.96 179.994C125.011 177.645 125.011 175.415 125.011 173.156V170.855Z" fill="#FEFEFE"/>
<g id="Group 17">
<mask id="mask0_0_732" style="mask-type:alpha" maskUnits="userSpaceOnUse" x="143" y="164" width="15" height="18">
<path id="Clip 16" fill-rule="evenodd" clip-rule="evenodd" d="M143.276 164.683H157.603V181.729H143.276V164.683Z" fill="white"/>
</mask>
<g mask="url(#mask0_0_732)">
<path id="Fill 15" fill-rule="evenodd" clip-rule="evenodd" d="M149.036 173.277C149.96 173.277 150.933 173.206 151.381 173.136C151.784 173.087 152.236 172.777 152.616 172.28C152.876 171.947 153.042 171.45 153.138 171.021C153.16 170.902 153.234 170.832 153.327 170.832L153.874 170.88C153.967 170.88 154.015 170.95 154.015 171.046C153.967 171.45 153.967 173.418 153.967 173.751C153.967 174.606 154.037 175.747 154.085 176.221C154.085 176.34 154.037 176.388 153.919 176.41L153.397 176.529C153.304 176.551 153.234 176.481 153.212 176.34C153.16 176.148 152.901 175.436 152.757 175.199C152.476 174.799 152.024 174.369 151.599 174.251C150.837 174.106 150.008 174.084 149.036 174.084V174.988C149.036 175.699 149.061 179.685 149.061 179.996C149.061 180.634 149.298 180.755 149.631 180.755H151.026C151.17 180.755 151.24 180.803 151.24 180.896V181.537C151.24 181.681 151.196 181.729 151.052 181.729C150.815 181.729 149.868 181.656 147.4 181.656C145.077 181.656 144.175 181.729 143.82 181.729C143.727 181.729 143.679 181.681 143.679 181.515V180.874C143.679 180.778 143.749 180.755 143.845 180.755H144.677C145.173 180.755 145.365 180.659 145.384 180.281C145.41 179.807 145.48 176.814 145.48 172.732V171.069C145.48 170.024 145.432 166.679 145.432 166.439C145.432 165.99 145.103 165.753 144.46 165.753H143.49C143.349 165.753 143.276 165.705 143.276 165.609V164.92C143.276 164.827 143.349 164.779 143.442 164.779C143.701 164.779 144.604 164.849 147.496 164.849C147.826 164.849 154.063 164.779 155.202 164.779C155.724 164.779 156.245 164.683 156.434 164.683C156.552 164.683 156.623 164.827 156.671 165.086L157.596 168.957C157.618 169.053 157.596 169.124 157.522 169.146L157.048 169.406C156.93 169.457 156.882 169.406 156.716 169.169C156.412 168.768 155.839 168.005 154.869 166.987C154.44 166.512 153.8 166.06 153.234 165.919C152.639 165.753 150.127 165.679 149.061 165.679C149.061 165.99 149.036 170.713 149.036 172.161V173.277Z" fill="#FEFEFE"/>
</g>
</g>
<path id="Fill 18" fill-rule="evenodd" clip-rule="evenodd" d="M17.8198 195.14C18.0566 195.067 18.0566 194.881 18.0726 194.516C18.0822 194.214 18.0822 193.4 18.0822 192.702C18.0822 191.914 18.0726 190.968 18.063 190.856C18.047 190.651 18.0086 190.561 17.855 190.507C17.7494 190.465 17.5766 190.449 17.407 190.433C17.3814 190.417 17.391 190.318 17.407 190.312C17.6662 190.312 18.0886 190.334 18.3414 190.334H21.711C22.0342 190.334 22.4246 190.312 22.5622 190.312C22.5718 190.344 22.5782 190.401 22.5622 190.424C22.4118 190.459 22.287 190.472 22.207 190.507C22.0246 190.561 21.9638 190.629 21.9542 190.936C21.9478 191.173 21.9286 191.888 21.9286 192.814C21.9286 193.522 21.9222 194.522 21.9542 194.766C21.9702 194.987 22.0054 195.083 22.1654 195.14C22.2646 195.182 22.3766 195.198 22.6134 195.221C22.6198 195.24 22.6198 195.32 22.5942 195.342C22.431 195.342 22.0758 195.32 21.711 195.32C21.3398 195.32 20.9878 195.336 20.7958 195.342C20.7766 195.336 20.7766 195.23 20.7958 195.221C20.9398 195.208 21.1574 195.172 21.2726 195.124C21.3942 195.067 21.4102 194.945 21.4198 194.749C21.4358 194.496 21.4262 193.083 21.4262 192.734C21.4262 192.359 21.4358 190.734 21.4102 190.61C21.4006 190.577 21.359 190.555 21.3526 190.555C21.2566 190.536 18.7638 190.545 18.6326 190.555C18.6166 190.555 18.6006 190.597 18.6006 190.603C18.5846 190.725 18.5846 192.375 18.5846 192.75C18.5846 193.083 18.591 194.31 18.6006 194.637C18.607 194.913 18.6262 195.083 18.8182 195.14C18.9334 195.172 19.0134 195.188 19.2502 195.221C19.2502 195.256 19.2566 195.329 19.2342 195.342C18.8502 195.336 18.6678 195.32 18.3574 195.32C18.047 195.32 17.5958 195.336 17.407 195.342C17.3974 195.32 17.3974 195.246 17.407 195.221C17.5766 195.198 17.7238 195.172 17.8198 195.14Z" fill="#FEFEFE"/>
<path id="Fill 20" fill-rule="evenodd" clip-rule="evenodd" d="M24.8855 190.311C25.0647 190.311 25.2983 190.336 25.7463 190.336H27.3143C27.6151 190.336 28.0119 190.327 28.1335 190.311C28.1431 190.311 28.1559 190.327 28.1559 190.336C28.0855 190.602 28.0343 191.099 28.0119 191.368C27.9959 191.384 27.9063 191.39 27.8839 191.378C27.8679 191.147 27.8423 191.003 27.8167 190.897C27.7591 190.701 27.7047 190.57 27.3527 190.554C27.1415 190.548 26.2423 190.538 26.1111 190.554C26.0535 190.564 26.0279 190.628 26.0279 190.669C26.0151 190.961 26.0055 192.505 26.0151 192.579C26.0151 192.611 26.0215 192.646 26.0375 192.646C26.2423 192.659 27.0999 192.653 27.3399 192.637C27.5991 192.621 27.6439 192.489 27.6855 192.368C27.7207 192.278 27.7463 192.172 27.7655 192.067C27.7911 192.05 27.8967 192.057 27.9063 192.076C27.8839 192.204 27.8487 192.538 27.8487 192.797C27.8487 193.15 27.8679 193.326 27.8679 193.448C27.8423 193.483 27.7463 193.489 27.7271 193.457C27.7111 193.335 27.7047 193.271 27.6791 193.182C27.6535 193.082 27.6215 192.912 27.3463 192.896C27.0999 192.88 26.2679 192.871 26.0439 192.89C26.0279 192.89 26.0151 192.944 26.0151 192.954C26.0055 193.092 26.0151 194.303 26.0279 194.784C26.0375 194.995 26.1463 195.059 26.2263 195.075C26.3895 195.107 26.6807 195.123 27.2567 195.123C27.7527 195.123 27.8487 195.018 27.9543 194.915C28.0759 194.806 28.2647 194.499 28.3927 194.181C28.4119 194.175 28.4823 194.213 28.4983 194.239C28.4567 194.499 28.2551 195.101 28.1655 195.255C28.1175 195.335 28.0919 195.345 27.6791 195.345C27.2727 195.345 27.0199 195.319 25.7527 195.319C25.2119 195.319 25.0135 195.345 24.7063 195.345C24.6871 195.328 24.6839 195.248 24.7063 195.223C24.9111 195.207 25.0743 195.197 25.2183 195.159C25.4135 195.107 25.4807 195.018 25.4999 194.684C25.5095 194.563 25.5191 193.605 25.5191 192.646C25.5191 191.839 25.5095 191.057 25.4999 190.935C25.4839 190.612 25.4551 190.538 25.2503 190.49C25.1543 190.464 25.0391 190.442 24.8759 190.426C24.8503 190.407 24.8599 190.327 24.8855 190.311Z" fill="#FEFEFE"/>
<path id="Fill 22" fill-rule="evenodd" clip-rule="evenodd" d="M32.0074 193.075C32.0074 193.068 32.0234 193.033 32.0298 193.033C32.1194 193.049 32.2058 193.068 32.3946 193.068C32.6634 193.068 32.8266 193.027 32.9962 192.931C33.4026 192.694 33.5018 192.293 33.5018 191.838C33.5018 191.098 33.1562 190.489 32.0938 190.489C32.0074 190.489 31.825 190.499 31.7706 190.521C31.745 190.531 31.7194 190.563 31.713 190.627C31.7034 190.822 31.6874 191.431 31.6874 192.54C31.6874 193.068 31.665 193.995 31.6874 194.635C31.697 195.084 31.7706 195.116 32.0234 195.164C32.1354 195.19 32.2826 195.206 32.3946 195.222C32.4298 195.238 32.4202 195.337 32.4042 195.344C32.2026 195.344 31.729 195.321 31.4378 195.321C31.0794 195.321 30.641 195.344 30.5034 195.344C30.4778 195.328 30.4714 195.238 30.4938 195.222C30.6474 195.206 30.7786 195.19 30.8746 195.164C31.0474 195.116 31.137 195.132 31.1594 194.671C31.1754 194.424 31.1946 193.978 31.1946 192.774C31.1946 192.277 31.201 191.181 31.185 190.954C31.169 190.675 31.137 190.547 30.9322 190.499C30.8298 190.473 30.6986 190.447 30.529 190.431C30.5194 190.406 30.5354 190.319 30.5514 190.31C30.689 190.31 31.0538 190.335 31.4282 190.335C31.8186 190.335 32.0842 190.319 32.5322 190.319C32.817 190.319 33.2778 190.383 33.5722 190.617C33.825 190.822 34.0458 191.139 34.0522 191.652C34.0618 192.408 33.6394 192.857 33.2074 193.068C32.9578 193.181 32.7306 193.238 32.4362 193.238C32.3146 193.238 32.1674 193.229 32.0778 193.197C32.0458 193.165 32.0074 193.091 32.0074 193.075Z" fill="#FEFEFE"/>
<path id="Fill 24" fill-rule="evenodd" clip-rule="evenodd" d="M35.9479 190.311C36.1015 190.311 36.4247 190.336 36.8823 190.336C37.3207 190.336 37.4967 190.317 37.7175 190.311C37.7367 190.336 37.7367 190.407 37.7175 190.432C37.6183 190.442 37.4519 190.474 37.3687 190.5C37.2087 190.548 37.1511 190.612 37.1415 190.846C37.1319 190.977 37.1255 192.393 37.1255 192.711C37.1255 194.377 37.1159 194.841 37.1511 194.979C37.1671 195.05 37.2151 195.059 37.2311 195.066C37.3207 195.085 38.8471 195.091 38.9463 195.085C39.0007 195.075 39.0583 195.05 39.0679 194.979C39.0903 194.668 39.0903 193.399 39.0903 192.701C39.0903 191.913 39.0903 190.955 39.0807 190.839C39.0679 190.637 39.0359 190.586 38.9111 190.528C38.8087 190.48 38.6999 190.464 38.4887 190.432C38.4727 190.4 38.4727 190.336 38.4887 190.311C38.6039 190.311 38.7735 190.336 39.3495 190.336C39.7879 190.336 39.9607 190.317 40.1847 190.311C40.2039 190.343 40.1943 190.407 40.1783 190.432C40.0823 190.442 39.9031 190.464 39.8231 190.49C39.6599 190.538 39.6183 190.628 39.6119 190.862C39.5959 190.993 39.5863 192.393 39.5863 192.711C39.5863 194.377 39.5959 194.768 39.6119 194.963C39.6119 194.995 39.6407 195.066 39.7015 195.066C40.0023 195.085 41.3623 195.101 41.4839 195.066C41.5095 195.059 41.5255 195.037 41.5351 195.002C41.5607 194.816 41.5511 194.367 41.5511 192.848C41.5511 192.464 41.5415 190.913 41.5351 190.782C41.5255 190.66 41.4711 190.554 41.3463 190.512C41.2407 190.474 41.1031 190.458 40.9559 190.432C40.9431 190.407 40.9431 190.336 40.9559 190.311C41.1127 190.311 41.4615 190.336 41.8359 190.336C42.1591 190.336 42.5559 190.311 42.6871 190.311C42.7031 190.327 42.7031 190.407 42.6871 190.432C42.5335 190.464 42.3895 190.48 42.2967 190.512C42.1303 190.57 42.0887 190.66 42.0791 190.971C42.0695 191.195 42.0535 191.887 42.0535 192.816C42.0535 194.188 42.0535 194.515 42.0695 194.8C42.0887 195.018 42.1303 195.085 42.2807 195.139C42.3895 195.181 42.5719 195.207 42.7287 195.223C42.7447 195.248 42.7447 195.319 42.7127 195.345C42.3895 195.345 42.1911 195.319 41.8903 195.319H36.8983C36.5879 195.319 36.1271 195.335 35.9383 195.345C35.9223 195.335 35.9223 195.239 35.9383 195.223C36.1111 195.197 36.2647 195.175 36.3607 195.139C36.5975 195.066 36.5879 194.928 36.6039 194.563C36.6135 194.261 36.6231 193.399 36.6231 192.701C36.6231 191.913 36.6135 190.971 36.6039 190.855C36.5879 190.65 36.5559 190.586 36.4343 190.528C36.3287 190.48 36.1207 190.458 35.9479 190.442C35.9223 190.426 35.9319 190.327 35.9479 190.311Z" fill="#FEFEFE"/>
<path id="Fill 26" fill-rule="evenodd" clip-rule="evenodd" d="M47.1229 190.969C46.9949 191.309 46.5885 192.523 46.4669 192.879C46.4669 192.911 46.4733 192.93 46.4989 192.937C46.5693 192.946 46.7741 192.946 47.2125 192.946C47.3917 192.946 47.7085 192.946 47.7469 192.937C47.7565 192.937 47.7725 192.911 47.7629 192.879C47.5709 192.261 47.2765 191.319 47.1549 190.963C47.1485 190.963 47.1229 190.963 47.1229 190.969ZM45.5805 194.481C46.0765 193.312 46.8061 191.222 46.9853 190.732C47.0429 190.569 47.0813 190.434 47.0973 190.325C47.1069 190.325 47.1741 190.335 47.2861 190.335C47.4077 190.335 47.4621 190.325 47.4717 190.325C47.4877 190.399 47.5197 190.53 47.5709 190.684C47.7181 191.091 48.6557 194.052 48.9021 194.651C49.1133 195.132 49.1453 195.157 49.6893 195.221C49.7053 195.247 49.6989 195.327 49.6733 195.343C49.4685 195.337 49.0077 195.321 48.8189 195.321C48.6269 195.321 48.0893 195.327 47.9197 195.343C47.9101 195.327 47.9037 195.241 47.9197 195.221C48.0829 195.199 48.2109 195.18 48.3261 195.141C48.4541 195.084 48.4541 195.026 48.4221 194.914C48.3325 194.564 48.0253 193.693 47.8685 193.244C47.8685 193.244 47.8237 193.206 47.8141 193.206C47.7309 193.196 47.5613 193.196 47.0557 193.196C46.5149 193.196 46.4733 193.196 46.3901 193.206C46.3677 193.206 46.3357 193.238 46.3261 193.264C46.1629 193.687 45.8333 194.581 45.7981 194.814C45.7757 194.962 45.7661 195.093 46.0349 195.157C46.1309 195.18 46.2045 195.199 46.3773 195.221C46.3901 195.241 46.3869 195.327 46.3677 195.343C46.2237 195.343 45.7981 195.321 45.4429 195.321C45.0461 195.321 44.7997 195.343 44.6781 195.343C44.6557 195.337 44.6557 195.241 44.6781 195.221C45.2477 195.148 45.3277 195.084 45.5805 194.481Z" fill="#FEFEFE"/>
<path id="Fill 28" fill-rule="evenodd" clip-rule="evenodd" d="M54.6573 194.482C55.1533 193.312 55.8925 191.229 56.0621 190.758C56.1197 190.595 56.1613 190.431 56.1773 190.326C56.1869 190.326 56.2509 190.335 56.3629 190.335C56.4845 190.335 56.5421 190.326 56.5517 190.326C56.5677 190.399 56.5965 190.553 56.6477 190.71C56.7949 191.146 57.7357 194.052 57.9789 194.651C58.1901 195.132 58.2221 195.158 58.7661 195.222C58.7853 195.247 58.7661 195.337 58.7501 195.344C58.5485 195.337 58.0845 195.321 57.8989 195.321C57.7037 195.321 57.1597 195.328 56.9901 195.344C56.9837 195.328 56.9741 195.238 56.9901 195.222C57.1501 195.199 57.2813 195.18 57.3933 195.142C57.5245 195.084 57.5245 195.026 57.4925 194.914C57.3389 194.366 56.5357 191.928 56.2253 190.995C56.2253 190.986 56.1997 190.995 56.1933 190.995C55.9725 191.652 55.0733 194.132 54.9005 194.629C54.7789 194.969 54.8589 195.1 55.1053 195.158C55.2013 195.18 55.2365 195.19 55.4477 195.222C55.4637 195.238 55.4541 195.328 55.4381 195.344C55.2909 195.344 54.8781 195.321 54.5197 195.321C54.1229 195.321 53.8797 195.344 53.7581 195.344C53.7421 195.337 53.7421 195.228 53.7581 195.222C54.3245 195.148 54.4077 195.084 54.6573 194.482Z" fill="#FEFEFE"/>
<path id="Fill 30" fill-rule="evenodd" clip-rule="evenodd" d="M60.7386 190.311C60.8858 190.311 61.3082 190.336 61.6794 190.336C62.0218 190.336 62.265 190.311 62.4602 190.311C62.4762 190.336 62.4858 190.407 62.4666 190.432C62.345 190.448 62.2074 190.464 62.137 190.48C61.9578 190.528 61.9226 190.65 61.9066 190.903C61.8906 191.246 61.881 192.057 61.881 192.768C61.881 193.531 61.8906 194.434 61.9002 194.704C61.9162 194.954 61.9418 195.091 62.1434 195.149C62.2586 195.181 62.4058 195.207 62.5562 195.223C62.5818 195.248 62.5658 195.328 62.5466 195.345C62.3802 195.345 62.0858 195.319 61.7306 195.319C61.3338 195.319 61.1706 195.345 60.7482 195.345C60.7226 195.319 60.729 195.239 60.7482 195.223C60.8602 195.213 61.0138 195.187 61.1098 195.165C61.3146 195.123 61.3466 195.002 61.3626 194.816C61.3786 194.62 61.3882 193.214 61.3882 192.538C61.3882 191.929 61.3882 191.294 61.3722 190.919C61.3466 190.724 61.353 190.554 61.1706 190.506C61.0778 190.48 60.9274 190.458 60.729 190.432C60.7066 190.416 60.7226 190.327 60.7386 190.311Z" fill="#FEFEFE"/>
<path id="Fill 32" fill-rule="evenodd" clip-rule="evenodd" d="M64.7168 190.311C64.976 190.311 65.3984 190.336 65.6512 190.336C66.0896 190.336 66.2656 190.317 66.4864 190.311C66.5024 190.336 66.5024 190.416 66.48 190.432C66.3808 190.442 66.2272 190.464 66.144 190.49C65.984 190.538 65.9168 190.577 65.9104 190.846C65.8912 191.173 65.8912 191.724 65.8912 192.573C65.8912 192.605 65.9104 192.627 65.9264 192.637C65.9424 192.646 66.0544 192.653 67.4368 192.653C68.24 192.653 68.7104 192.653 68.784 192.646C68.8 192.646 68.816 192.611 68.816 192.605C68.816 192.179 68.816 191.044 68.8 190.791C68.7904 190.637 68.752 190.548 68.64 190.506C68.4928 190.464 68.3712 190.448 68.224 190.432C68.1984 190.407 68.1984 190.336 68.224 190.311C68.3808 190.311 68.72 190.336 69.0912 190.336C69.4272 190.336 69.824 190.311 69.9552 190.311C69.9712 190.336 69.9808 190.407 69.9552 190.432C69.808 190.458 69.6768 190.474 69.5872 190.506C69.4176 190.564 69.3536 190.618 69.344 190.971C69.3344 191.195 69.3184 191.887 69.3184 192.816C69.3184 193.521 69.328 194.531 69.344 194.774C69.36 194.995 69.4016 195.085 69.5552 195.139C69.6608 195.181 69.7664 195.197 70 195.223C70.0192 195.248 70.0192 195.319 69.984 195.345C69.6608 195.345 69.4656 195.319 69.0912 195.319C68.72 195.319 68.3808 195.335 68.1824 195.345C68.1568 195.312 68.1664 195.248 68.1824 195.223C68.32 195.207 68.4352 195.197 68.5888 195.159C68.7616 195.107 68.8 195.043 68.8064 194.752C68.816 194.547 68.816 193.473 68.816 192.97C68.816 192.938 68.8 192.912 68.784 192.912C68.6688 192.906 67.8496 192.906 67.4208 192.906C66.8512 192.906 66.0128 192.906 65.9264 192.912C65.9104 192.912 65.8912 192.954 65.8912 192.961C65.8912 193.377 65.9008 194.515 65.9104 194.636C65.9328 194.915 65.9168 195.075 66.1152 195.133C66.2272 195.165 66.2912 195.187 66.56 195.223C66.576 195.248 66.56 195.335 66.5344 195.345C66.2816 195.335 65.9744 195.319 65.6672 195.319C65.3568 195.319 64.9024 195.335 64.7168 195.345C64.6912 195.319 64.6912 195.248 64.7168 195.223C64.8864 195.197 65.0336 195.175 65.1296 195.139C65.3664 195.066 65.3664 194.88 65.3824 194.515C65.3888 194.213 65.3888 193.399 65.3888 192.701C65.3888 191.913 65.3824 190.971 65.3728 190.855C65.3568 190.612 65.2864 190.538 65.1648 190.506C65.0432 190.474 64.9184 190.464 64.7168 190.432C64.6912 190.407 64.6976 190.336 64.7168 190.311Z" fill="#FEFEFE"/>
<path id="Fill 34" fill-rule="evenodd" clip-rule="evenodd" d="M72.1667 190.311C72.3139 190.311 72.7363 190.336 73.1107 190.336C73.4499 190.336 73.6963 190.311 73.8883 190.311C73.9043 190.336 73.9139 190.407 73.8979 190.432C73.7763 190.448 73.6387 190.464 73.5651 190.48C73.3859 190.528 73.3539 190.65 73.3347 190.903C73.3187 191.246 73.3123 192.057 73.3123 192.768C73.3123 193.531 73.3187 194.434 73.3283 194.704C73.3443 194.954 73.3699 195.091 73.5715 195.149C73.6867 195.181 73.8339 195.207 73.9843 195.223C74.0099 195.248 73.9939 195.328 73.9779 195.345C73.8083 195.345 73.5171 195.319 73.1587 195.319C72.7619 195.319 72.5987 195.345 72.1763 195.345C72.1507 195.319 72.1603 195.239 72.1763 195.223C72.2883 195.213 72.4451 195.187 72.5411 195.165C72.7459 195.123 72.7747 195.002 72.7907 194.816C72.8099 194.62 72.8163 193.214 72.8163 192.538C72.8163 191.929 72.8163 191.294 72.8003 190.919C72.7747 190.724 72.7843 190.554 72.5987 190.506C72.5059 190.48 72.3555 190.458 72.1603 190.432C72.1347 190.416 72.1507 190.327 72.1667 190.311Z" fill="#FEFEFE"/>
<path id="Fill 36" fill-rule="evenodd" clip-rule="evenodd" d="M78.7478 190.489C78.1558 190.489 77.711 190.854 77.711 191.546C77.711 192.726 78.6998 192.838 79.3366 192.815C79.3494 192.815 79.375 192.79 79.375 192.774C79.375 192.239 79.375 190.922 79.3494 190.643C79.3494 190.611 79.3174 190.563 79.2694 190.547C79.1734 190.515 79.0326 190.489 78.7478 190.489ZM80.1782 190.489C80.0214 190.521 79.8934 190.595 79.8838 190.8C79.871 191.091 79.8614 192.408 79.8614 192.879C79.8614 193.312 79.8806 194.475 79.8838 194.693C79.8934 194.994 79.967 195.116 80.1622 195.164C80.2518 195.19 80.415 195.206 80.5302 195.222C80.5462 195.228 80.5366 195.337 80.5206 195.344C80.399 195.344 79.9414 195.321 79.615 195.321C79.2758 195.321 78.8694 195.344 78.7734 195.344C78.767 195.328 78.7574 195.238 78.7734 195.222C78.975 195.199 79.0422 195.18 79.1478 195.158C79.295 195.106 79.3494 195.042 79.3654 194.693C79.3814 194.392 79.375 193.482 79.375 193.049C79.375 193.033 79.3558 192.995 79.3366 192.995C79.1958 192.995 79.1798 192.995 79.0518 193.011C78.7734 193.043 78.6038 193.206 78.4886 193.354C78.1174 193.831 77.6054 194.613 77.295 194.946C77.1478 195.116 77.0454 195.19 76.9238 195.238C76.6838 195.344 76.2646 195.385 75.9798 195.369C75.9638 195.36 75.9542 195.27 75.9638 195.254C76.3382 195.222 76.3958 195.254 76.8022 194.815C77.1734 194.408 77.9702 193.158 78.3254 192.985C78.335 192.979 78.3446 192.969 78.3254 192.953C77.6854 192.799 77.167 192.344 77.167 191.627C77.167 190.896 77.7014 190.319 78.8086 190.319C79.0902 190.319 79.5126 190.335 79.7622 190.335C79.9766 190.335 80.3062 190.31 80.5046 190.31C80.5206 190.319 80.5302 190.419 80.5046 190.431C80.399 190.447 80.2902 190.467 80.1782 190.489Z" fill="#FEFEFE"/>
<path id="Fill 38" fill-rule="evenodd" clip-rule="evenodd" d="M85.9043 195.14C86.1379 195.067 86.1379 194.881 86.1539 194.516C86.1635 194.214 86.1635 193.4 86.1635 192.702C86.1635 191.914 86.1539 190.968 86.1475 190.856C86.1283 190.651 86.0899 190.561 85.9363 190.507C85.8307 190.465 85.6611 190.449 85.4883 190.433C85.4627 190.417 85.4723 190.318 85.4883 190.312C85.7475 190.312 86.1699 190.334 86.4227 190.334H89.7923C90.1155 190.334 90.5059 190.312 90.6435 190.312C90.6531 190.344 90.6595 190.401 90.6435 190.424C90.4931 190.459 90.3715 190.472 90.2883 190.507C90.1091 190.561 90.0451 190.629 90.0355 190.936C90.0291 191.173 90.0131 191.888 90.0131 192.814C90.0131 193.522 90.0035 194.522 90.0355 194.766C90.0547 194.987 90.0867 195.083 90.2467 195.14C90.3459 195.182 90.4579 195.198 90.6947 195.221C90.7011 195.24 90.7011 195.32 90.6787 195.342C90.5155 195.342 90.1571 195.32 89.7923 195.32C89.4211 195.32 89.0691 195.336 88.8771 195.342C88.8611 195.336 88.8611 195.23 88.8771 195.221C89.0243 195.208 89.2419 195.172 89.3539 195.124C89.4755 195.067 89.4915 194.945 89.5011 194.749C89.5171 194.496 89.5075 193.083 89.5075 192.734C89.5075 192.359 89.5171 190.734 89.4915 190.61C89.4851 190.577 89.4435 190.555 89.4371 190.555C89.3379 190.536 86.8451 190.545 86.7171 190.555C86.6979 190.555 86.6819 190.597 86.6819 190.603C86.6659 190.725 86.6659 192.375 86.6659 192.75C86.6659 193.083 86.6755 194.31 86.6819 194.637C86.6915 194.913 86.7075 195.083 86.9027 195.14C87.0179 195.172 87.0979 195.188 87.3315 195.221C87.3315 195.256 87.3411 195.329 87.3155 195.342C86.9347 195.336 86.7491 195.32 86.4387 195.32C86.1283 195.32 85.6771 195.336 85.4883 195.342C85.4787 195.32 85.4787 195.246 85.4883 195.221C85.6611 195.198 85.8051 195.172 85.9043 195.14Z" fill="#FEFEFE"/>
<path id="Fill 40" fill-rule="evenodd" clip-rule="evenodd" d="M92.9668 190.311C93.146 190.311 93.3828 190.336 93.8276 190.336H95.3956C95.6964 190.336 96.0964 190.327 96.218 190.311C96.2244 190.311 96.2372 190.327 96.2372 190.336C96.1668 190.602 96.1156 191.099 96.0964 191.368C96.0772 191.384 95.9876 191.39 95.9652 191.378C95.9492 191.147 95.9236 191.003 95.898 190.897C95.8404 190.701 95.786 190.57 95.434 190.554C95.2228 190.548 94.3236 190.538 94.1956 190.554C94.1348 190.564 94.1092 190.628 94.1092 190.669C94.0964 190.961 94.09 192.505 94.0964 192.579C94.0964 192.611 94.1028 192.646 94.1188 192.646C94.3236 192.659 95.1844 192.653 95.4212 192.637C95.6804 192.621 95.7284 192.489 95.77 192.368C95.802 192.278 95.8276 192.172 95.85 192.067C95.8724 192.05 95.978 192.057 95.9876 192.076C95.9652 192.204 95.9332 192.538 95.9332 192.797C95.9332 193.15 95.9492 193.326 95.9492 193.448C95.9236 193.483 95.8276 193.489 95.8116 193.457C95.7924 193.335 95.786 193.271 95.7604 193.182C95.7348 193.082 95.7028 192.912 95.4276 192.896C95.1844 192.88 94.3492 192.871 94.1284 192.89C94.1092 192.89 94.0964 192.944 94.0964 192.954C94.09 193.092 94.0964 194.303 94.1092 194.784C94.1188 194.995 94.2276 195.059 94.3076 195.075C94.4708 195.107 94.762 195.123 95.338 195.123C95.834 195.123 95.9332 195.018 96.0356 194.915C96.1572 194.806 96.346 194.499 96.4772 194.181C96.4932 194.175 96.5636 194.213 96.5828 194.239C96.5412 194.499 96.3364 195.101 96.2468 195.255C96.1988 195.335 96.1764 195.345 95.7604 195.345C95.354 195.345 95.1044 195.319 93.834 195.319C93.2932 195.319 93.098 195.345 92.7876 195.345C92.7716 195.328 92.7652 195.248 92.7876 195.223C92.9924 195.207 93.1556 195.197 93.2996 195.159C93.4948 195.107 93.562 195.018 93.5844 194.684C93.5908 194.563 93.6004 193.605 93.6004 192.646C93.6004 191.839 93.5908 191.057 93.5844 190.935C93.5652 190.612 93.5364 190.538 93.3316 190.49C93.2356 190.464 93.1204 190.442 92.9572 190.426C92.9348 190.407 92.9412 190.327 92.9668 190.311Z" fill="#FEFEFE"/>
<path id="Fill 42" fill-rule="evenodd" clip-rule="evenodd" d="M98.5044 190.311C98.6516 190.311 98.9172 190.336 99.3588 190.336C99.73 190.336 99.9988 190.311 100.104 190.311C100.12 190.327 100.12 190.407 100.104 190.432C99.714 190.5 99.666 190.564 99.6468 190.724C99.634 190.887 99.6404 191.442 99.6468 191.743C99.6724 192.717 100.354 192.797 100.84 192.797C101.144 192.797 101.516 192.733 101.784 192.595C101.791 192.586 101.8 192.563 101.8 192.554C101.8 192.009 101.81 191.124 101.784 190.814C101.772 190.596 101.72 190.538 101.525 190.48C101.426 190.458 101.346 190.448 101.208 190.432C101.192 190.416 101.192 190.327 101.208 190.311C101.445 190.311 101.688 190.336 102.069 190.336C102.565 190.336 102.776 190.311 102.93 190.311C102.956 190.327 102.956 190.416 102.94 190.432C102.751 190.464 102.671 190.48 102.572 190.506C102.396 190.554 102.335 190.618 102.328 190.903C102.319 191.278 102.303 192.156 102.303 192.768C102.303 192.768 102.312 194.508 102.328 194.825C102.344 194.995 102.386 195.107 102.604 195.165C102.703 195.187 102.824 195.207 102.984 195.223C103.004 195.248 102.994 195.328 102.972 195.345C102.751 195.345 102.549 195.319 102.143 195.319C101.631 195.319 101.445 195.345 101.176 195.345C101.16 195.335 101.16 195.223 101.176 195.223C101.288 195.213 101.42 195.197 101.532 195.175C101.762 195.123 101.784 195.011 101.791 194.547C101.8 194.124 101.8 193.239 101.8 192.768C101.8 192.759 101.784 192.727 101.775 192.733C101.404 192.938 100.933 193.082 100.511 193.082C100.024 193.082 99.618 192.993 99.3332 192.621C99.2116 192.457 99.1284 192.204 99.1284 191.717C99.1284 191.717 99.1188 191.108 99.1188 190.913C99.1188 190.676 99.074 190.538 98.8372 190.48C98.738 190.458 98.6516 190.448 98.4948 190.432C98.4788 190.4 98.4788 190.343 98.5044 190.311Z" fill="#FEFEFE"/>
<path id="Fill 44" fill-rule="evenodd" clip-rule="evenodd" d="M105.257 190.311C105.44 190.311 105.673 190.336 106.121 190.336H107.686C107.99 190.336 108.387 190.327 108.508 190.311C108.515 190.311 108.531 190.327 108.531 190.336C108.457 190.602 108.409 191.099 108.387 191.368C108.371 191.384 108.278 191.39 108.256 191.378C108.24 191.147 108.214 191.003 108.188 190.897C108.131 190.701 108.076 190.57 107.724 190.554C107.516 190.548 106.614 190.538 106.486 190.554C106.428 190.564 106.403 190.628 106.403 190.669C106.39 190.961 106.38 192.505 106.39 192.579C106.39 192.611 106.393 192.646 106.409 192.646C106.614 192.659 107.475 192.653 107.712 192.637C107.971 192.621 108.019 192.489 108.06 192.368C108.092 192.278 108.118 192.172 108.14 192.067C108.166 192.05 108.272 192.057 108.278 192.076C108.256 192.204 108.224 192.538 108.224 192.797C108.224 193.15 108.24 193.326 108.24 193.448C108.214 193.483 108.118 193.489 108.102 193.457C108.086 193.335 108.076 193.271 108.051 193.182C108.028 193.082 107.993 192.912 107.721 192.896C107.475 192.88 106.64 192.871 106.419 192.89C106.403 192.89 106.39 192.944 106.39 192.954C106.38 193.092 106.39 194.303 106.403 194.784C106.409 194.995 106.518 195.059 106.598 195.075C106.761 195.107 107.056 195.123 107.628 195.123C108.124 195.123 108.224 195.018 108.329 194.915C108.451 194.806 108.636 194.499 108.768 194.181C108.784 194.175 108.857 194.213 108.873 194.239C108.832 194.499 108.63 195.101 108.537 195.255C108.492 195.335 108.467 195.345 108.051 195.345C107.644 195.345 107.395 195.319 106.124 195.319C105.584 195.319 105.388 195.345 105.078 195.345C105.062 195.328 105.056 195.248 105.078 195.223C105.283 195.207 105.446 195.197 105.59 195.159C105.785 195.107 105.852 195.018 105.875 194.684C105.881 194.563 105.891 193.605 105.891 192.646C105.891 191.839 105.881 191.057 105.875 190.935C105.859 190.612 105.827 190.538 105.622 190.49C105.526 190.464 105.414 190.442 105.251 190.426C105.225 190.407 105.235 190.327 105.257 190.311Z" fill="#FEFEFE"/>
<path id="Fill 46" fill-rule="evenodd" clip-rule="evenodd" d="M112.379 193.075C112.379 193.068 112.395 193.033 112.405 193.033C112.491 193.049 112.581 193.068 112.77 193.068C113.035 193.068 113.198 193.027 113.371 192.931C113.778 192.694 113.874 192.293 113.874 191.838C113.874 191.098 113.531 190.489 112.469 190.489C112.379 190.489 112.2 190.499 112.146 190.521C112.12 190.531 112.094 190.563 112.085 190.627C112.078 190.822 112.062 191.431 112.062 192.54C112.062 193.068 112.04 193.995 112.062 194.635C112.069 195.084 112.146 195.116 112.395 195.164C112.51 195.19 112.654 195.206 112.77 195.222C112.802 195.238 112.795 195.337 112.776 195.344C112.574 195.344 112.104 195.321 111.81 195.321C111.454 195.321 111.013 195.344 110.875 195.344C110.85 195.328 110.846 195.238 110.869 195.222C111.022 195.206 111.154 195.19 111.25 195.164C111.419 195.116 111.512 195.132 111.534 194.671C111.55 194.424 111.566 193.978 111.566 192.774C111.566 192.277 111.576 191.181 111.56 190.954C111.541 190.675 111.512 190.547 111.307 190.499C111.202 190.473 111.074 190.447 110.901 190.431C110.891 190.406 110.91 190.319 110.926 190.31C111.064 190.31 111.429 190.335 111.8 190.335C112.19 190.335 112.459 190.319 112.907 190.319C113.192 190.319 113.653 190.383 113.947 190.617C114.197 190.822 114.418 191.139 114.427 191.652C114.437 192.408 114.011 192.857 113.582 193.068C113.33 193.181 113.102 193.238 112.811 193.238C112.69 193.238 112.542 193.229 112.45 193.197C112.421 193.165 112.379 193.091 112.379 193.075Z" fill="#FEFEFE"/>
<path id="Fill 48" fill-rule="evenodd" clip-rule="evenodd" d="M120.295 190.562C120.026 190.431 119.709 190.377 119.264 190.377C117.978 190.377 117.226 191.287 117.226 192.709C117.226 194.27 118.119 195.231 119.54 195.231C119.776 195.231 120.189 195.205 120.512 194.898C120.733 194.686 120.855 194.491 121.04 194.167C121.066 194.158 121.159 194.196 121.159 194.231C121.04 194.651 120.717 195.221 120.548 195.295C120.32 195.369 119.872 195.465 119.386 195.465C117.655 195.465 116.631 194.491 116.631 192.783C116.631 191.899 117.015 191.043 117.901 190.569C118.33 190.335 118.858 190.188 119.559 190.188C120.189 190.188 120.676 190.319 121.04 190.351C120.986 190.588 120.903 191.181 120.893 191.498C120.88 191.52 120.752 191.546 120.752 191.514C120.669 190.838 120.548 190.684 120.295 190.562Z" fill="#FEFEFE"/>
<path id="Fill 50" fill-rule="evenodd" clip-rule="evenodd" d="M126.295 193.986C126.295 193.118 125.831 192.669 124.823 192.669C124.557 192.669 124.541 192.675 124.452 192.685C124.436 192.685 124.416 192.727 124.416 192.743C124.416 193.246 124.416 194.499 124.436 194.806C124.442 194.88 124.458 194.954 124.516 195.002C124.695 195.133 124.98 195.165 125.172 195.165C125.984 195.165 126.295 194.611 126.295 193.986ZM123.703 195.139C123.866 195.101 123.882 195.002 123.908 194.71C123.924 194.451 123.933 193.89 123.933 192.784C123.933 191.531 123.933 191.092 123.914 190.814C123.898 190.596 123.831 190.529 123.709 190.5C123.565 190.458 123.386 190.442 123.312 190.432C123.296 190.416 123.306 190.327 123.322 190.311C123.572 190.317 123.84 190.336 124.167 190.336C124.506 190.336 124.807 190.304 125.005 190.304C125.021 190.327 125.021 190.4 125.005 190.426C124.884 190.442 124.727 190.464 124.653 190.48C124.477 190.529 124.442 190.618 124.436 190.913C124.426 191.253 124.416 191.759 124.416 192.464C124.416 192.483 124.442 192.499 124.442 192.499C124.781 192.474 125.085 192.464 125.319 192.464C126.407 192.464 126.855 193.108 126.855 193.79C126.855 194.451 126.484 194.97 125.824 195.223C125.588 195.313 125.351 195.361 124.8 195.361C124.436 195.361 123.69 195.345 123.2 195.345C123.184 195.335 123.175 195.239 123.2 195.223C123.38 195.197 123.527 195.181 123.703 195.139Z" fill="#FEFEFE"/>
<path id="Fill 52" fill-rule="evenodd" clip-rule="evenodd" d="M129.032 195.181C129.343 195.123 129.359 194.985 129.372 194.572C129.381 194.197 129.388 192.986 129.388 192.653C129.388 192.319 129.388 191.22 129.372 190.887C129.365 190.676 129.349 190.538 129.122 190.49C129.007 190.464 128.911 190.448 128.748 190.432C128.722 190.406 128.732 190.317 128.757 190.31C128.92 190.31 129.292 190.336 129.647 190.336C130.037 190.336 130.293 190.304 130.437 190.31C130.469 190.317 130.479 190.426 130.437 190.432C130.284 190.458 130.258 190.458 130.156 190.48C129.909 190.528 129.9 190.66 129.893 190.945C129.887 191.262 129.887 192.188 129.887 192.653C129.887 192.669 129.893 192.685 129.916 192.685C130.444 192.685 130.632 192.531 130.76 192.342C130.924 192.108 131.013 191.954 131.176 191.627C131.711 190.528 132.015 190.188 132.517 190.188C132.559 190.188 132.687 190.23 132.744 190.278C132.76 190.285 132.792 190.352 132.792 190.368C132.792 190.499 132.735 190.74 132.68 190.813C132.655 190.845 132.613 190.861 132.604 190.855C132.517 190.797 132.312 190.692 132.191 190.692C131.957 190.692 131.81 190.839 131.532 191.384C131.186 192.066 130.933 192.512 130.69 192.675C130.68 192.685 130.674 192.701 130.68 192.71C130.802 192.774 130.901 192.87 131.045 193.06C131.404 193.547 131.756 194.011 132.136 194.489C132.703 195.197 132.847 195.206 133.426 195.222C133.458 195.222 133.442 195.344 133.416 195.344C133.224 195.376 132.581 195.335 132.466 195.319C132.223 195.287 132.136 195.222 132.005 195.101C131.73 194.832 131.208 194.075 130.648 193.319C130.415 193.002 130.242 192.832 129.9 192.832C129.893 192.832 129.877 192.848 129.877 192.864C129.877 193.271 129.887 194.409 129.893 194.758C129.9 195.037 129.941 195.101 130.162 195.158C130.258 195.181 130.332 195.197 130.511 195.222C130.543 195.248 130.536 195.328 130.511 195.344C130.389 195.344 129.893 195.319 129.586 195.319C129.292 195.319 128.975 195.335 128.732 195.344C128.7 195.344 128.7 195.229 128.716 195.222L129.032 195.181Z" fill="#FEFEFE"/>
<path id="Fill 54" fill-rule="evenodd" clip-rule="evenodd" d="M137.639 190.969C137.507 191.309 137.101 192.523 136.979 192.879C136.979 192.911 136.989 192.93 137.015 192.937C137.085 192.946 137.29 192.946 137.725 192.946C137.904 192.946 138.224 192.946 138.263 192.937C138.269 192.937 138.288 192.911 138.279 192.879C138.087 192.261 137.792 191.319 137.671 190.963C137.661 190.963 137.639 190.963 137.639 190.969ZM136.096 194.481C136.589 193.312 137.319 191.222 137.501 190.732C137.559 190.569 137.597 190.434 137.613 190.325C137.619 190.325 137.687 190.335 137.802 190.335C137.923 190.335 137.978 190.325 137.984 190.325C138.003 190.399 138.035 190.53 138.087 190.684C138.231 191.091 139.171 194.052 139.418 194.651C139.626 195.132 139.661 195.157 140.205 195.221C140.221 195.247 140.211 195.327 140.189 195.343C139.984 195.337 139.523 195.321 139.335 195.321C139.139 195.321 138.605 195.327 138.432 195.343C138.426 195.327 138.416 195.241 138.432 195.221C138.595 195.199 138.727 195.18 138.839 195.141C138.97 195.084 138.97 195.026 138.935 194.914C138.848 194.564 138.538 193.693 138.384 193.244C138.384 193.244 138.336 193.206 138.33 193.206C138.247 193.196 138.077 193.196 137.571 193.196C137.031 193.196 136.989 193.196 136.906 193.206C136.883 193.206 136.851 193.238 136.842 193.264C136.679 193.687 136.346 194.581 136.314 194.814C136.288 194.962 136.282 195.093 136.547 195.157C136.647 195.18 136.72 195.199 136.893 195.221C136.906 195.241 136.899 195.327 136.883 195.343C136.736 195.343 136.314 195.321 135.959 195.321C135.559 195.321 135.312 195.343 135.191 195.343C135.171 195.337 135.171 195.241 135.191 195.221C135.76 195.148 135.84 195.084 136.096 194.481Z" fill="#FEFEFE"/>
<path id="Fill 56" fill-rule="evenodd" clip-rule="evenodd" d="M144.017 82.738L140.772 79.4888L144.721 75.5347L140.545 71.3563L144.09 67.8027L144.193 67.9053L151.61 75.3104L144.09 82.8405L144.017 82.738ZM144.09 65.941L137.45 72.59L138.381 73.5224L139.642 72.2856L139.716 72.3625L142.861 75.5347L139.841 78.5852L139.767 78.4827L81.5175 20.1548L80.5895 21.0872L144.09 84.7022L153.473 75.3104L144.09 65.941Z" fill="#FEFEFE"/>
<path id="Fill 58" fill-rule="evenodd" clip-rule="evenodd" d="M13.4855 82.8399L13.3863 82.7374L5.99106 75.3098L13.4855 67.8053L13.5591 67.9047L17.0823 71.407L12.9831 75.5117L16.8839 79.4145L13.4855 82.8399ZM17.8151 78.4821L17.7351 78.4084L14.8455 75.5117L18.0135 72.3394L18.1127 72.4131L76.0839 130.462L77.0183 129.53L13.4855 65.9404L4.12866 75.3098L13.4855 84.7048L20.1255 78.0559L19.1943 77.1234L17.8151 78.4821Z" fill="#FEFEFE"/>
<path id="Fill 60" fill-rule="evenodd" clip-rule="evenodd" d="M87.0762 19.6268L135.412 68.031L136.343 67.0985L88.0074 18.6943L87.0762 19.6268Z" fill="#FEFEFE"/>
<path id="Fill 62" fill-rule="evenodd" clip-rule="evenodd" d="M135.817 57.6291L97.4646 19.2256L96.5334 20.1548L134.889 58.5616L135.817 57.6291Z" fill="#FEFEFE"/>
<path id="Fill 64" fill-rule="evenodd" clip-rule="evenodd" d="M71.4073 132.124L23.0713 83.7202L22.1401 84.6783L70.4505 133.082L71.4073 132.124Z" fill="#FEFEFE"/>
<path id="Fill 66" fill-rule="evenodd" clip-rule="evenodd" d="M22.7667 93.9954L61.1443 132.428L62.0755 131.495L23.6979 93.063L22.7667 93.9954Z" fill="#FEFEFE"/>
<path id="Fill 68" fill-rule="evenodd" clip-rule="evenodd" d="M87.0762 131.394L88.0074 132.326L136.343 83.9478L135.412 82.9897L87.0762 131.394Z" fill="#FEFEFE"/>
<path id="Fill 70" fill-rule="evenodd" clip-rule="evenodd" d="M96.3325 130.688L97.2637 131.595L135.616 93.1885L134.685 92.2593L96.3325 130.688Z" fill="#FEFEFE"/>
<path id="Fill 72" fill-rule="evenodd" clip-rule="evenodd" d="M71.4073 18.8712L70.4505 17.9644L22.1401 66.3429L23.0713 67.2753L71.4073 18.8712Z" fill="#FEFEFE"/>
<path id="Fill 74" fill-rule="evenodd" clip-rule="evenodd" d="M61.8762 19.3499L60.945 18.4175L22.593 56.8242L23.5242 57.7567L61.8762 19.3499Z" fill="#FEFEFE"/>
<path id="Fill 76" fill-rule="evenodd" clip-rule="evenodd" d="M83.0512 137.463L86.2992 140.712L78.8016 148.242L78.7024 148.143L71.2816 140.712L74.7024 137.312L78.8752 141.494L82.9776 137.363L83.0512 137.463ZM80.5872 134.995L82.0496 136.457L78.8752 139.603L75.6336 136.38L133.883 78.055L132.926 77.1226L69.4192 140.712L78.8016 150.107L88.1584 140.712L81.5184 134.063L80.5872 134.995Z" fill="#FEFEFE"/>
<g id="Group 80">
<mask id="mask1_0_732" style="mask-type:alpha" maskUnits="userSpaceOnUse" x="23" y="0" width="66" height="74">
<path id="Clip 79" fill-rule="evenodd" clip-rule="evenodd" d="M23.7239 0.538574H88.1559V73.5201H23.7239V0.538574Z" fill="white"/>
</mask>
<g mask="url(#mask1_0_732)">
<path id="Fill 78" fill-rule="evenodd" clip-rule="evenodd" d="M71.2823 9.93066L78.8023 2.40055L78.8759 2.50309L86.2967 9.93066L86.2199 10.0076L82.7511 13.4586L78.8503 9.55255L74.8791 13.5067L71.2823 9.93066ZM76.9911 15.6215L75.8103 14.4647L78.8503 11.4175L78.9303 11.5168L81.8199 14.3878L23.7239 72.5908L24.6295 73.52L88.1559 9.93066L78.8023 0.535645L69.4199 9.93066L76.0599 16.5539L76.9911 15.6215Z" fill="#FEFEFE"/>
</g>
</g>
<path id="Fill 81" fill-rule="evenodd" clip-rule="evenodd" d="M87.7792 56.1446C87.728 57.1027 87.6031 58.0576 87.4528 58.7626C86.5471 62.4667 83.7087 64.4053 79.4303 66.3439C77.216 67.3245 75.7087 68.8113 74.8799 70.7755L74.6271 71.3555V71.2818C73.5935 73.4222 72.5375 74.704 70.6783 75.0821C69.3439 75.3608 67.4079 74.579 65.8751 73.951C64.3903 73.371 63.2607 72.916 62.4799 73.1435C61.5967 73.4222 61.1455 73.1178 61.0463 73.0185C60.8959 72.8166 60.6431 72.7654 60.4159 72.8423L60.3903 72.8679C60.3167 72.8935 58.7807 73.6241 57.8751 75.4602C57.7503 75.7133 57.6767 75.8383 57.6255 75.8895L57.5775 75.9376H57.5263C57.4719 75.912 57.4239 75.912 57.3983 75.912C57.0239 75.8383 56.5951 75.8126 56.0159 76.0658L55.8879 76.1395L55.8399 75.9889C55.6639 75.2583 55.5871 74.3515 55.5871 73.999V73.9253L55.6383 73.874C57.3983 72.7397 58.4543 71.7592 58.6335 71.1536C58.8319 70.4486 59.1615 69.9968 59.5871 69.7437C59.9871 69.5418 60.4927 69.5162 61.1199 69.7181C63.0815 70.298 67.2575 70.0705 70.6303 69.1637L70.8287 69.1125L70.7807 69.2919C70.7039 69.795 70.7039 70.3237 70.7551 70.878C71.3568 70.7274 71.8111 70.2468 71.8847 69.6412C72.1631 67.4526 74.2463 66.3696 77.6447 64.7834C78.4767 64.3797 79.3055 64.0016 80.1599 63.5498C82.7007 62.2392 86.1439 59.5188 87.5551 56.0934L87.8335 55.4141L87.7792 56.1446ZM89.1871 64.3028L89.264 64.1522C90.9216 61.0056 91.3759 56.5708 90.3712 53.123C89.5904 50.4762 88.0063 48.5152 85.7951 47.4289C85.3663 47.1534 84.912 46.9515 84.4352 46.7753L84.1567 46.6503C83.1551 45.4647 81.9935 44.811 80.8639 44.811H80.7135C80.4895 44.811 80.2847 44.9616 80.2111 45.1891C80.2111 45.1891 80.1599 45.3397 80.0607 45.5673C79.8559 46.1472 79.4527 47.2559 79.1551 48.1339L79.1039 48.2108H79.0303C78.2239 48.2877 76.9408 48.4639 75.4816 48.8164H75.4559C72.8927 49.547 71.7344 50.175 71.4559 50.9825C71.3312 51.3574 71.4079 51.7131 71.6351 52.1136L71.712 52.2418L71.5807 52.2899C70.7551 52.6936 69.6223 53.3249 69.0207 54.206C68.3647 55.2122 68.8927 56.2952 69.3439 56.7727L69.5743 57.0515L69.8975 56.9489C69.9743 56.9489 70.3263 56.8496 71.1327 56.4202L70.8799 55.8915C70.7295 55.6159 70.3776 55.5166 70.1023 55.6416L69.9743 55.7153L69.9231 55.5903C69.8239 55.3147 69.8463 55.0616 69.9743 54.8597C70.5247 54.0298 72.0096 53.3249 72.7167 53.0717L74.4511 52.6456V52.7962C74.4767 53.123 74.576 53.3986 74.7551 53.6004C74.9279 53.7767 75.1775 53.9016 75.4559 53.9273C75.7087 53.9529 76.0095 53.9273 76.3103 53.8279C77.4687 53.4755 77.9743 53.3249 78.1727 53.2736C78.0735 52.998 77.872 52.7705 77.6192 52.6167C77.3151 52.4693 76.9919 52.418 76.6623 52.5174L75.9839 52.7193C75.8848 52.7705 75.8111 52.7705 75.7311 52.7962L75.5807 52.8186V52.6456C75.5807 52.5943 75.6063 52.5174 75.6063 52.4437L75.6319 52.3668L75.7087 52.3411L77.6959 51.8637C78.3487 51.7131 78.7519 51.1075 78.6751 50.4538L72.8415 51.8637L72.7423 51.7131C72.6656 51.6106 72.5887 51.5112 72.5631 51.4343L72.5375 51.3574L72.5631 51.3094C72.6911 51.1331 73.2192 50.6557 75.7568 49.9251C77.3151 49.547 78.7999 49.3964 79.5327 49.3195C79.7823 49.3195 80.0096 49.1432 80.0863 48.9157C80.3615 48.1115 80.7871 46.9259 81.0655 46.1985L81.1423 45.971L81.2415 45.9966C82.2463 46.1985 83.2799 47.1277 84.0319 48.4896C84.4863 49.3195 84.7647 50.2263 84.8127 51.0306L84.8639 51.5593L84.5856 51.1075C84.2112 50.4762 83.68 49.8738 83.1007 49.3708C82.9023 49.1945 82.6271 49.092 82.3743 49.092C81.9935 49.092 81.6447 49.2939 81.4431 49.5983C82.0703 49.9475 84.8639 51.8381 84.1855 54.8341C83.8559 56.1959 82.2976 57.5033 79.5327 58.7626C78.5503 59.2176 77.6192 59.6181 76.8127 59.9738C75.5807 60.5281 74.5023 60.9799 73.5711 61.4574L73.4464 61.5086L73.3951 61.3837C73.3439 61.1818 73.2703 61.0056 73.2191 60.8293C73.1679 60.7268 73.1424 60.6018 73.0912 60.4769L73.0431 60.3263H73.1936C74.4512 60.1725 75.4559 58.9901 76.2111 58.1345C76.4639 57.8557 76.688 57.5802 76.8927 57.4039L76.9663 57.327L77.0431 57.3783C77.2672 57.5545 77.6447 57.9326 78.0479 58.3845C78.2463 58.1858 78.3743 57.8814 78.3743 57.5802C78.4 57.2277 78.2463 56.9009 77.9743 56.6734C77.0655 55.8691 76.6623 56.1446 76.5119 56.244C76.1343 56.4715 75.7855 56.9009 75.3567 57.3783C74.6015 58.2339 73.6703 59.3169 72.8159 59.1663C71.6607 58.9901 71.0047 57.782 70.8287 57.4039L69.7727 57.8077C69.9231 58.1858 70.5503 59.4419 71.7599 60.0219L71.8368 60.0731V60.1244C71.8848 60.4769 72.0096 60.8806 72.1376 61.2074C72.2143 61.4317 72.3135 61.7105 72.3647 61.9605L72.3871 62.063L72.3135 62.1143C69.9231 63.4729 68.8927 64.8571 68.4383 67.4014C68.8671 67.2988 69.2703 67.1995 69.6735 67.0745C70.3776 64.0529 72.2623 63.2197 77.2671 61.0312C78.0991 60.6531 79.0047 60.2494 80.0096 59.7976C83.1551 58.3845 84.8895 56.824 85.2927 55.0872C85.3919 54.5842 85.4431 54.0779 85.4175 53.5748V53.5492L85.4431 53.5011C85.92 52.7449 86.0959 51.7612 85.9199 50.6044L85.8463 50.0244L86.1695 50.5275C86.8768 51.6618 87.1264 52.8955 86.9248 54.1804C86.3968 57.4552 82.8767 60.8806 79.6319 62.5404C78.8255 62.9442 78.0223 63.3223 77.2671 63.7004L77.1679 63.726C74.7551 64.8828 72.4639 65.9402 71.3823 67.7026L71.3567 67.7282L71.3088 67.7538C70.3008 68.0807 69.1199 68.3594 67.9359 68.5613L67.8367 68.5837L67.8111 68.51C67.584 68.1832 67.1583 67.6032 66.5535 67.3245C65.4976 66.722 64.2399 66.5458 63.9871 66.5202C63.1071 66.4208 62.3039 66.1421 61.6223 65.6134C61.0687 65.2096 60.8191 64.8315 60.7935 64.8315C60.6431 64.6072 60.3679 64.5303 60.1151 64.6296L59.7887 64.7578L59.7119 64.6809C59.5359 64.3797 59.2863 63.8254 59.1103 62.8192C58.9311 61.8611 59.1359 60.4993 59.3343 59.2913C59.5871 57.7564 59.7631 56.6477 59.2607 56.0421C58.7807 55.4397 58.2527 55.3628 57.6511 55.8434L57.6255 55.8691H57.5263C57.0975 55.7153 56.9183 55.3628 56.6943 54.8341L56.6687 54.786C56.5439 54.456 56.2175 54.1804 55.7119 53.9785L55.5871 53.9529L55.6383 53.8279C55.8623 53.2992 56.2911 52.4693 56.8447 52.4693H56.9727C57.2735 52.543 57.5775 52.6167 57.9007 52.6712C59.1103 52.8955 60.6175 53.1999 60.8447 53.9529C60.9695 54.331 61.0943 54.911 61.2735 55.5647C61.6735 57.2533 62.2015 59.57 62.9087 60.5762C63.8623 61.9861 64.1631 62.0886 64.2879 62.1399L64.3679 62.1623C64.4415 62.188 66.6783 62.7167 68.8927 63.0948C69.2703 62.7679 69.6991 62.4411 70.2015 62.1399C68.2879 61.8611 65.9263 61.358 64.7679 61.0825H64.7167L64.6911 61.0568C64.5919 60.9287 64.3167 60.6531 63.8399 59.9225C63.2863 59.0894 62.7327 56.7983 62.3807 55.2891C62.2015 54.6098 62.0767 54.0298 61.9519 53.6261C61.5231 52.2162 59.6383 51.8381 58.1279 51.5369H58.1055C57.7759 51.4856 57.5007 51.4343 57.2479 51.3574C55.5871 50.9569 54.6079 52.9724 54.3039 54.206L54.2783 54.3054C54.2527 54.4303 54.2783 54.5842 54.3583 54.6835C54.4319 54.8085 54.5567 54.8854 54.6815 54.911H54.7807C55.0367 54.9591 55.4623 55.0872 55.6127 55.2122L55.6639 55.2891C55.8623 55.7922 56.2431 56.6221 57.1743 56.9489C57.5519 57.0771 57.9007 57.0258 58.2303 56.824L58.4031 56.7246L58.4287 56.9009C58.4799 57.3014 58.3551 58.2114 58.2047 59.115C57.9999 60.4 57.7503 61.8868 57.9775 63.0435C58.4031 65.2865 59.1615 65.8152 59.3855 65.9402L59.6127 66.0684L60.1663 65.8409L60.2175 65.8921C60.7711 66.4689 61.9775 67.4783 63.8623 67.6545C63.9871 67.6801 64.2143 67.7026 64.4927 67.7538C64.5407 67.7795 65.4976 68.2088 65.9263 68.6126L66.1023 68.8113L65.8239 68.8369C64.0127 68.9875 62.4031 68.9138 61.4463 68.6126C60.5151 68.3338 59.7119 68.3851 59.0335 68.7376C58.3295 69.1381 57.8271 69.8206 57.5263 70.8268C57.3471 71.2561 55.9167 72.3648 54.7071 73.1435L54.4319 73.2941V73.6241C54.4319 73.874 54.4575 76.1908 55.1615 77.2994C55.2351 77.45 55.3855 77.5526 55.5391 77.575C55.7119 77.6006 55.8623 77.5526 55.9903 77.45C56.6207 76.947 56.8959 76.9982 57.1967 77.0463C57.9007 77.1488 58.4031 77.0239 58.9087 75.9633C59.3855 74.9827 60.1151 74.3771 60.5151 74.1272L60.5663 74.0759L60.6431 74.1016C60.9951 74.3034 61.7503 74.579 62.8063 74.2522C63.1807 74.1272 64.2143 74.5277 65.4239 75.0084C67.2063 75.7133 69.2191 76.5432 70.9056 76.2164C72.2143 75.9376 73.2448 75.3096 74.1472 74.2009L74.3007 74.0246L74.3776 74.2522C74.6495 75.2359 75.3823 76.4952 76.2591 77.9275C76.3647 78.0813 76.4384 78.2319 76.5375 78.3825C76.6143 78.4818 76.9663 79.0874 77.1167 79.3886C77.2927 79.7924 77.6191 80.6736 77.9231 82.1604L77.9487 82.3366L77.7696 82.311C74.6496 81.9329 72.6399 78.8343 71.6863 76.947C71.4559 77.0239 71.2064 77.0719 70.9536 77.1232C70.8032 77.1488 70.6784 77.1713 70.5247 77.1969C70.7551 77.6519 71.0784 78.3088 71.5327 79.0105L71.6095 79.1131L71.4816 79.1868C69.7984 80.0936 65.7727 82.4103 64.3679 84.4771C62.4799 87.1975 62.5279 89.7161 64.4927 91.3759C65.1711 91.9559 66.2015 92.5872 67.1327 93.1159C68.0639 93.6926 69.4687 94.5258 69.7727 94.9776L69.8239 95.0288L69.7727 95.1057C69.6479 95.3044 69.5231 95.5319 69.3951 95.7594L69.3695 95.8075C68.5407 97.3199 67.9615 98.0249 67.1807 97.7749C64.7903 96.9931 63.0335 97.0443 61.9007 97.8486C61.0463 98.4799 60.6175 99.5629 60.6175 100.998V101.047C60.6175 101.377 60.8703 101.626 61.1967 101.626C62.0767 101.626 62.5535 102.408 62.6783 102.658C63.1071 103.491 63.7887 103.543 66.0767 103.517C66.6304 103.491 67.1071 103.543 67.5103 103.565H67.6351C68.8415 103.642 69.7727 103.668 70.5759 102.607C70.8799 102.258 71.3823 101.502 72.0351 100.543L72.0607 100.492C73.4207 98.4542 74.9279 96.2625 75.4079 95.91L75.4335 95.8844C75.9615 95.6825 76.3647 95.1538 76.4128 94.5482C76.4895 93.8465 76.1343 93.1896 75.4816 92.789C75.1551 92.5872 74.7007 92.459 74.1727 92.3084C73.2447 92.0585 72.0863 91.7284 71.7344 91.0491C71.5583 90.7479 71.5583 90.3698 71.712 89.8923C72.24 88.2549 75.8367 87.6237 77.4943 87.4218C77.4463 87.095 77.3951 86.7201 77.3664 86.2907C75.0784 86.5663 71.3312 87.3481 70.6304 89.5367C70.3776 90.3185 70.3999 91.0235 70.7039 91.6034C71.3087 92.7121 72.7167 93.0902 73.8463 93.4171C74.2752 93.5196 74.7008 93.6446 74.8799 93.7696C75.2543 93.9971 75.3088 94.247 75.2831 94.4232C75.2544 94.5995 75.1551 94.7757 75.0047 94.8013C74.4767 95.0032 73.6703 96.035 71.0784 99.8898L71.0303 99.9635C70.4511 100.819 69.9487 101.575 69.6735 101.905C69.2448 102.482 68.8927 102.508 67.6351 102.434C67.2575 102.408 66.7295 102.383 66.1503 102.383H65.6735C64.4671 102.383 63.9391 102.331 63.7887 102.232L63.7599 102.206C63.7343 102.206 63.7119 102.181 63.7119 102.13C63.5615 101.854 62.9823 100.87 61.8751 100.569L61.7759 100.543V100.418C61.8751 99.6623 62.1503 99.1079 62.5791 98.7811C63.1327 98.3773 64.3424 98.0505 66.8287 98.858C68.6655 99.4604 69.7215 97.5218 70.3776 96.3618C70.5247 96.0863 70.6784 95.8075 70.8032 95.6345C70.9536 95.3813 71.0048 95.1314 70.9536 94.827C70.7808 93.9971 69.5967 93.2665 67.7119 92.1322C66.7807 91.5778 65.8239 91.0235 65.2447 90.5204C63.3343 88.883 64.2143 86.6945 65.2959 85.1051C66.6303 83.1922 70.9056 80.7985 72.1887 80.0936L72.2624 80.0423L72.3391 80.1449C73.9967 82.2341 75.9104 83.3684 78.0224 83.4677L78.1215 83.4934L78.1472 83.5959C78.1984 84.0733 78.2463 84.5764 78.2976 85.0795C78.6271 89.338 79.1551 92.9364 82.6751 93.8945C84.1087 94.2726 85.5903 94.2983 86.7743 94.3239H86.8256C87.3535 94.3239 88.0575 94.3495 88.3839 94.4232L88.4864 94.4489V94.5482C88.4352 95.5319 88.1087 97.948 87.3535 98.6048C86.624 99.2585 86.4223 99.2329 84.4095 98.7554H84.3615C83.504 98.5311 82.6751 98.8067 82.0191 99.4604C81.0431 100.444 80.5887 102.232 80.9375 103.591V103.616C81.0143 103.844 81.2927 104.046 81.5455 104.02H81.6192C82.2239 104.02 83.0271 104.498 83.1295 104.85L83.1807 104.949C83.5807 105.68 84.0575 105.831 84.6367 105.831C84.9119 105.831 85.216 105.808 85.5168 105.782C85.7696 105.757 86.0703 105.706 86.3967 105.68C86.6975 105.68 87.0271 105.658 87.3279 105.632H87.3792C89.088 105.555 90.8479 105.478 91.5039 104.02C91.7055 103.591 92.0063 102.658 92.4063 101.45C93.3887 98.5055 94.3712 95.6825 94.8992 95.2051L94.9472 95.1794C95.4016 94.9519 95.6768 94.5001 95.6768 93.9202C95.7056 92.8371 94.8479 91.2766 93.5424 90.7223C92.9343 90.4691 92.1567 90.4948 91.3503 90.546C90.4735 90.5717 89.4431 90.5941 89.1135 90.2192C88.9375 90.0173 88.8895 89.6648 88.9888 89.1618C89.1136 88.4536 89.2127 87.8512 89.3376 87.2488L89.3631 87.1463C89.6671 85.6082 89.9199 84.3008 89.9423 82.939C89.9711 82.5865 89.8176 82.2597 89.568 82.0354C89.3376 81.8335 89.0624 81.7054 88.7616 81.7054C88.9119 83.4453 88.6367 84.9065 88.2336 86.9188C88.1087 87.55 87.9808 88.2037 87.8559 88.9599C87.7056 89.8154 87.8335 90.4948 88.2336 90.9498C88.9375 91.7797 90.2463 91.7284 91.3759 91.6771C92.0288 91.6547 92.7359 91.6291 93.0879 91.7797C93.6415 92.0328 94.1951 92.6609 94.4447 93.3658C94.5951 93.7696 94.5439 93.9971 94.5183 94.0483V94.122H94.4447C93.6415 94.4745 92.8607 96.4644 91.3247 101.098C90.9471 102.206 90.6239 103.161 90.4479 103.565C90.0959 104.373 88.736 104.421 87.3279 104.498H87.1776C86.9024 104.523 86.5984 104.523 86.2976 104.549C85.9711 104.574 85.6671 104.6 85.4175 104.623C84.7871 104.699 84.5119 104.699 84.3839 104.648C84.3359 104.623 84.2847 104.574 84.2111 104.446C83.9071 103.642 82.9023 103.062 82.0703 102.911L81.9935 102.886L81.9711 102.786C81.9199 101.876 82.2719 100.848 82.8256 100.268C83.2031 99.8898 83.6287 99.7616 84.1087 99.8641H84.1311C86.2207 100.367 86.9248 100.543 88.1087 99.4604C89.3376 98.3517 89.6159 95.0801 89.6415 94.3239C89.6415 93.2921 88.5599 93.2152 86.7967 93.1639C85.6671 93.1639 84.2591 93.1383 82.976 92.789C80.4095 92.0809 79.7823 89.6136 79.4303 85.0058C79.1295 80.9523 78.2463 79.0618 77.9743 78.5844L77.7696 78.2063C77.6192 77.9531 77.4688 77.7032 77.2927 77.4244L77.2415 77.3251C76.3359 75.8383 75.3823 74.2265 75.4079 73.5472C75.4559 72.2623 76.0096 69.1125 79.8815 67.3757C84.3615 65.3602 87.5551 63.1973 88.5599 59.0157C88.8895 57.6058 89.1647 55.1385 88.784 52.8186L88.9119 52.7962L89.0399 52.7449C89.1135 52.998 89.2127 53.2223 89.264 53.4498C90.3456 57.0771 89.5168 61.1818 88.256 63.6491L88.1567 63.8254C88.0319 64.0272 87.9327 64.2035 87.8047 64.3797C85.4911 67.9557 82.3232 69.5931 79.7568 70.878L79.1775 71.1792C78.8767 71.3555 78.6495 71.6086 78.5504 71.9354C78.4767 72.211 78.5023 72.5122 78.6271 72.791C79.104 72.5122 79.6319 72.2366 80.1855 71.9611L80.2847 71.9098C82.0191 71.0286 83.9807 70.0225 85.8463 68.3851L86.2207 68.055L86.0448 68.51C85.216 70.8011 84.7647 72.8166 84.688 74.4797C84.6112 76.367 85.1135 77.9275 86.0703 78.8856C86.7967 79.6162 87.7535 79.9943 88.9119 79.9943C89.0144 79.9943 89.1135 79.9943 89.2127 79.9686C92.4576 79.818 98.3935 78.1294 101.386 74.9058C104.278 71.7848 103.901 67.3533 100.458 63.9023C99.9296 63.3703 99.4016 62.8416 98.8992 62.3642C96.5568 60.0988 94.3455 57.9839 94.1951 55.8691L94.1695 55.8434C93.9903 54.4816 93.8656 50.7294 95.3759 49.3964C95.9039 48.9414 96.4063 48.8164 96.9119 49.0439C97.8176 49.4957 98.6464 51.1588 98.6208 52.4693C98.5439 54.4303 97.6895 55.4397 97.6895 55.4397L97.1839 56.0165C97.1359 56.0677 97.1359 56.1446 97.1615 56.1959C97.1839 56.244 97.2383 56.2952 97.2896 56.2952L98.0415 56.3978C98.1408 56.3978 100.483 56.6221 101.939 54.8597C102.72 53.9016 102.918 52.4917 102.467 51.1588C102.115 50.1013 101.36 49.3195 100.483 49.0696C100.406 49.6463 100.557 50.2263 100.96 50.7037C101.136 50.9313 101.286 51.2068 101.386 51.5369C101.712 52.4693 101.587 53.4755 101.059 54.1291C100.634 54.6322 100.08 54.9591 99.4016 55.1385L99.1488 55.2122L99.2479 54.9591C99.5519 54.206 99.7248 53.3986 99.7504 52.4917C99.8016 50.9056 98.9215 48.7395 97.3887 48.0089C96.4831 47.5828 95.5008 47.759 94.624 48.5376C92.4319 50.4762 92.9599 55.4141 93.0368 55.9684C93.2383 58.5126 95.5999 60.7781 98.0928 63.1973L98.32 63.4216C98.7711 63.8254 99.2224 64.2804 99.6511 64.7065C102.669 67.7538 103.024 71.4324 100.557 74.1272C97.8176 77.0976 92.1311 78.6837 89.1647 78.8343H88.9375C88.0831 78.8343 87.3792 78.5844 86.8768 78.0813C86.144 77.3507 85.7696 76.0658 85.8463 74.5277C85.9935 70.6986 88.3839 65.8152 89.1135 64.4278C89.1391 64.3797 89.1647 64.3284 89.1871 64.3028Z" fill="#FEFEFE"/>
</g>
</svg>
