<svg width="160" height="151" viewBox="0 0 160 151" fill="none" xmlns="http://www.w3.org/2000/svg">
<g id="Edelweiss Logo">
<path id="Fill 1" fill-rule="evenodd" clip-rule="evenodd" d="M2.05502 72.6996H2.38081C2.68052 72.6996 2.81792 72.7933 3.0069 73.0843L4.24922 75.0259H5.89502L4.37792 72.6568C4.05212 72.1436 3.86371 72.0406 3.74371 71.9724C3.85502 71.8954 4.044 71.7843 4.36922 71.3389L5.83531 69.0386H4.19763L2.99821 70.9113C2.80922 71.1937 2.67183 71.2966 2.37212 71.2966H2.05502V69.0386H0.597626V75.0259H2.05502V72.6996Z" fill="white"/>
<path id="Fill 3" fill-rule="evenodd" clip-rule="evenodd" d="M8.99456 75.026H10.4514V73.0503L12.5169 69.0381H10.863L9.72267 71.2452L8.59166 69.0381H6.93716L8.99456 73.0503V75.026Z" fill="white"/>
<path id="Fill 5" fill-rule="evenodd" clip-rule="evenodd" d="M16.974 70.4068V69.0386H14.0598V70.4068H14.7879V73.649H14.0598V75.0259H16.974V73.649H16.2453V70.4068H16.974Z" fill="white"/>
<path id="Fill 7" fill-rule="evenodd" clip-rule="evenodd" d="M21.4294 72.3653L20.1691 69.0381H18.5494L21.0091 75.026H21.8752L24.3007 69.0381H22.681L21.4294 72.3653Z" fill="white"/>
<path id="Fill 9" fill-rule="evenodd" clip-rule="evenodd" d="M139.439 70.3468C139.946 70.3468 140.399 70.518 140.759 70.8426L141.702 69.9707C141.137 69.3632 140.331 68.9785 139.439 68.9785C137.751 68.9785 136.388 70.3468 136.388 72.0321C136.388 73.7168 137.751 75.0856 139.439 75.0856C140.331 75.0856 141.137 74.7009 141.702 74.094L140.759 73.221C140.399 73.5461 139.946 73.7087 139.439 73.7087C138.548 73.7087 137.845 73.0584 137.845 72.0321C137.845 71.0057 138.548 70.3468 139.439 70.3468Z" fill="white"/>
<path id="Fill 11" fill-rule="evenodd" clip-rule="evenodd" d="M146.549 70.4068V69.0386H143.635V70.4068H144.363V73.649H143.635V75.0259H146.549V73.649H145.821V70.4068H146.549Z" fill="white"/>
<path id="Fill 13" fill-rule="evenodd" clip-rule="evenodd" d="M151.441 75.026V70.4069H152.975V69.0381H148.449V70.4069H149.983V75.026H151.441Z" fill="white"/>
<path id="Fill 15" fill-rule="evenodd" clip-rule="evenodd" d="M156.397 75.026H157.854V73.0503L159.919 69.0381H158.266L157.125 71.2452L155.994 69.0381H154.34L156.397 73.0503V75.026Z" fill="white"/>
<path id="Fill 18" fill-rule="evenodd" clip-rule="evenodd" d="M104.291 94.7819L112.264 76.2176H122.892L104.291 94.7819ZM96.2031 81.9261C101.821 80.5231 107.181 78.3044 110.021 77.0345L102.384 94.8149C101.231 91.8498 99.0477 86.6736 96.2031 81.9261ZM89.2396 83.1208C90.9231 82.9917 92.6715 82.7135 94.4188 82.3391C96.9428 86.4555 98.9654 90.9861 100.222 94.0807L89.2396 83.1208ZM81.9005 105.104C83.1706 102.274 85.4008 96.9115 86.8095 91.2927C91.6611 94.1866 96.9643 96.3983 99.9051 97.5317L81.9005 105.104ZM81.0286 117.998V107.354L99.4611 99.6017L81.0286 117.998ZM86.3306 83.2498C86.0611 89.8735 82.9985 98.0813 81.0286 102.73V85.336C83.0188 85.1647 84.8396 84.4115 86.3306 83.2498ZM98.9886 95.3037C95.8872 94.0489 91.3486 92.0297 87.2234 89.5119C87.5985 87.7682 87.8773 86.0245 88.0072 84.3449L98.9886 95.3037ZM71.8477 75.3497C71.8477 70.7764 75.5764 67.0557 80.159 67.0557C84.4814 67.0557 88.0408 70.3667 88.4315 74.5803V76.1192C88.0408 80.3327 84.4814 83.6443 80.159 83.6443C75.5764 83.6443 71.8477 79.9231 71.8477 75.3497ZM79.2895 102.74C77.3196 98.1027 74.2553 89.9082 73.9886 83.2498C75.4785 84.4115 77.2999 85.1647 79.2895 85.336V102.74ZM79.2895 117.998L61.1614 99.9055L79.2895 107.358V117.998ZM73.504 91.2956C74.915 96.9358 77.155 102.305 78.4269 105.127L60.1759 97.6231C63.0599 96.5216 68.5185 94.2716 73.504 91.2956ZM72.3103 84.3438C72.4396 86.0268 72.7173 87.7717 73.0912 89.5148C68.966 92.0344 64.4257 94.0529 61.3243 95.3066L72.3103 84.3438ZM65.8999 82.338C67.646 82.7106 69.3944 82.9871 71.0819 83.1155L60.0988 94.0761C61.3561 90.9814 63.3793 86.4514 65.8999 82.338ZM50.2419 77.0079C53.0646 78.276 58.4518 80.5173 64.1156 81.9266C61.0825 86.9912 58.7967 92.5493 57.7144 95.3836L50.2419 77.0079ZM37.4251 76.2176H48.0437L55.2964 94.0523L37.4251 76.2176ZM55.5689 56.3752L47.9956 74.4819H37.4251L55.5689 56.3752ZM64.1132 68.6421C58.4721 70.048 53.1011 72.2783 50.2703 73.5476L57.828 55.4791C58.9492 58.3891 61.1782 63.7424 64.1132 68.6421ZM71.0779 67.4503C69.3921 67.5793 67.6443 67.8564 65.8976 68.2296C63.3753 64.1138 61.3538 59.585 60.0976 56.4921L71.0779 67.4503ZM73.0959 61.0603C72.7208 62.8046 72.4425 64.5483 72.3121 66.2278L61.3306 55.2685C64.4321 56.5233 68.9718 58.5425 73.0959 61.0603ZM72.1938 81.4424C65.5857 81.182 57.4756 78.1869 52.8019 76.2176H70.1527C70.3219 78.1742 71.0582 79.9671 72.1938 81.4424ZM52.4901 74.4819C57.1341 72.5074 65.5306 69.3554 72.2982 69.1182C71.1017 70.6184 70.3272 72.4645 70.1527 74.4819H52.4901ZM79.2895 47.8446V65.3641C77.2976 65.5359 75.4738 66.2897 73.9828 67.4544C74.2164 60.8092 77.3069 52.5239 79.2895 47.8446ZM78.4292 45.4454C77.1602 48.2698 74.9219 53.6474 73.5103 59.2801C68.5318 56.3099 63.0779 54.0587 60.1898 52.9543L78.4292 45.4454ZM79.2895 32.7024V43.2134L61.3619 50.5938L79.2895 32.7024ZM81.0286 47.8487C83.0118 52.5343 86.104 60.826 86.337 67.4561C84.846 66.2903 83.0217 65.5359 81.0286 65.3641V47.8487ZM81.0286 32.7024L99.5144 51.151L81.0286 43.2226V32.7024ZM86.8077 59.2818C85.4014 53.6798 83.1788 48.326 81.908 45.4888L99.7005 53.1192C96.7219 54.274 91.5509 56.4493 86.8077 59.2818ZM88.0066 66.2249C87.8767 64.5472 87.5979 62.8052 87.2222 61.0614C91.344 58.543 95.8808 56.5251 98.9834 55.2702L88.0066 66.2249ZM94.4159 68.24C92.6663 67.8651 90.9161 67.5868 89.2304 67.4572L100.226 56.4846C98.9672 59.5815 96.9411 64.1202 94.4159 68.24ZM107.518 76.2176C102.833 78.1875 94.7011 81.189 88.1196 81.4488C89.2576 79.9723 89.9961 78.1771 90.1654 76.2176H107.518ZM90.1654 74.4819C89.9915 72.468 89.2188 70.6248 88.0251 69.1258C94.7492 69.3659 103.145 72.5079 107.803 74.4819H90.1654ZM110.003 73.536C107.157 72.2655 101.807 70.0532 96.2002 68.6531C98.9886 63.9976 101.145 58.9266 102.317 55.9338L110.003 73.536ZM122.892 74.4819H112.313L104.142 55.7689L122.892 74.4819ZM80.159 29.3804L34.0964 75.3497L80.159 121.32L126.221 75.3497L80.159 29.3804Z" fill="white"/>
<path id="Fill 20" fill-rule="evenodd" clip-rule="evenodd" d="M136.388 81.2727H159.83V79.5371H136.388V81.2727Z" fill="white"/>
<path id="Fill 22" fill-rule="evenodd" clip-rule="evenodd" d="M0.579132 81.2923H24.0215V79.5566H0.579132V81.2923Z" fill="white"/>
<path id="Fill 23" fill-rule="evenodd" clip-rule="evenodd" d="M21.4651 45.052L19.8355 44.3167L17.9758 48.4191L16.0077 47.5311L17.726 43.741L16.0964 43.0057L14.3781 46.7958L12.461 45.9303L14.3207 41.8272L12.6906 41.0913L10.0489 46.9201L18.8228 50.8814L21.4651 45.052Z" fill="white"/>
<path id="Fill 24" fill-rule="evenodd" clip-rule="evenodd" d="M18.3073 35.1056L19.1293 33.9202C20.0841 32.5427 21.7293 32.0764 23.3246 33.1779C24.9316 34.2876 25.062 35.9804 24.1073 37.3579L23.2852 38.5428L18.3073 35.1056ZM25.578 38.3733C27.12 36.1499 26.7131 33.2132 24.4052 31.6199C22.109 30.033 19.2006 30.6809 17.6586 32.9043L15.7565 35.6477L23.676 41.1173L25.578 38.3733Z" fill="white"/>
<path id="Fill 25" fill-rule="evenodd" clip-rule="evenodd" d="M35.9442 26.4008L34.6781 25.1396L31.4892 28.3274L29.9605 26.8041L32.9066 23.8593L31.6399 22.5986L28.6944 25.5434L27.2045 24.0594L30.3929 20.8705L29.1268 19.6099L24.597 24.1387L31.4144 30.9308L35.9442 26.4008Z" fill="white"/>
<path id="Fill 26" fill-rule="evenodd" clip-rule="evenodd" d="M44.5221 19.8852L43.4787 18.4354L39.9598 20.9578L35.3865 14.6025L33.845 15.7076L39.4613 23.5127L44.5221 19.8852Z" fill="white"/>
<path id="Fill 27" fill-rule="evenodd" clip-rule="evenodd" d="M50.9511 16.3246L50.725 10.0896L55.2316 14.4073L56.2606 13.9462L55.856 3.59082L53.9354 4.45227L54.3273 10.9887L49.6554 6.36957L48.6386 6.82488L48.9928 13.3786L44.3586 8.74276L42.4374 9.60247L49.9343 16.7799L50.9511 16.3246Z" fill="white"/>
<path id="Fill 28" fill-rule="evenodd" clip-rule="evenodd" d="M70.3311 10.2407L69.9746 8.49291L65.5531 9.38965L65.1224 7.27797L69.207 6.44834L68.8505 4.6994L64.7659 5.52845L64.3462 3.46999L68.7682 2.57267L68.4111 0.82373L62.1299 2.09942L64.0488 11.5164L70.3311 10.2407Z" fill="white"/>
<path id="Fill 29" fill-rule="evenodd" clip-rule="evenodd" d="M75.6787 1.92192L75.9552 7.95845L74.7999 8.0111L74.8822 9.79417L79.0886 9.6021L79.0063 7.81902L77.8521 7.87225L77.5755 1.8363L78.7303 1.78307L78.6486 0L74.4422 0.192077L74.5239 1.97515L75.6787 1.92192Z" fill="white"/>
<path id="Fill 30" fill-rule="evenodd" clip-rule="evenodd" d="M88.0134 8.40831L87.9311 8.39905C86.5102 8.23648 85.6047 7.44214 85.2494 6.79359L83.89 7.78464C84.5236 8.89313 85.8146 9.95302 87.7282 10.1723L87.81 10.181C89.93 10.4095 91.6569 9.47399 91.8656 7.66025C92.0923 5.68279 90.7271 4.79357 88.8129 4.34057L88.0569 4.17105C87.2082 3.96278 86.4923 3.68855 86.5659 3.04636C86.6615 2.215 87.7126 2.10102 88.3415 2.17218L88.4511 2.18433C89.1479 2.26475 90.1578 2.75304 90.803 3.4068L92.163 2.41633C91.2859 1.37553 90.0071 0.566145 88.6546 0.411674L88.545 0.398946C86.5607 0.199927 84.8772 1.11345 84.672 2.89999C84.4795 4.57777 85.8042 5.46121 87.6105 5.88875L88.3526 6.05711C89.323 6.292 90.0755 6.61251 89.9798 7.44446C89.8963 8.16763 89.1218 8.52113 88.0134 8.40831Z" fill="white"/>
<path id="Fill 31" fill-rule="evenodd" clip-rule="evenodd" d="M99.1248 12.5316L99.2042 12.5553C101.249 13.1541 103.115 12.5374 103.641 10.789C104.213 8.88275 103.027 7.76905 101.224 6.98454L100.51 6.68544C99.712 6.33137 99.0564 5.93391 99.2419 5.31544C99.483 4.51474 100.538 4.58706 101.144 4.76872L101.249 4.79938C101.921 5.00129 102.829 5.66026 103.347 6.41757L104.862 5.68166C104.182 4.50317 103.068 3.48146 101.764 3.09094L101.658 3.05912C99.7404 2.51355 97.923 3.11582 97.4048 4.83757C96.9184 6.45344 98.0656 7.5573 99.7671 8.29668L100.467 8.59232C101.381 8.99498 102.064 9.44336 101.823 10.2446C101.613 10.9418 100.789 11.153 99.7178 10.8469L99.639 10.8232C98.2685 10.4118 97.5184 9.47055 97.2842 8.76993L95.7706 9.50642C96.1984 10.7092 97.2807 11.9791 99.1248 12.5316Z" fill="white"/>
<path id="Fill 32" fill-rule="evenodd" clip-rule="evenodd" d="M117.105 16.2796L120.21 18.3398L118.024 21.6207L119.605 22.6696L124.936 14.6672L123.355 13.6183L121.199 16.8535L118.096 14.7939L120.251 11.5587L118.67 10.5098L113.339 18.5122L114.919 19.5611L117.105 16.2796Z" fill="white"/>
<path id="Fill 33" fill-rule="evenodd" clip-rule="evenodd" d="M130.519 24.0446L129.416 26.6376L127.933 25.186L130.519 24.0446ZM124.476 26.7811L126.2 26.0087L128.625 28.3825L127.883 30.117L129.385 31.5882L133.34 21.9994L132.545 21.2207L122.974 25.311L124.476 26.7811Z" fill="white"/>
<path id="Fill 34" fill-rule="evenodd" clip-rule="evenodd" d="M134.004 37.8289C135.164 39.4818 137.361 40.2438 139.637 38.6528L144.212 35.4558L143.124 33.9035L138.582 37.0763C137.106 38.1078 136.045 37.6253 135.469 36.8049C134.893 35.984 134.802 34.8246 136.278 33.7924L140.82 30.6197L139.731 29.0669L135.156 32.2651C132.88 33.8549 132.837 36.1645 134.004 37.8289Z" fill="white"/>
<path id="Fill 35" fill-rule="evenodd" clip-rule="evenodd" d="M143.704 46.2191L143.939 46.9412C144.235 47.894 144.344 48.704 143.579 49.0488C142.914 49.3479 142.212 48.8642 141.741 47.8564L141.708 47.7818C141.119 46.4789 141.338 45.2958 141.715 44.6588L140.164 44.001C139.535 45.1141 139.284 46.7635 140.077 48.5165L140.111 48.5912C141.001 50.5252 142.692 51.5267 144.36 50.7752C146.179 49.9559 146.244 48.3297 145.652 46.4563L145.411 45.7222C145.155 44.8879 145.025 44.1323 145.614 43.8668C146.379 43.522 147.017 44.3649 147.277 44.9411L147.323 45.0406C147.611 45.6788 147.709 46.7954 147.476 47.6846L149.027 48.3424C149.472 47.0563 149.513 45.5457 148.953 44.3059L148.908 44.2064C148.062 42.4031 146.414 41.4282 144.77 42.1682C143.228 42.863 143.146 44.4517 143.704 46.2191Z" fill="white"/>
<path id="Fill 36" fill-rule="evenodd" clip-rule="evenodd" d="M16.601 108.766L18.2259 108.001L16.4381 104.221L18.3505 103.32L20.285 107.411L21.9105 106.646L19.161 100.833L10.4114 104.955L13.161 110.768L14.7859 110.002L12.8508 105.91L14.8131 104.986L16.601 108.766Z" fill="white"/>
<path id="Fill 37" fill-rule="evenodd" clip-rule="evenodd" d="M23.8106 118.324C22.2117 119.46 20.5636 119.005 19.5862 117.634L18.7451 116.454L23.6998 112.934L24.541 114.115C25.5184 115.486 25.3984 117.196 23.8106 118.324ZM26.0048 113.075L24.0575 110.344L16.1746 115.943L18.1219 118.673C19.701 120.887 22.6193 121.506 24.9167 119.875C27.203 118.251 27.5839 115.289 26.0048 113.075Z" fill="white"/>
<path id="Fill 38" fill-rule="evenodd" clip-rule="evenodd" d="M31.8835 122.905L35.1154 126.075L36.3751 124.797L31.7826 120.292L25.0029 127.176L29.5948 131.681L30.8539 130.403L27.6215 127.232L29.1421 125.688L32.1281 128.617L33.3873 127.338L30.4012 124.409L31.8835 122.905Z" fill="white"/>
<path id="Fill 39" fill-rule="evenodd" clip-rule="evenodd" d="M39.7645 127.534L34.1732 135.413L39.2821 139.024L40.321 137.561L36.7679 135.05L41.3216 128.634L39.7645 127.534Z" fill="white"/>
<path id="Fill 40" fill-rule="evenodd" clip-rule="evenodd" d="M53.4352 142.323L53.7714 135.736L52.7482 135.281L48.0665 139.938L48.4416 133.366L46.5088 132.507L46.1453 142.921L47.1679 143.375L51.6966 139.028L51.4758 145.29L52.5111 145.75L60.012 138.509L58.0792 137.65L53.4352 142.323Z" fill="white"/>
<path id="Fill 41" fill-rule="evenodd" clip-rule="evenodd" d="M62.0425 148.724L68.3533 150.007L68.7121 148.25L64.2704 147.347L64.7034 145.225L68.8066 146.059L69.1654 144.302L65.0623 143.468L65.4843 141.4L69.9266 142.303L70.2854 140.546L63.9741 139.263L62.0425 148.724Z" fill="white"/>
<path id="Fill 42" fill-rule="evenodd" clip-rule="evenodd" d="M74.564 142.77L75.724 142.827L75.4278 148.89L74.2678 148.833L74.1808 150.625L78.4064 150.831L78.4933 149.039L77.3333 148.983L77.6295 142.92L78.789 142.975L78.8765 141.184L74.651 140.979L74.564 142.77Z" fill="white"/>
<path id="Fill 43" fill-rule="evenodd" clip-rule="evenodd" d="M88.1402 144.507L87.3611 144.508C86.484 144.491 85.7205 144.378 85.6509 143.734C85.5611 142.896 86.5669 142.553 87.1994 142.485L87.3089 142.473C88.0098 142.398 89.1083 142.655 89.8857 143.154L90.9999 141.883C89.9101 141.056 88.4782 140.543 87.117 140.689L87.0069 140.701C85.0167 140.943 83.568 142.208 83.7611 144.005C83.9431 145.693 85.4376 146.268 87.3031 146.29L88.0678 146.291C89.0707 146.308 89.8794 146.457 89.9692 147.294C90.048 148.022 89.3663 148.539 88.2544 148.671L88.1721 148.681C86.7425 148.834 85.6794 148.254 85.1878 147.697L84.073 148.968C84.9396 149.916 86.4394 150.67 88.3646 150.464L88.4463 150.455C90.5756 150.213 92.0631 148.916 91.8666 147.091C91.6527 145.102 90.117 144.531 88.1402 144.507Z" fill="white"/>
<path id="Fill 44" fill-rule="evenodd" clip-rule="evenodd" d="M100.042 142.07L99.276 142.205C98.4088 142.342 97.6384 142.363 97.4569 141.741C97.2227 140.932 98.1526 140.419 98.7636 140.242L98.8697 140.211C99.5473 140.015 100.673 140.078 101.525 140.435L102.401 138.989C101.183 138.365 99.6842 138.108 98.3694 138.489L98.2633 138.519C96.3456 139.103 95.1398 140.601 95.6442 142.336C96.1172 143.966 97.6888 144.273 99.5294 143.97L100.283 143.839C101.273 143.682 102.096 143.688 102.33 144.496C102.535 145.199 101.954 145.826 100.882 146.151L100.803 146.173C99.4215 146.573 98.2731 146.187 97.6923 145.723L96.8169 147.168C97.8355 147.951 99.4442 148.434 101.303 147.896L101.383 147.873C103.436 147.264 104.674 145.728 104.162 143.966C103.605 142.045 101.993 141.75 100.042 142.07Z" fill="white"/>
<path id="Fill 45" fill-rule="evenodd" clip-rule="evenodd" d="M117.264 129.713L119.382 132.996L116.232 135.02L114.114 131.737L112.51 132.768L117.749 140.887L119.353 139.857L117.204 136.528L120.354 134.504L122.502 137.833L124.106 136.802L118.868 128.683L117.264 129.713Z" fill="white"/>
<path id="Fill 46" fill-rule="evenodd" clip-rule="evenodd" d="M130.314 126.851L128.798 128.283L127.746 125.648L130.314 126.851ZM124.98 123.513L128.739 133.257L130.275 131.807L129.561 130.05L132.041 127.708L133.758 128.517L135.295 127.066L125.793 122.745L124.98 123.513Z" fill="white"/>
<path id="Fill 47" fill-rule="evenodd" clip-rule="evenodd" d="M140.158 114.283L135.629 110.975L134.503 112.511L138.998 115.795C140.459 116.862 140.342 118.025 139.747 118.838C139.151 119.65 138.075 120.113 136.614 119.045L132.118 115.762L130.992 117.298L135.521 120.606C137.774 122.252 139.989 121.545 141.197 119.897C142.397 118.261 142.411 115.929 140.158 114.283Z" fill="white"/>
<path id="Fill 48" fill-rule="evenodd" clip-rule="evenodd" d="M147.324 103.223C145.518 102.355 144.222 103.356 143.159 105.019L142.748 105.679C142.271 106.414 141.773 107.002 141.187 106.721C140.428 106.355 140.665 105.321 140.941 104.749L140.989 104.65C141.295 104.016 142.093 103.22 142.928 102.826L142.434 101.21C141.155 101.698 139.964 102.641 139.37 103.872L139.322 103.971C138.477 105.786 138.79 107.681 140.422 108.466C141.953 109.202 143.231 108.239 144.235 106.669L144.639 106.021C145.183 105.18 145.737 104.574 146.496 104.939C147.156 105.256 147.237 106.106 146.763 107.119L146.728 107.193C146.104 108.486 145.049 109.082 144.316 109.204L144.809 110.819C146.073 110.585 147.507 109.712 148.347 107.971L148.382 107.897C149.3 105.964 148.98 104.019 147.324 103.223Z" fill="white"/>
</g>
</svg>
