<svg width="200" height="75" viewBox="0 0 200 75" fill="none" xmlns="http://www.w3.org/2000/svg">
<path fill-rule="evenodd" clip-rule="evenodd" d="M98.9614 26.2465L96.0111 23.3205H103.983L99.9972 27.2738L98.9614 26.2465ZM96.6718 22.4768H103.308V21.6834H96.6718V22.4768ZM95.6679 20.8396H104.381V16.9514H95.6679V20.8396ZM95.6679 16.1077H96.9276V12.6764H95.6679V16.1077ZM97.7783 16.1077H102.272V12.6764H97.7783V16.1077ZM100.025 11.4113C101.073 11.4103 102.12 11.5524 103.128 11.8327H96.9226C97.9306 11.5524 98.9773 11.4103 100.025 11.4113ZM97.0012 7.50441L99.9972 4.53303L101.033 5.56033L103.021 7.53204L100.05 10.4788C100.045 10.4827 100.042 10.4847 100.039 10.4857C100.035 10.4876 100.03 10.4886 100.025 10.4886C100.02 10.4886 100.015 10.4876 100.011 10.4857C100.007 10.4847 100.004 10.4827 100 10.4788L97.0012 7.50441ZM103.123 16.1077H104.381V12.6764H103.123V16.1077ZM105.186 23.3205H105.246V23.2613L110.993 17.5603L112.063 16.5005L112.798 17.2288L99.6967 30.2225L100.298 30.8195L114.001 17.2288L112.665 15.9034L112.364 15.6044L104.92 8.22086L104.317 8.81691L111.462 15.9034L104.834 22.4768H104.158V21.6834H105.246V20.8396H105.232V11.7113L104.98 11.5998C103.754 11.058 102.444 10.7304 101.116 10.6149L101.889 9.84816L101.884 9.84717L104.224 7.53204L104.264 7.49158L101.945 5.19224L100.02 3.29158L95.7853 7.49158L95.7982 7.50441L97.1027 8.79816L98.9345 10.6149C97.6062 10.7304 96.2957 11.058 95.0699 11.5998L94.8171 11.7113V20.887H94.834V21.6834H95.8201V22.4768H95.1604L88.5325 15.9034L89.5684 14.8761L95.6898 8.80408L95.0868 8.20902L87.9306 15.3064L87.1962 14.5781L100.298 1.58336L99.6967 0.987305L85.9922 14.5781L94.5674 23.0827L99.3952 27.8709L98.6281 28.6317L85.5594 15.6054L84.9564 16.2005L98.6261 29.8268L105.186 23.3205Z" fill="#FEFEFE"/>
<path fill-rule="evenodd" clip-rule="evenodd" d="M100.611 19.1341C100.563 19.2466 100.482 19.3433 100.38 19.4114C100.279 19.4805 100.158 19.519 100.025 19.519C99.9363 19.519 99.8538 19.5022 99.7781 19.4697C99.6637 19.4223 99.5662 19.3414 99.4975 19.2407C99.4289 19.14 99.3891 19.0206 99.3891 18.8884C99.3891 18.8006 99.407 18.7187 99.4388 18.6437C99.4876 18.5312 99.5682 18.4345 99.6697 18.3654C99.7722 18.2973 99.8916 18.2588 100.025 18.2578C100.113 18.2588 100.196 18.2756 100.273 18.3081C100.386 18.3555 100.484 18.4354 100.552 18.5371C100.621 18.6377 100.661 18.7572 100.661 18.8884C100.661 18.9772 100.643 19.0591 100.611 19.1341ZM100.857 17.6667C100.62 17.5078 100.331 17.4141 100.025 17.4141C99.8209 17.4141 99.6239 17.4555 99.4468 17.5305C99.1791 17.643 98.9523 17.8295 98.7921 18.0644C98.6329 18.2993 98.5383 18.5845 98.5383 18.8884C98.5383 19.0917 98.5801 19.2861 98.6557 19.4627C98.7682 19.7282 98.9562 19.9522 99.1941 20.1111C99.4299 20.27 99.7184 20.3637 100.025 20.3627C100.229 20.3627 100.425 20.3223 100.604 20.2463C100.871 20.1348 101.097 19.9483 101.257 19.7134C101.418 19.4785 101.511 19.1924 101.511 18.8884C101.511 18.6861 101.47 18.4917 101.394 18.315C101.282 18.0496 101.094 17.8256 100.857 17.6667Z" fill="#FEFEFE"/>
<mask id="mask0_0_646" style="mask-type:alpha" maskUnits="userSpaceOnUse" x="195" y="41" width="5" height="6">
<path fill-rule="evenodd" clip-rule="evenodd" d="M195.432 41.7803H199.993V46.303H195.432V41.7803Z" fill="white"/>
</mask>
<g mask="url(#mask0_0_646)">
<path fill-rule="evenodd" clip-rule="evenodd" d="M197.713 41.7803L195.432 44.0421L197.713 46.303L199.993 44.0421L197.713 41.7803Z" fill="#FEFEFE"/>
</g>
<path fill-rule="evenodd" clip-rule="evenodd" d="M0.000183105 44.0421L2.28078 46.304L4.56038 44.0421L2.28078 41.7803L0.000183105 44.0421Z" fill="#FEFEFE"/>
<path fill-rule="evenodd" clip-rule="evenodd" d="M87.3219 61.7805L87.5607 61.5259L87.6343 61.3798L87.7995 61.1805C88.0443 60.9377 88.3259 60.6219 88.6443 60.2331C88.9617 59.8453 89.289 59.4318 89.6254 58.9946C89.9627 58.5575 90.296 58.1183 90.6264 57.6752C90.9567 57.2321 91.2532 56.8285 91.5169 56.4644C91.7796 56.1002 91.9965 55.7992 92.1687 55.5634C92.3398 55.3256 92.4373 55.2022 92.4622 55.1894C92.4622 55.1785 92.4771 55.1292 92.508 55.0443C92.5388 54.9594 92.5637 54.8686 92.5816 54.7709C92.5995 54.6742 92.6025 54.5854 92.5905 54.5075C92.5786 54.4285 92.5358 54.395 92.4622 54.4068C92.3517 54.3831 92.2632 54.4068 92.1955 54.4798C92.1288 54.5529 92.0642 54.62 92.0035 54.6802L91.7458 54.9713C91.5259 55.2387 91.299 55.5209 91.0672 55.818C90.8343 56.115 90.6144 56.3913 90.4065 56.6459C90.0264 57.0831 89.6532 57.5568 89.2861 58.066C89.09 58.3216 88.8393 58.6246 88.5338 58.9769C88.2274 59.3292 87.9159 59.6864 87.5975 60.0515C87.2791 60.4147 86.9756 60.7759 86.689 61.1341C86.4015 61.4923 86.1776 61.8111 86.0184 62.0904C85.9816 62.1269 85.9478 62.1663 85.9179 62.2088C85.8871 62.2512 85.8592 62.2907 85.8353 62.3272C85.6881 62.5206 85.5438 62.7032 85.4035 62.8729C85.2632 63.0427 85.1308 63.2252 85.0094 63.4196C84.7886 63.6871 84.5746 63.9565 84.3667 64.2288C84.1577 64.5022 83.9567 64.7785 83.7607 65.0578C83.6622 65.1555 83.5766 65.2581 83.504 65.3677C83.4303 65.4772 83.3438 65.5798 83.2463 65.6765C83.2343 65.7496 83.2035 65.8078 83.1547 65.8502C83.106 65.8927 83.0691 65.944 83.0453 66.0042C82.8363 66.2469 82.6433 66.5025 82.4662 66.769C82.289 67.0364 82.09 67.2851 81.8701 67.516C81.8333 67.5762 81.7935 67.6275 81.7507 67.67C81.707 67.7134 81.6622 67.7637 81.6124 67.8249C81.5886 67.8614 81.5547 67.9098 81.5119 67.9709C81.4691 68.0311 81.4164 68.0736 81.3557 68.0982C81.3925 67.6374 81.4592 67.1578 81.5577 66.6594C81.6552 66.1621 81.7348 65.7012 81.7965 65.2759C81.8572 64.7183 81.9428 64.1361 82.0532 63.5282C82.1637 62.9213 82.2672 62.2907 82.3657 61.6354C82.4264 61.5377 82.4602 61.4262 82.4662 61.2979C82.4721 61.1706 82.5 61.0522 82.5488 60.9427C82.5607 60.919 82.5607 60.9002 82.5488 60.8884C82.5368 60.8765 82.5368 60.8578 82.5488 60.8341C82.5607 60.7364 82.5796 60.6427 82.6045 60.5519C82.6284 60.4611 82.6532 60.3732 82.6781 60.2874C82.69 60.2025 82.702 60.1236 82.7139 60.0515C82.7259 59.9785 82.7448 59.9114 82.7696 59.8502C82.8184 59.6075 82.8582 59.3657 82.8881 59.1229C82.9189 58.8802 82.9587 58.6552 83.0085 58.4489C83.0323 58.3394 83.0602 58.2298 83.091 58.1213C83.1209 58.0117 83.1547 57.9091 83.1915 57.8114C83.2522 57.69 83.308 57.5746 83.3567 57.466C83.4055 57.3565 83.3995 57.2292 83.3388 57.0831C83.2403 56.9627 83.1298 56.865 83.0085 56.792C82.8861 56.72 82.7507 56.6529 82.6045 56.5917C82.2861 56.6163 82.0224 56.72 81.8144 56.9015C81.6433 57.7384 81.497 58.5821 81.3736 59.4318C81.2512 60.2815 81.1289 61.1252 81.0065 61.9631C80.9577 62.2788 80.9119 62.6025 80.8691 62.9361C80.8264 63.2706 80.7746 63.5953 80.7129 63.9111C80.6035 64.6394 80.508 65.3795 80.4284 66.1315C80.3488 66.8844 80.2791 67.6315 80.2174 68.3716C80.2174 68.6381 80.306 68.8571 80.4841 69.0269C80.6612 69.1966 80.9089 69.2696 81.2274 69.245C81.3378 69.2696 81.4353 69.2667 81.5209 69.2361C81.6065 69.2055 81.6861 69.1611 81.7597 69.0999C81.8333 69.0387 81.9 68.9726 81.9617 68.8996C82.0224 68.8265 82.0771 68.7594 82.1269 68.6992C82.3597 68.4081 82.6005 68.0923 82.8522 67.7519C83.103 67.4124 83.3388 67.0848 83.5587 66.769C83.5587 66.7443 83.5617 66.7265 83.5687 66.7147C83.5736 66.7019 83.5766 66.6841 83.5766 66.6594C83.7975 66.3811 83.9995 66.1315 84.1826 65.9134C84.3667 65.6953 84.5627 65.4466 84.7706 65.1673C84.8433 65.0578 84.9269 64.9848 85.0184 64.9482C85.1099 64.9117 85.1806 64.8269 85.2293 64.6936C85.29 64.6206 85.3488 64.5456 85.4035 64.4667C85.4582 64.3877 85.5169 64.3058 85.5786 64.22V64.1104C85.6393 64.0631 85.6821 64.0019 85.706 63.9288C85.7308 63.8568 85.7796 63.7956 85.8532 63.7473C86.0373 63.4552 86.2393 63.1739 86.4592 62.9005C86.6791 62.6272 86.893 62.3568 87.102 62.0904C87.1378 62.0292 87.1716 61.9779 87.2025 61.9354C87.2333 61.893 87.2731 61.8417 87.3219 61.7805Z" fill="#FEFEFE"/>
<path fill-rule="evenodd" clip-rule="evenodd" d="M90.048 59.9601C89.9863 59.8871 89.9067 59.8683 89.8092 59.9048C89.7116 59.9414 89.6131 60.0025 89.5156 60.0874C89.4181 60.1723 89.3325 60.2641 89.2589 60.3608C89.1853 60.4575 89.1544 60.5246 89.1664 60.5611C89.1544 60.6095 89.1355 60.6697 89.1116 60.7427C89.0868 60.8157 89.0718 60.8887 89.0659 60.9618C89.0599 61.0338 89.0689 61.0979 89.0937 61.1522C89.1176 61.2075 89.1664 61.247 89.24 61.2706C89.2888 61.2953 89.3226 61.3012 89.3415 61.2894C89.3594 61.2775 89.3813 61.2706 89.4052 61.2706C89.442 61.2223 89.5007 61.1828 89.5803 61.1522C89.6589 61.1226 89.7116 61.0772 89.7365 61.016C89.7604 61.016 89.7723 61.0131 89.7723 61.0072C89.7723 61.0012 89.7843 61.0042 89.8092 61.016C89.8092 60.9795 89.831 60.943 89.8738 60.9065C89.9166 60.87 89.9315 60.8335 89.9196 60.7979C89.9684 60.8216 89.9893 60.8098 89.9843 60.7614C89.9773 60.7131 89.9932 60.7002 90.03 60.7249C90.03 60.7002 90.036 60.6854 90.048 60.6795C90.0599 60.6736 90.0599 60.6578 90.048 60.6341C90.1455 60.5858 90.2101 60.491 90.241 60.3509C90.2708 60.2118 90.244 60.0933 90.1584 59.9966C90.1455 59.9966 90.1305 59.9907 90.1116 59.9789C90.0937 59.966 90.0718 59.9601 90.048 59.9601Z" fill="#FEFEFE"/>
<path fill-rule="evenodd" clip-rule="evenodd" d="M101.264 60.1055L101.319 59.923C101.784 59.8144 102.277 59.7295 102.798 59.6684C103.317 59.6082 103.798 59.548 104.239 59.4868L104.256 59.4503C104.293 59.4266 104.336 59.4138 104.385 59.4138C104.434 59.4138 104.489 59.395 104.55 59.3595C104.562 59.3467 104.569 59.317 104.569 59.2677C104.569 59.2203 104.581 59.1828 104.606 59.1592C104.593 59.1592 104.587 59.171 104.587 59.1957C104.587 59.2075 104.581 59.2134 104.569 59.2134C104.557 59.1888 104.544 59.168 104.532 59.1493C104.519 59.1315 104.526 59.1108 104.55 59.0861C104.391 59.0249 104.242 58.9983 104.101 59.0042C103.96 59.0101 103.822 59.019 103.687 59.0319C103.479 59.0565 103.336 59.0713 103.255 59.0772C103.176 59.0832 103.112 59.0832 103.063 59.0772C103.015 59.0713 102.953 59.0713 102.88 59.0772C102.807 59.0832 102.671 59.098 102.475 59.1226C102.341 59.1473 102.201 59.168 102.053 59.1858C101.907 59.2036 101.76 59.2312 101.614 59.2677H101.595C101.717 59.0013 101.843 58.7397 101.971 58.4851C102.099 58.2305 102.225 57.969 102.347 57.7016C102.506 57.4233 102.647 57.1322 102.77 56.8282C102.891 56.5253 103.021 56.2272 103.155 55.9361C103.18 55.8759 103.195 55.8207 103.201 55.7723C103.208 55.724 103.223 55.6756 103.247 55.6263C103.296 55.5661 103.336 55.5088 103.366 55.4536C103.397 55.3993 103.4 55.348 103.376 55.2986C103.351 55.2019 103.277 55.1259 103.155 55.0717C103.033 55.0164 102.91 54.9897 102.788 54.9897C102.69 54.9897 102.574 55.0134 102.44 55.0628C102.304 55.1111 102.225 55.1536 102.201 55.1901C102.164 55.2266 102.136 55.2809 102.118 55.3539C102.099 55.4269 102.078 55.493 102.053 55.5542C102.03 55.6391 101.999 55.7082 101.962 55.7634C101.925 55.8177 101.9 55.8759 101.888 55.9361C101.864 55.9608 101.851 55.9904 101.851 56.0279C101.851 56.0634 101.84 56.0999 101.815 56.1365C101.791 56.2213 101.748 56.3121 101.686 56.4098C101.626 56.5677 101.561 56.7286 101.493 56.8924C101.427 57.0562 101.35 57.217 101.264 57.374C101.093 57.7509 100.931 58.121 100.778 58.4851C100.625 58.8493 100.48 59.2203 100.347 59.5953C100.285 59.62 100.228 59.6378 100.172 59.6506C100.117 59.6624 100.059 59.6743 99.9977 59.6871C99.9609 59.6871 99.8753 59.699 99.741 59.7226C99.6057 59.7483 99.4594 59.7779 99.3002 59.8144C99.141 59.8509 98.9848 59.8835 98.8316 59.9141C98.6783 59.9447 98.5599 59.9723 98.4743 59.996L98.2535 60.0868C98.2296 60.1361 98.2017 60.1904 98.1709 60.2506C98.141 60.3118 98.1132 60.373 98.0883 60.4332C98.0644 60.5309 98.0515 60.6157 98.0515 60.6878C98.0515 60.7618 98.0823 60.8161 98.144 60.8516C98.1559 60.8763 98.1838 60.8861 98.2266 60.8792C98.2694 60.8733 98.3211 60.8644 98.3828 60.8516C98.4306 60.8407 98.4763 60.8161 98.5201 60.7795C98.5629 60.743 98.6027 60.7124 98.6395 60.6878C98.7251 60.6641 98.8136 60.6365 98.9052 60.6059C98.9967 60.5763 99.0793 60.5486 99.153 60.524C99.3609 60.4272 99.535 60.3572 99.6763 60.3147C99.8166 60.2723 99.9669 60.2388 100.126 60.2151C100.064 60.3848 100.007 60.5575 99.952 60.7342C99.8962 60.9098 99.8385 61.0884 99.7768 61.271C99.6425 61.7319 99.4962 62.1868 99.337 62.6358C99.1778 63.0858 99.0365 63.5467 98.9141 64.0203C98.9092 64.042 98.9052 64.0667 98.9002 64.0884C98.8505 64.1279 98.8037 64.1684 98.74 64.2019C98.6485 64.2513 98.5539 64.3055 98.4554 64.3657C98.3699 64.3657 98.3022 64.3786 98.2544 64.4022C98.1679 64.4388 98.0823 64.4901 97.9967 64.5572C97.9112 64.6243 97.8246 64.6934 97.74 64.7664C97.6047 64.8394 97.5261 64.8848 97.5012 64.9026C97.4763 64.9213 97.4584 64.9332 97.4465 64.9391C97.4335 64.946 97.4117 64.9549 97.3818 64.9667C97.351 64.9786 97.2684 65.0161 97.134 65.0763C97.0117 65.1365 96.9082 65.1848 96.8226 65.2223C96.736 65.2578 96.6385 65.3013 96.5281 65.3486C96.5161 65.2519 96.5221 65.094 96.547 64.8749C96.5709 64.6569 96.6047 64.4269 96.6475 64.1842C96.6903 63.9414 96.7331 63.7105 96.7758 63.4924C96.8186 63.2733 96.8465 63.1154 96.8584 63.0187C96.8952 62.8845 96.935 62.7453 96.9778 62.6003C97.0206 62.4542 97.0355 62.3151 97.0236 62.1819C97.0117 62.0723 96.935 61.9717 96.7947 61.8809C96.6535 61.7901 96.5221 61.7447 96.3997 61.7447C96.2286 61.7565 96.0574 61.8118 95.8853 61.9085C95.7141 62.0052 95.5619 62.097 95.4266 62.1819C95.0345 62.4118 94.6923 62.6674 94.3987 62.9457C94.1052 63.2249 93.7997 63.5042 93.4803 63.7835C93.4077 63.8319 93.34 63.8891 93.2793 63.9562C93.2176 64.0233 93.144 64.0628 93.0584 64.0746C93.1321 63.8684 93.2087 63.6809 93.2883 63.5101C93.3679 63.3404 93.4445 63.1707 93.5171 63.0009C93.542 62.9397 93.5539 62.8726 93.5539 62.7996C93.5539 62.7276 93.5669 62.6545 93.5918 62.5815C93.6525 62.4848 93.7132 62.3812 93.7748 62.2717C93.8355 62.1621 93.8355 62.0358 93.7748 61.8897C93.75 61.7684 93.6554 61.6835 93.4903 61.6351C93.3251 61.5868 93.1748 61.6105 93.0405 61.7082C93.0037 61.7319 92.9699 61.7654 92.939 61.8078C92.9092 61.8503 92.8813 61.8838 92.8564 61.9085C92.8445 61.9687 92.8316 62.0388 92.8196 62.1177C92.8077 62.1967 92.7888 62.2786 92.7649 62.3634C92.741 62.4246 92.7032 62.4907 92.6544 62.5638C92.6057 62.6358 92.5689 62.7029 92.545 62.7641C92.4604 62.9772 92.3649 63.1756 92.2753 63.3828C92.1639 63.4075 92.0604 63.4401 91.9758 63.4924C91.8773 63.5526 91.7798 63.6138 91.6823 63.674C91.6206 63.7105 91.5321 63.7529 91.4156 63.8013C91.2992 63.8496 91.1977 63.8871 91.1132 63.9108C90.8067 64.0203 90.5012 64.1476 90.1947 64.2927C89.8893 64.4388 89.6107 64.569 89.3599 64.6845C89.1092 64.7999 88.8972 64.8917 88.7261 64.9578C88.5549 65.0249 88.4515 65.0397 88.4136 65.0032C88.3778 64.9667 88.3778 64.8878 88.4136 64.7664C88.4515 64.645 88.5122 64.5029 88.5977 64.3391C88.6833 64.1753 88.7748 64.0016 88.8734 63.82C88.9709 63.6374 89.0624 63.4618 89.149 63.292C89.1729 63.2802 89.1848 63.2615 89.1848 63.2368C89.1848 63.2131 89.1977 63.1944 89.2216 63.1825C89.2345 63.1707 89.2425 63.1677 89.2495 63.1736C89.2554 63.1795 89.2644 63.1766 89.2773 63.1647C89.3012 63.1154 89.3201 63.07 89.3321 63.0276C89.344 62.9851 89.3629 62.9457 89.3868 62.9092C89.4485 62.8124 89.4724 62.7207 89.4604 62.6358C89.4853 62.5756 89.4942 62.5213 89.4883 62.472C89.4813 62.4246 89.4724 62.3575 89.4604 62.2717C89.4485 62.2115 89.4206 62.1621 89.3778 62.1266C89.335 62.0901 89.2952 62.0476 89.2584 61.9983C89.2216 62.024 89.1758 62.02 89.1211 61.9904C89.0664 61.9598 89.0136 61.9569 88.9649 61.9805C88.8793 61.9934 88.7868 62.0299 88.6893 62.0901C88.5181 62.3328 88.3589 62.5963 88.2127 62.8815C88.0654 63.1677 87.9241 63.4499 87.7898 63.7282C87.753 63.8259 87.7102 63.9295 87.6614 64.0381C87.6127 64.1476 87.5629 64.2513 87.5151 64.348C87.4903 64.4447 87.4564 64.5355 87.4136 64.6213C87.3709 64.7062 87.3311 64.797 87.2942 64.8947C87.2326 65.0763 87.1848 65.2401 87.147 65.3861C87.1112 65.5312 87.1112 65.6772 87.147 65.8223C87.2455 65.9565 87.3649 66.0444 87.5052 66.0868C87.6455 66.1292 87.8146 66.1499 88.0107 66.1499C88.0475 66.1499 88.0714 66.1529 88.0833 66.1588C88.0962 66.1657 88.1211 66.1499 88.1569 66.1134C88.2425 66.1499 88.4017 66.0986 88.6345 65.9585C88.8674 65.8203 89.1211 65.6585 89.3967 65.4769C89.6724 65.2944 89.935 65.1187 90.1858 64.949C90.4365 64.7782 90.6296 64.6697 90.7639 64.6213C90.9112 64.5473 91.0604 64.4694 91.2136 64.3835C91.3669 64.2996 91.4982 64.2078 91.6087 64.1111C91.743 64.0509 91.8654 63.9809 91.9758 63.9019C92.0156 63.8733 92.0495 63.8427 92.0883 63.8131C92.0554 63.8832 92.0276 63.9601 91.9937 64.0292C91.7977 64.4358 91.6455 64.8947 91.535 65.4039C91.4982 65.4888 91.4644 65.5795 91.4345 65.6772C91.4037 65.774 91.3947 65.847 91.4067 65.8953C91.4316 65.992 91.5072 66.0769 91.6355 66.1499C91.7649 66.223 91.8773 66.2476 91.9758 66.223C92.0982 66.1983 92.2883 66.0404 92.545 65.7493C92.8017 65.4582 93.138 65.094 93.5539 64.6569C93.6893 64.5246 93.8296 64.4022 93.9768 64.2927C94.1231 64.1842 94.2574 64.0746 94.3808 63.9651C94.5888 63.7588 94.7967 63.5713 95.0047 63.4006C95.2127 63.2309 95.4266 63.0611 95.6465 62.8914C95.7201 62.8302 95.7937 62.77 95.8674 62.7088C95.941 62.6486 96.0266 62.6062 96.1241 62.5815C96.1002 62.7157 96.0694 62.849 96.0326 62.9822C95.9957 63.1154 95.9709 63.2674 95.9589 63.4371C95.947 63.5101 95.9191 63.6434 95.8763 63.8378C95.8336 64.0322 95.7908 64.2355 95.748 64.4476C95.7052 64.6608 95.6654 64.8601 95.6286 65.0486C95.5918 65.2371 95.5738 65.3615 95.5738 65.4217C95.5738 65.5549 95.6256 65.7039 95.7301 65.8677C95.8335 66.0315 95.953 66.1016 96.0873 66.0769C96.1729 66.0769 96.2684 66.071 96.3719 66.0592C96.4763 66.0473 96.5898 66.0286 96.7122 66.0049C96.8584 65.9565 97.0146 65.8746 97.1808 65.7592C97.345 65.6437 97.4942 65.5499 97.6296 65.4769C97.7768 65.3792 97.8714 65.319 97.9141 65.2944C97.9569 65.2697 97.9878 65.249 98.0067 65.2302C98.0246 65.2124 98.0515 65.1878 98.0893 65.1582C98.1251 65.1276 98.2107 65.0585 98.346 64.949C98.4316 64.9124 98.4982 64.87 98.548 64.8207C98.5967 64.7723 98.6574 64.7062 98.7311 64.6213C98.7579 64.6065 98.7689 64.5868 98.7947 64.571C98.745 64.793 98.6923 65.0072 98.6485 65.2401C98.5689 65.6644 98.5171 66.1016 98.4923 66.5506C98.4923 66.6118 98.4982 66.672 98.5102 66.7322C98.5231 66.7934 98.5778 66.8476 98.6753 66.896H98.6942C98.743 66.8723 98.8007 66.8575 98.8684 66.8506C98.936 66.8447 98.9878 66.8299 99.0246 66.8062C99.0863 66.7934 99.1102 66.7786 99.0982 66.7598C99.0863 66.742 99.1102 66.7203 99.1719 66.6967C99.1838 66.6355 99.1898 66.5753 99.1898 66.5141C99.1898 66.4539 99.2017 66.3927 99.2266 66.3325L99.337 66.1499C99.349 66.1134 99.3549 66.0592 99.3549 65.9861C99.3549 65.9141 99.3609 65.847 99.3738 65.7858L99.4097 65.6042C99.4226 65.543 99.4405 65.4828 99.4654 65.4217C99.4654 65.3861 99.4803 65.3486 99.5112 65.3121C99.542 65.2766 99.5629 65.246 99.5748 65.2223C99.6246 65.1246 99.6574 65.0161 99.6763 64.8947C99.6942 64.7723 99.734 64.6638 99.7957 64.5661C99.8196 64.4565 99.8564 64.3539 99.9062 64.2572C99.9549 64.1595 99.9918 64.0628 100.016 63.9651C100.2 63.3226 100.402 62.6782 100.622 62.0358C100.843 61.3924 101.056 60.749 101.264 60.1055Z" fill="#FEFEFE"/>
<mask id="mask1_0_646" style="mask-type:alpha" maskUnits="userSpaceOnUse" x="100" y="61" width="21" height="14">
<path fill-rule="evenodd" clip-rule="evenodd" d="M100.185 61.1255H120.563V74.5587H100.185V61.1255Z" fill="white"/>
</mask>
<g mask="url(#mask1_0_646)">
<path fill-rule="evenodd" clip-rule="evenodd" d="M115.124 62.3018C115.117 62.3087 115.109 62.3146 115.102 62.3215C115.097 62.3225 115.093 62.3255 115.077 62.3087C115.094 62.2998 115.109 62.3008 115.124 62.3018ZM115.965 62.6729C116.301 62.3689 116.689 62.139 117.13 61.9811C117.13 62.0166 117.118 62.0354 117.093 62.0354C116.885 62.2791 116.654 62.5179 116.396 62.7548C116.139 62.9916 115.888 63.2067 115.644 63.4011C115.545 63.4623 115.445 63.5225 115.34 63.5827C115.237 63.6439 115.129 63.6745 115.02 63.6745C115.312 63.3094 115.628 62.9768 115.965 62.6729ZM109.284 66.86C109.254 66.8847 109.251 66.9212 109.276 66.9696C109.153 67.2488 108.994 67.6002 108.798 68.0255C108.602 68.4498 108.382 68.9018 108.137 69.3814C107.892 69.861 107.62 70.3406 107.32 70.8202C107.02 71.2998 106.702 71.7419 106.366 72.1495C106.029 72.5561 105.675 72.8956 105.3 73.1689C104.927 73.4423 104.539 73.609 104.135 73.6692C104.075 73.609 104.05 73.539 104.062 73.46C104.075 73.3811 104.062 73.3298 104.025 73.3051C104.075 72.9409 104.172 72.6015 104.319 72.2857C104.466 71.9699 104.64 71.6699 104.843 71.3847C105.044 71.0995 105.256 70.8291 105.476 70.5745C105.695 70.3199 105.903 70.0702 106.099 69.8275C106.173 69.7436 106.301 69.6005 106.484 69.4002C106.669 69.1998 106.889 68.9719 107.145 68.7173C107.403 68.4627 107.684 68.1863 107.991 67.8893C108.296 67.5913 108.596 67.3031 108.889 67.0238C108.914 66.9636 108.975 66.9212 109.074 66.8965C109.171 66.8719 109.251 66.8294 109.312 66.7692C109.324 66.8058 109.315 66.8363 109.284 66.86ZM120.398 62.8367C120.386 62.8367 120.37 62.8426 120.352 62.8544C120.333 62.8673 120.318 62.8732 120.306 62.8732C120.208 62.8979 120.128 62.9245 120.068 62.9551C120.006 62.9847 119.939 63.0311 119.866 63.0913C119.682 63.189 119.489 63.2886 119.287 63.3913C119.085 63.4949 118.886 63.5956 118.69 63.6923C118.446 63.8255 118.244 63.935 118.085 64.0199C117.925 64.1048 117.773 64.1837 117.626 64.2567C117.479 64.3298 117.323 64.4058 117.158 64.4837C116.993 64.5636 116.782 64.6633 116.524 64.7847C116.415 64.8331 116.285 64.8824 116.139 64.9308C115.992 64.9791 115.851 65.0215 115.717 65.0581C115.545 65.1064 115.368 65.1666 115.185 65.2396C115.001 65.3127 114.787 65.3373 114.542 65.3127C114.444 65.2278 114.392 65.1212 114.386 64.9939C114.38 64.8666 114.398 64.7393 114.441 64.612C114.483 64.4837 114.542 64.3633 114.615 64.2479C114.689 64.1324 114.762 64.0386 114.836 63.9656C115.044 63.9893 115.249 63.9834 115.451 63.9469C115.653 63.9104 115.815 63.8433 115.937 63.7465C116.427 63.4189 116.916 63.0429 117.406 62.6176C117.43 62.5692 117.467 62.5179 117.516 62.4636C117.565 62.4084 117.62 62.3511 117.681 62.29C117.717 62.2298 117.773 62.1696 117.847 62.1084C117.92 62.0472 117.963 61.9929 117.975 61.9446C117.975 61.7985 117.907 61.6505 117.773 61.4985C117.638 61.3465 117.35 61.2706 116.91 61.2706C116.849 61.2706 116.803 61.2834 116.772 61.3071C116.742 61.3317 116.701 61.3554 116.654 61.3801C116.531 61.4403 116.396 61.5015 116.25 61.5617C116.102 61.6229 115.961 61.6959 115.827 61.7808C115.594 61.9061 115.368 62.0808 115.146 62.2821C114.895 62.3521 114.655 62.436 114.434 62.5456C114.189 62.6669 113.944 62.7942 113.699 62.9275C113.711 62.9275 113.717 62.9344 113.717 62.9452C113.62 62.9581 113.534 62.9847 113.461 63.0271C113.387 63.0706 113.32 63.1159 113.259 63.1643C113.235 63.1643 113.207 63.1761 113.176 63.2008C113.146 63.2255 113.118 63.2492 113.093 63.2729H113.039C112.965 63.334 112.837 63.4071 112.654 63.4919C112.47 63.5768 112.278 63.6745 112.076 63.7831C111.873 63.8926 111.68 64.0081 111.496 64.1294C111.313 64.2508 111.185 64.3722 111.111 64.4936C111.147 64.3238 111.2 64.1561 111.268 63.9923C111.334 63.8284 111.38 63.6558 111.405 63.4732C111.454 63.3765 111.487 63.2709 111.505 63.1554C111.524 63.04 111.552 62.9344 111.588 62.8367C111.613 62.7271 111.616 62.6363 111.598 62.5633C111.579 62.4903 111.521 62.4054 111.423 62.3087C111.399 62.284 111.368 62.2752 111.331 62.2811C111.294 62.287 111.27 62.2791 111.258 62.2544C111.209 62.2663 111.169 62.2633 111.138 62.2446C111.108 62.2268 111.075 62.2179 111.038 62.2179C110.939 62.2179 110.87 62.2446 110.827 62.2998C110.784 62.3541 110.744 62.3995 110.707 62.436C110.646 62.4972 110.619 62.5327 110.625 62.5456C110.631 62.5574 110.622 62.5939 110.597 62.6541C110.597 62.7153 110.56 62.7666 110.486 62.809C110.414 62.8525 110.346 62.8979 110.285 62.9452C110.224 63.0064 110.159 63.0735 110.092 63.1456C110.025 63.2186 109.961 63.2729 109.899 63.3094C109.655 63.5166 109.404 63.7229 109.147 63.9291C108.889 64.1354 108.639 64.3238 108.394 64.4936C108.333 64.5183 108.283 64.5419 108.248 64.5656C108.211 64.5903 108.161 64.6268 108.1 64.6752C107.991 64.7363 107.895 64.7936 107.816 64.8488C107.736 64.9031 107.648 64.9604 107.55 65.0215C107.525 65.0334 107.497 65.0462 107.468 65.0581C107.437 65.0699 107.397 65.064 107.348 65.0393C107.348 65.0156 107.357 64.985 107.375 64.9485C107.394 64.912 107.403 64.8755 107.403 64.839C107.464 64.6456 107.54 64.4689 107.633 64.311C107.724 64.1531 107.819 64.0021 107.917 63.8561C108.015 63.7712 108.097 63.6686 108.165 63.5462C108.232 63.4258 108.326 63.334 108.45 63.2729C108.498 63.2008 108.556 63.1278 108.624 63.0548C108.69 62.9817 108.761 62.9156 108.835 62.8544C108.86 62.7577 108.908 62.6847 108.982 62.6363C109.055 62.588 109.122 62.5327 109.184 62.4725C109.233 62.3758 109.294 62.2969 109.367 62.2357C109.441 62.1755 109.52 62.1143 109.606 62.0541C109.668 61.9811 109.771 61.8933 109.918 61.7896C110.065 61.686 110.193 61.5893 110.303 61.4985C110.414 61.4077 110.478 61.3258 110.496 61.2528C110.514 61.1798 110.426 61.1373 110.23 61.1255C110.206 61.1255 110.169 61.1284 110.12 61.1344C110.071 61.1403 110.022 61.1551 109.973 61.1798C109.839 61.2291 109.703 61.2982 109.569 61.389C109.435 61.4798 109.299 61.5617 109.165 61.6347C109.14 61.6347 109.104 61.6534 109.055 61.689C109.006 61.7265 108.951 61.763 108.889 61.7985C108.829 61.835 108.773 61.8715 108.724 61.9081C108.676 61.9446 108.645 61.9692 108.633 61.9811L108.257 62.3541C108.078 62.5298 107.892 62.7183 107.696 62.9186C107.5 63.1189 107.326 63.3133 107.174 63.5008C107.039 63.6666 106.957 63.7909 106.912 63.8857C106.845 63.9064 106.796 63.9153 106.712 63.9469C106.541 64.0446 106.345 64.1659 106.125 64.311C105.904 64.4571 105.69 64.5656 105.482 64.6396C105.397 64.6752 105.299 64.7275 105.189 64.7936C105.078 64.8607 104.978 64.912 104.885 64.9485C104.794 64.985 104.718 64.9909 104.657 64.9663C104.595 64.9426 104.565 64.8508 104.565 64.6939L104.676 64.2933C104.711 64.2202 104.733 64.1659 104.739 64.1294C104.745 64.0929 104.754 64.0446 104.767 63.9834C104.791 63.8985 104.828 63.8433 104.877 63.8196V63.7288C104.938 63.6439 104.981 63.5462 105.006 63.4367C105.078 63.3281 105.149 63.2255 105.217 63.1278C105.283 63.0311 105.336 62.9275 105.373 62.8179C105.373 62.6847 105.329 62.5998 105.244 62.5633C105.158 62.5268 105.091 62.4972 105.042 62.4725H104.803H104.693C104.645 62.4725 104.602 62.4784 104.565 62.4903C104.54 62.515 104.528 62.5456 104.528 62.5811C104.528 62.6176 104.522 62.6492 104.51 62.6729C104.497 62.7212 104.479 62.7577 104.455 62.7814C104.43 62.8061 104.412 62.8367 104.4 62.8732V62.8909H104.344C104.247 63.0252 104.145 63.1219 104.042 63.1831C103.937 63.2433 103.831 63.3222 103.72 63.4189C103.316 63.7229 102.924 64.011 102.545 64.2844C102.166 64.5577 101.768 64.8153 101.352 65.0581C101.278 65.1301 101.181 65.1854 101.059 65.2219C101.071 65.1242 101.113 65.0334 101.187 64.9485C101.261 64.8636 101.309 64.7669 101.334 64.6574C101.382 64.5962 101.429 64.5331 101.472 64.4659C101.514 64.3988 101.572 64.3475 101.646 64.311V64.2933V64.2745C101.694 64.238 101.719 64.1956 101.719 64.1472C101.805 64.1107 101.876 64.0594 101.93 63.9923C101.985 63.9261 102.044 63.8679 102.105 63.8196C102.203 63.7229 102.306 63.6261 102.417 63.5284C102.527 63.4317 102.631 63.34 102.729 63.2551C102.79 63.2067 102.845 63.1613 102.894 63.1189C102.943 63.0765 102.998 63.0252 103.06 62.964C103.157 62.9028 103.255 62.8396 103.353 62.7725C103.452 62.7064 103.549 62.661 103.647 62.6363C103.672 62.5633 103.704 62.5179 103.748 62.4992C103.791 62.4814 103.831 62.4725 103.868 62.4725L103.904 62.436L104.124 62.29C104.235 62.1933 104.35 62.1202 104.473 62.0719C104.522 62.0472 104.571 62.0383 104.62 62.0442C104.669 62.0511 104.711 62.0354 104.748 61.9988C104.797 61.9752 104.834 61.9327 104.859 61.8715C104.883 61.8113 104.877 61.763 104.841 61.7265C104.841 61.6534 104.81 61.5893 104.748 61.535C104.687 61.4798 104.632 61.4225 104.583 61.3613C104.485 61.3613 104.4 61.3436 104.326 61.3071C104.301 61.3317 104.274 61.3406 104.244 61.3347C104.213 61.3288 104.185 61.3258 104.161 61.3258C104.148 61.3258 104.142 61.3288 104.142 61.3347C104.142 61.3406 104.136 61.3436 104.124 61.3436C103.952 61.3929 103.827 61.462 103.748 61.5528C103.669 61.6436 103.561 61.7196 103.427 61.7808C103.353 61.7926 103.219 61.8745 103.023 62.0265C102.827 62.1784 102.613 62.3541 102.38 62.5544C102.147 62.7548 101.927 62.9521 101.719 63.1456C101.511 63.34 101.358 63.4801 101.261 63.565C101.15 63.7229 101.034 63.8738 100.911 64.0199C100.789 64.1659 100.679 64.3238 100.581 64.4936C100.508 64.5903 100.438 64.6969 100.37 64.8113C100.302 64.9278 100.263 65.0521 100.251 65.1854C100.251 65.209 100.245 65.2219 100.233 65.2219C100.22 65.2219 100.214 65.2278 100.214 65.2396C100.153 65.4706 100.19 65.6284 100.324 65.7133C100.385 65.7863 100.466 65.8258 100.563 65.8317C100.661 65.8377 100.758 65.8465 100.857 65.8584C100.918 65.8831 100.969 65.8949 101.013 65.8949H101.169C101.255 65.9077 101.343 65.8929 101.435 65.8495C101.526 65.8071 101.615 65.7558 101.701 65.6946C102.019 65.5613 102.319 65.3975 102.601 65.2031C102.625 65.1666 102.662 65.14 102.71 65.1212C102.759 65.1034 102.796 65.0877 102.821 65.0758C102.833 65.0758 102.836 65.0669 102.831 65.0482C102.824 65.0304 102.827 65.0215 102.84 65.0215C102.864 64.9969 102.897 64.9732 102.94 64.9485C102.983 64.9238 103.017 64.8883 103.041 64.839C103.126 64.8025 103.197 64.7541 103.252 64.6939C103.307 64.6327 103.365 64.5656 103.427 64.4936C103.464 64.4689 103.494 64.4482 103.518 64.4294C103.542 64.4117 103.567 64.3969 103.592 64.384C103.604 64.384 103.613 64.3752 103.619 64.3574C103.625 64.3386 103.641 64.3357 103.666 64.3475C103.641 64.4936 103.632 64.6357 103.638 64.7758C103.644 64.915 103.66 65.0334 103.683 65.1301C103.72 65.2159 103.76 65.2909 103.803 65.3581C103.846 65.4252 103.922 65.4824 104.033 65.5308C104.07 65.5436 104.102 65.5584 104.133 65.5761C104.164 65.5949 104.191 65.6038 104.216 65.6038C104.473 65.665 104.696 65.665 104.885 65.6038C105.076 65.5436 105.254 65.4577 105.419 65.3492C105.584 65.2396 105.746 65.1183 105.904 64.985C106.065 64.8508 106.242 64.7423 106.438 64.6574C106.457 64.6673 106.503 64.6465 106.555 64.6209C106.532 64.7127 106.514 64.8094 106.503 64.912C106.491 65.0215 106.491 65.1242 106.503 65.2219C106.515 65.3196 106.546 65.4034 106.595 65.4765C106.645 65.4765 106.675 65.4883 106.687 65.513C106.699 65.5377 106.717 65.5554 106.742 65.5673H106.705C106.729 65.5919 106.8 65.6107 106.916 65.6225C107.033 65.6344 107.155 65.6472 107.283 65.6581C107.413 65.6709 107.534 65.6768 107.651 65.6768C107.767 65.6768 107.838 65.6709 107.862 65.6581C107.923 65.6472 108.006 65.6196 108.109 65.5761C108.214 65.5337 108.321 65.4854 108.431 65.4311C108.541 65.3758 108.645 65.3215 108.743 65.2673C108.841 65.212 108.908 65.1666 108.945 65.1301C109.043 65.0334 109.15 64.9456 109.267 64.8666C109.382 64.7877 109.495 64.6939 109.606 64.5844C109.631 64.5479 109.673 64.5183 109.734 64.4936L109.808 64.4206C109.833 64.3969 109.857 64.3722 109.88 64.3475C109.88 64.3357 109.899 64.3298 109.936 64.3298C109.961 64.2567 109.985 64.2202 110.01 64.2202C110.034 64.2933 110.038 64.3594 110.019 64.4206C110.001 64.4808 109.979 64.5419 109.955 64.6031C109.918 64.6998 109.893 64.7699 109.88 64.8113C109.869 64.8548 109.854 64.8942 109.836 64.9308C109.817 64.9663 109.796 65.0058 109.771 65.0482C109.746 65.0916 109.709 65.1558 109.661 65.2396C109.685 65.2396 109.676 65.2939 109.633 65.4034C109.59 65.513 109.563 65.5673 109.55 65.5673C109.538 65.5801 109.51 65.6008 109.468 65.6314C109.425 65.662 109.342 65.7074 109.22 65.7676C109.147 65.8169 109.043 65.9038 108.908 66.0321C108.773 66.1594 108.664 66.2531 108.578 66.3133C108.015 66.8117 107.421 67.3673 106.797 67.9801C106.173 68.5929 105.598 69.2363 105.072 69.9094C104.545 70.5834 104.116 71.2663 103.786 71.9581C103.456 72.6498 103.303 73.311 103.327 73.9426C103.29 73.9544 103.312 74.0245 103.392 74.1518C103.472 74.2791 103.578 74.3906 103.713 74.4893C103.86 74.5495 104.01 74.5712 104.163 74.5525C104.316 74.5347 104.466 74.5002 104.613 74.4528C105.408 74.137 106.102 73.6752 106.696 73.0683C107.289 72.4613 107.813 71.7794 108.266 71.0206C108.718 70.2617 109.119 69.4702 109.468 68.6442C109.817 67.8192 110.156 67.0357 110.486 66.2956C110.548 66.1623 110.6 66.0232 110.643 65.8771C110.685 65.7311 110.762 65.6225 110.873 65.5495C110.909 65.4646 110.961 65.4015 111.029 65.3581C111.095 65.3156 111.172 65.2643 111.258 65.2031L111.405 65.0946C111.466 65.0462 111.524 65.0028 111.579 64.9663C111.635 64.9308 111.698 64.9002 111.772 64.8755C111.87 64.7788 111.974 64.6939 112.083 64.6209C112.194 64.5479 112.304 64.4758 112.415 64.4018C112.512 64.3298 112.657 64.2291 112.846 64.1018C113.036 63.9745 113.232 63.8413 113.434 63.7011C113.635 63.562 113.822 63.4288 113.993 63.3005C114.165 63.1732 114.28 63.0794 114.342 63.0183C114.305 63.0183 114.293 63.0064 114.305 62.9817C114.403 62.885 114.516 62.8159 114.646 62.7725C114.657 62.7686 114.669 62.7607 114.68 62.7567C114.51 62.9393 114.337 63.1179 114.175 63.3094C114.163 63.3587 114.138 63.4189 114.101 63.4919C114.065 63.565 114.016 63.6261 113.954 63.6745C113.88 63.8077 113.811 63.9558 113.743 64.1206C113.676 64.2844 113.624 64.4482 113.588 64.612C113.55 64.7758 113.538 64.9367 113.55 65.0946C113.563 65.2525 113.612 65.3857 113.697 65.4942C113.808 65.6531 113.945 65.7646 114.11 65.8317C114.276 65.8988 114.45 65.9354 114.634 65.9413C114.817 65.9472 115.001 65.9314 115.185 65.8949C115.368 65.8584 115.533 65.8219 115.68 65.7863C115.79 65.7498 115.903 65.7163 116.02 65.6857C116.136 65.6561 116.243 65.6107 116.341 65.5495L117.663 64.9308C117.748 64.8942 117.877 64.8271 118.048 64.7294C118.22 64.6327 118.403 64.5271 118.599 64.4117C118.795 64.2962 118.991 64.1808 119.187 64.0653C119.382 63.9498 119.547 63.8433 119.682 63.7465C119.768 63.6863 119.838 63.6409 119.893 63.6104C119.948 63.5798 119.997 63.5502 120.04 63.5186C120.082 63.489 120.098 63.4732 120.085 63.4732C120.135 63.4011 120.199 63.3281 120.278 63.2551C120.358 63.1831 120.426 63.113 120.48 63.0459C120.535 62.9798 120.563 62.9275 120.563 62.8909C120.563 62.8544 120.508 62.8367 120.398 62.8367Z" fill="#FEFEFE"/>
</g>
<mask id="mask2_0_646" style="mask-type:alpha" maskUnits="userSpaceOnUse" x="0" y="0" width="200" height="75">
<path fill-rule="evenodd" clip-rule="evenodd" d="M0 74.5584H199.993V0.986328H0V74.5584Z" fill="white"/>
</mask>
<g mask="url(#mask2_0_646)">
<path fill-rule="evenodd" clip-rule="evenodd" d="M121.418 60.2403H175.339V59.2949H121.418V60.2403Z" fill="#FEFEFE"/>
<path fill-rule="evenodd" clip-rule="evenodd" d="M24.6547 60.2403H78.5761V59.2949H24.6547V60.2403Z" fill="#FEFEFE"/>
<path fill-rule="evenodd" clip-rule="evenodd" d="M121.418 28.7887H175.339V27.8433H121.418V28.7887Z" fill="#FEFEFE"/>
<path fill-rule="evenodd" clip-rule="evenodd" d="M24.6537 28.7887H78.5751V27.8433H24.6537V28.7887Z" fill="#FEFEFE"/>
<path fill-rule="evenodd" clip-rule="evenodd" d="M7.80737 37.1763H8.69394H8.86906C9.13076 37.1763 9.31981 37.2385 9.43324 37.3629C9.54767 37.4872 9.60538 37.6954 9.60538 37.9895V47.0191C9.60538 47.3339 9.5417 47.549 9.41633 47.6655C9.29096 47.7819 9.05016 47.8402 8.69394 47.8402H7.80737V48.6356H13.2671V47.8402H12.3556C12.0044 47.8402 11.7686 47.7819 11.6492 47.6655C11.5288 47.549 11.4691 47.3339 11.4691 47.0191V37.9392C11.4691 37.6569 11.5238 37.4536 11.6322 37.3293C11.7407 37.205 11.9148 37.1428 12.1546 37.1428H16.3517H16.5188C16.7865 37.1428 16.9765 37.203 17.088 37.3214C17.1994 37.4408 17.2551 37.6461 17.2551 37.9392V47.0191C17.2551 47.3339 17.1924 47.549 17.0671 47.6655C16.9417 47.7819 16.7029 47.8402 16.3517 47.8402H15.4412V48.6356H20.9168V47.8402H20.0143C19.6571 47.8402 19.4163 47.7819 19.291 47.6655C19.1656 47.549 19.1029 47.3339 19.1029 47.0191V37.9895C19.1029 37.7073 19.1596 37.501 19.274 37.3708C19.3885 37.2415 19.5656 37.1763 19.8054 37.1763H20.9168V36.3721H7.80737V37.1763Z" fill="#FEFEFE"/>
<path fill-rule="evenodd" clip-rule="evenodd" d="M38.3776 46.7534C37.7697 47.6929 36.8532 48.1626 35.6264 48.1626C34.3836 48.1626 33.4612 47.6978 32.8592 46.7653C32.2572 45.8337 31.9567 44.4146 31.9567 42.508C31.9567 40.6005 32.2592 39.1814 32.8632 38.2498C33.4682 37.3182 34.3896 36.8524 35.6264 36.8524C36.8642 36.8524 37.7836 37.3143 38.3856 38.238C38.9876 39.1607 39.2891 40.5847 39.2891 42.508C39.2891 44.3988 38.9846 45.813 38.3776 46.7534ZM35.6264 36.0649C33.91 36.0649 32.498 36.6689 31.3916 37.8768C30.2851 39.0847 29.7328 40.6281 29.7328 42.508C29.7328 44.388 30.2841 45.9274 31.3876 47.1265C32.4911 48.3255 33.904 48.9265 35.6264 48.9265C37.3488 48.9265 38.7577 48.3284 39.8532 47.1343C40.9478 45.9403 41.496 44.3988 41.496 42.508C41.496 40.6232 40.9458 39.0778 39.8453 37.8718C38.7438 36.6669 37.3378 36.0649 35.6264 36.0649Z" fill="#FEFEFE"/>
<path fill-rule="evenodd" clip-rule="evenodd" d="M57.7792 47.8397H52.6538C53.3006 46.6288 53.7882 45.1713 54.1175 43.465C54.4459 41.7607 54.6389 39.6637 54.6936 37.1759H57.7792V47.8397ZM59.815 37.3713C59.9294 37.241 60.1066 37.1759 60.3464 37.1759H61.4578V36.3716H51.8847V37.1759H52.4867C52.9772 37.1759 53.3046 37.2795 53.4687 37.4867C53.6329 37.694 53.7165 38.1745 53.7165 38.9255C53.7165 40.6614 53.5294 42.3213 53.1563 43.9051C52.7822 45.489 52.2717 46.8005 51.626 47.8397H49.8867V52.019H50.5135C50.6081 50.7528 50.8896 49.8726 51.3583 49.3782C51.827 48.8828 52.618 48.6361 53.7324 48.6361H57.5872C58.7076 48.6361 59.5016 48.8828 59.9702 49.3782C60.4379 49.8726 60.7165 50.7528 60.8061 52.019H61.4578V47.8397H59.6439V37.989C59.6439 37.7068 59.7006 37.5005 59.815 37.3713Z" fill="#FEFEFE"/>
<path fill-rule="evenodd" clip-rule="evenodd" d="M79.4229 38.238C80.0249 39.1607 80.3254 40.5847 80.3254 42.508C80.3254 44.3988 80.0219 45.814 79.4149 46.7534C78.807 47.6939 77.8896 48.1636 76.6637 48.1636C75.4209 48.1636 74.4985 47.6978 73.8965 46.7663C73.2945 45.8347 72.993 44.4156 72.993 42.508C72.993 40.6015 73.2955 39.1814 73.9005 38.2498C74.5055 37.3182 75.4259 36.8524 76.6637 36.8524C77.9015 36.8524 78.8209 37.3143 79.4229 38.238ZM72.4289 37.8768C71.3224 39.0847 70.7692 40.6281 70.7692 42.508C70.7692 44.388 71.3204 45.9274 72.4249 47.1265C73.5284 48.3265 74.9413 48.9265 76.6637 48.9265C78.3861 48.9265 79.795 48.3294 80.8906 47.1353C81.9851 45.9413 82.5323 44.3988 82.5323 42.508C82.5323 40.6232 81.9821 39.0788 80.8816 37.8728C79.7811 36.6679 78.3751 36.0649 76.6637 36.0649C74.9473 36.0649 73.5353 36.6689 72.4289 37.8768Z" fill="#FEFEFE"/>
<path fill-rule="evenodd" clip-rule="evenodd" d="M123.59 47.666C123.465 47.7815 123.223 47.8397 122.867 47.8397H121.98V48.6361H127.441V47.8397H126.671C126.231 47.8397 125.949 47.7834 125.827 47.6699C125.705 47.5574 125.643 47.3393 125.643 47.0196V37.989C125.643 37.6407 125.724 37.4127 125.886 37.3041C126.047 37.1966 126.451 37.1433 127.098 37.1433C128.737 37.1433 129.816 37.3752 130.337 37.839C130.859 38.3038 131.239 39.2601 131.479 40.7088H132.214L131.997 36.3716H121.98V37.1768H122.867H123.043C123.305 37.1768 123.493 37.239 123.607 37.3634C123.721 37.4877 123.778 37.6959 123.778 37.989V47.0196C123.778 47.3344 123.716 47.5495 123.59 47.666Z" fill="#FEFEFE"/>
<path fill-rule="evenodd" clip-rule="evenodd" d="M145.208 37.9718C145.208 37.6629 145.264 37.4497 145.375 37.3333C145.487 37.2178 145.676 37.1596 145.944 37.1596C145.95 37.1596 145.958 37.1566 145.968 37.1507C146.013 37.1458 146.055 37.1428 146.095 37.1428H146.989C148.11 37.1428 148.891 37.3392 149.334 37.7319C149.777 38.1247 149.998 38.7928 149.998 39.7382C149.998 40.7389 149.731 41.4385 149.196 41.8362C148.661 42.2339 147.669 42.4333 146.22 42.4333C145.935 42.4333 145.725 42.4303 145.588 42.4254C145.452 42.4194 145.325 42.4056 145.208 42.3839V37.9718ZM143.156 47.6655C143.03 47.781 142.788 47.8402 142.432 47.8402H141.546V48.6356H147.157V47.8402H146.095C145.744 47.8402 145.508 47.781 145.388 47.6655C145.268 47.5491 145.208 47.3339 145.208 47.0191V43.1714C145.447 43.1882 145.692 43.2 145.94 43.2089C146.187 43.2168 146.515 43.2208 146.922 43.2208C148.605 43.2208 149.871 42.9326 150.718 42.3543C151.565 41.777 151.988 40.9106 151.988 39.755C151.988 38.5826 151.626 37.726 150.902 37.1843C150.177 36.6425 149.02 36.3711 147.432 36.3711H141.546V37.1764H142.432H142.607C142.87 37.1764 143.058 37.2385 143.172 37.3629C143.286 37.4872 143.344 37.6954 143.344 37.9895V47.0191C143.344 47.3339 143.281 47.5491 143.156 47.6655Z" fill="#FEFEFE"/>
<path fill-rule="evenodd" clip-rule="evenodd" d="M162.86 43.7765L164.816 38.8512L166.848 43.7765H162.86ZM167.902 47.7238C167.767 47.789 167.524 47.8225 167.173 47.8225H166.405V48.6357H171.521V47.8225H171.162C170.805 47.8225 170.557 47.7692 170.418 47.6617C170.279 47.5531 170.139 47.3281 170 46.9857L165.636 36.1719H164.966L160.945 46.3965C160.716 46.966 160.48 47.3459 160.234 47.5373C159.989 47.7278 159.638 47.8225 159.181 47.8225H159.039V48.6357H163.462V47.8225H163.035C162.606 47.8225 162.29 47.7505 162.087 47.6074C161.883 47.4633 161.781 47.2452 161.781 46.9521C161.781 46.8633 161.805 46.7232 161.852 46.5298C161.9 46.3363 161.956 46.1479 162.024 45.9653L162.55 44.6469H167.157L167.943 46.7863C167.999 46.9304 168.04 47.0488 168.064 47.1426C168.09 47.2363 168.102 47.3143 168.102 47.3745C168.102 47.5413 168.035 47.6577 167.902 47.7238Z" fill="#FEFEFE"/>
<path fill-rule="evenodd" clip-rule="evenodd" d="M185.422 37.1763H188.508V47.8402H183.382C184.029 46.6293 184.517 45.1717 184.845 43.4655C185.174 41.7612 185.366 39.6642 185.422 37.1763ZM182.613 37.1763H183.215C183.706 37.1763 184.033 37.28 184.197 37.4872C184.362 37.6944 184.444 38.174 184.444 38.926C184.444 40.6619 184.257 42.3217 183.884 43.9046C183.511 45.4885 183 46.8 182.354 47.8402H180.614V52.0194H181.242C181.337 50.7533 181.618 49.8731 182.086 49.3777C182.555 48.8833 183.347 48.6356 184.461 48.6356H188.315C189.436 48.6356 190.23 48.8833 190.698 49.3777C191.166 49.8731 191.445 50.7533 191.535 52.0194H192.186V47.8402H190.372V37.9895C190.372 37.7073 190.429 37.501 190.544 37.3708C190.658 37.2415 190.834 37.1763 191.074 37.1763H192.186V36.3721H182.613V37.1763Z" fill="#FEFEFE"/>
<path fill-rule="evenodd" clip-rule="evenodd" d="M102.427 37.3668C102.535 37.2395 102.71 37.1763 102.949 37.1763H104.062V36.3721H94.2708V37.1763H94.8479C95.3275 37.1763 95.6499 37.2731 95.817 37.4665C95.9852 37.6599 96.0688 38.0556 96.0688 38.6527C96.0688 38.8767 96.029 39.8576 96.0021 40.3135C95.8956 42.1106 95.4568 45.8201 94.8121 46.6175C94.4389 47.0714 93.8648 47.3714 93.033 47.5846L93.1384 47.8767L93.5295 48.9533L93.5494 49.0076C93.6021 48.9928 93.6539 48.977 93.7036 48.9602C96.3205 48.0987 96.4817 45.1974 96.8061 41.8786C96.8568 41.3615 96.9404 39.9 96.9464 39.8063C97.0051 38.781 97.0499 38.1967 97.0807 38.0556C97.1524 37.724 97.2907 37.4941 97.4947 37.3668C97.6976 37.2395 98.0389 37.1763 98.5185 37.1763H100.399V47.0191C100.399 47.3349 100.336 47.549 100.211 47.6655C100.086 47.7819 99.8449 47.8402 99.4887 47.8402H98.5852V48.6356H104.062V47.8402H103.158C102.808 47.8402 102.571 47.7819 102.448 47.6655C102.325 47.549 102.264 47.3349 102.264 47.0191V37.9895C102.264 37.7013 102.319 37.4941 102.427 37.3668Z" fill="#FEFEFE"/>
</g>
</svg>
