<svg width="44" height="42" viewBox="0 0 44 42" fill="none" xmlns="http://www.w3.org/2000/svg">
<path fill-rule="evenodd" clip-rule="evenodd" d="M38.5322 0.799559C36.7241 1.70717 33.7196 4.13847 26.86 10.2454L22.5322 14.0984L19.5453 11.2118C14.7862 6.61254 10.1961 2.73843 9.12944 2.42091C7.17125 1.83787 5.68169 2.17701 5.07419 3.34456C4.85686 3.76192 4.32074 4.23613 3.84012 4.43583C3.3326 4.64645 2.99034 4.95838 2.99034 5.21055C2.99034 5.44255 2.78475 5.85798 2.53343 6.13395C1.98631 6.73449 1.67266 7.88431 2.00122 8.08594C2.1303 8.16538 2.24349 8.52736 2.25278 8.89055C2.33443 12.0917 2.80577 12.8606 6.14155 15.2319C8.57841 16.9645 13.9914 21.4788 13.9914 21.7788C13.9914 21.8728 10.8434 25.0781 6.99572 28.9017L0 35.8535L0.141057 36.7925C0.218554 37.3087 0.373306 38.3325 0.485028 39.0674C0.694049 40.4443 1.29691 41.607 1.98606 41.9619C2.3667 42.1582 3.78853 41.5893 5.90881 40.3923C6.37134 40.1312 9.17662 37.6112 12.1428 34.7924C15.1091 31.9736 18.0061 29.253 18.5804 28.7469C19.613 27.8367 19.6304 27.8316 20.1388 28.2844C20.9537 29.0103 25.1705 34.292 27.5355 37.549C28.7241 39.1859 29.7978 40.525 29.9213 40.525C30.045 40.525 30.4442 40.7409 30.8084 41.0053C31.5411 41.5361 33.0852 41.5689 33.5927 41.0645C33.757 40.9013 34.0892 40.7679 34.3312 40.7679C34.5733 40.7679 34.7713 40.6562 34.7713 40.5199C34.7713 40.3833 35.0187 40.1766 35.3213 40.0605C37.5357 39.2102 38.1518 38.906 38.7439 38.3701C39.5206 37.6673 39.5932 37.1846 38.9884 36.7451C38.6185 36.4762 38.6006 36.3292 38.8561 35.6563C39.1421 34.9037 39.0952 34.7987 37.4052 32.4179C34.9994 29.028 33.1402 26.5824 30.3276 23.1064L27.9293 20.1426L32.2669 16.2938C34.6527 14.1768 37.8149 11.4261 39.294 10.181C44.8087 5.53803 44.718 5.69934 42.8507 3.85351C41.7061 2.72191 41.6103 2.54214 41.7516 1.79293C41.8731 1.14987 41.7958 0.86175 41.3949 0.463334C40.7141 -0.213243 40.4994 -0.187977 38.5322 0.799559Z" fill="#DF6933"/>
</svg>
