<svg width="52" height="42" viewBox="0 0 52 42" fill="none" xmlns="http://www.w3.org/2000/svg">
<path d="M46.2203 0.953088C46.4253 0.953088 46.9545 0.734168 47.3962 0.466491C48.3579 -0.116644 48.8908 -0.149553 49.3062 0.348013C49.4762 0.551818 49.9911 0.895554 50.4507 1.11228C51.2533 1.49112 52 2.50649 52 3.21956C52 3.98505 51.099 5.22958 48.4864 8.07456C38.1535 19.325 27.9831 32.3744 25.1561 38.0085C24.2564 39.8016 23.2071 40.8637 21.6534 41.5541C20.3657 42.1263 20.3652 42.1263 19.0785 41.677C18.3705 41.43 17.6158 41.1568 17.4014 41.0697C17.0076 40.91 16.2366 39.795 13.599 35.5707C10.6767 30.8897 5.58485 24.26 1.8393 20.2587C0.418969 18.7414 0.0136154 18.1634 0.223281 17.9549C0.597492 17.5829 0.580081 16.6217 0.196552 16.4937C-0.42558 16.286 0.508721 15.2167 1.88222 14.5641L3.24174 13.9183L4.98062 14.539C6.45931 15.0668 6.835 15.1183 7.49097 14.8825C7.91521 14.7299 8.42012 14.608 8.61287 14.6114C9.50082 14.627 11.736 16.502 15.072 20.0293C17.0694 22.1412 18.8948 23.8689 19.1288 23.8689C19.3625 23.8689 20.2769 23.0186 21.1607 21.9796C23.4369 19.3033 30.2769 12.6894 33.6082 9.94317C38.4436 5.95728 45.4638 0.953088 46.2203 0.953088Z" fill="#359414"/>
</svg>
