<svg width="120" height="114" viewBox="0 0 120 114" fill="none" xmlns="http://www.w3.org/2000/svg">
<path fill-rule="evenodd" clip-rule="evenodd" d="M1.54129 54.8855H1.78563C2.01042 54.8855 2.11346 54.9563 2.2552 55.176L3.18694 56.6418H4.42129L3.28346 54.8532C3.03911 54.4658 2.89781 54.388 2.80781 54.3365C2.89129 54.2784 3.03303 54.1945 3.27694 53.8582L4.3765 52.1216H3.14824L2.24868 53.5354C2.10694 53.7486 2.00389 53.8263 1.77911 53.8263H1.54129V52.1216H0.448242V56.6418H1.54129V54.8855Z" fill="white"/>
<path fill-rule="evenodd" clip-rule="evenodd" d="M6.74592 56.6418H7.83853V55.1502L9.38766 52.1211H8.14723L7.29201 53.7874L6.44375 52.1211H5.20288L6.74592 55.1502V56.6418Z" fill="white"/>
<path fill-rule="evenodd" clip-rule="evenodd" d="M12.7305 53.1546V52.1216H10.5448V53.1546H11.0909V55.6023H10.5448V56.6418H12.7305V55.6023H12.1839V53.1546H12.7305Z" fill="white"/>
<path fill-rule="evenodd" clip-rule="evenodd" d="M16.0721 54.6335L15.1269 52.1216H13.9121L15.7569 56.6423H16.4065L18.2256 52.1216H17.0108L16.0721 54.6335Z" fill="white"/>
<path fill-rule="evenodd" clip-rule="evenodd" d="M104.58 53.1092C104.959 53.1092 105.3 53.2384 105.57 53.4835L106.277 52.8253C105.853 52.3666 105.248 52.0762 104.58 52.0762C103.313 52.0762 102.291 53.1092 102.291 54.3815C102.291 55.6534 103.313 56.6868 104.58 56.6868C105.248 56.6868 105.853 56.3964 106.277 55.9382L105.57 55.2791C105.3 55.5246 104.959 55.6473 104.58 55.6473C103.911 55.6473 103.384 55.1564 103.384 54.3815C103.384 53.6067 103.911 53.1092 104.58 53.1092" fill="white"/>
<path fill-rule="evenodd" clip-rule="evenodd" d="M109.912 53.1546V52.1216H107.726V53.1546H108.273V55.6023H107.726V56.6418H109.912V55.6023H109.366V53.1546H109.912Z" fill="white"/>
<path fill-rule="evenodd" clip-rule="evenodd" d="M113.581 56.6418V53.1545H114.731V52.1211H111.337V53.1545H112.487V56.6418H113.581Z" fill="white"/>
<path fill-rule="evenodd" clip-rule="evenodd" d="M117.298 56.6418H118.39V55.1502L119.94 52.1211H118.699L117.844 53.7874L116.996 52.1211H115.755L117.298 55.1502V56.6418Z" fill="white"/>
<path fill-rule="evenodd" clip-rule="evenodd" d="M78.2179 71.5571L84.1979 57.5417H92.1692L78.2179 71.5571ZM72.1523 61.8514C76.3657 60.7922 80.3857 59.1172 82.5157 58.1584L76.7879 71.582C75.9231 69.3435 74.2857 65.4356 72.1523 61.8514V61.8514ZM66.9297 62.7534C68.1923 62.656 69.5036 62.4459 70.814 62.1633C72.707 65.271 74.224 68.6914 75.1662 71.0277L66.9297 62.7534ZM61.4253 79.3502C62.3779 77.2135 64.0505 73.1649 65.107 68.9229C68.7457 71.1077 72.7231 72.7775 74.9288 73.6332L61.4253 79.3502ZM60.7714 89.0843V81.0488L74.5957 75.196L60.7714 89.0843ZM64.7479 62.8508C64.5458 67.8515 62.2488 74.0481 60.7714 77.5581V64.4258C62.264 64.2965 63.6297 63.7278 64.7479 62.8508V62.8508ZM74.2414 71.9511C71.9153 71.0037 68.5114 69.4794 65.4175 67.5785C65.6988 66.262 65.9079 64.9456 66.0053 63.6776L74.2414 71.9511ZM53.8857 56.8865C53.8857 53.4338 56.6823 50.6248 60.1192 50.6248C63.361 50.6248 66.0305 53.1245 66.3236 56.3056V57.4674C66.0305 60.6485 63.361 63.1486 60.1192 63.1486C56.6823 63.1486 53.8857 60.3393 53.8857 56.8865V56.8865ZM59.467 77.5651C57.9897 74.0643 55.6914 67.8777 55.4914 62.8508C56.6088 63.7278 57.9749 64.2965 59.467 64.4258V77.5651ZM59.467 89.0843L45.871 75.4253L59.467 81.0519V89.0843ZM55.1279 68.9251C56.1862 73.1833 57.8662 77.237 58.8201 79.3672L45.1318 73.7022C47.2949 72.8705 51.3888 71.1719 55.1279 68.9251V68.9251ZM54.2327 63.6767C54.3297 64.9473 54.5379 66.2646 54.8184 67.5807C51.7244 69.4828 48.3192 71.0068 45.9931 71.9533L54.2327 63.6767ZM49.4249 62.1624C50.7344 62.4437 52.0457 62.6525 53.3114 62.7494L45.074 71.0243C46.017 68.6879 47.5344 65.2679 49.4249 62.1624V62.1624ZM37.6814 58.1383C39.7984 59.0957 43.8388 60.7878 48.0866 61.8518C45.8118 65.6754 44.0975 69.8716 43.2857 72.0114L37.6814 58.1383ZM28.0688 57.5417H36.0327L41.4723 71.0064L28.0688 57.5417ZM41.6766 42.5614L35.9966 56.2313H28.0688L41.6766 42.5614ZM48.0849 51.8225C43.854 52.8838 39.8257 54.5676 37.7027 55.5259L43.371 41.8848C44.2118 44.0818 45.8836 48.1234 48.0849 51.8225V51.8225ZM53.3084 50.9227C52.044 51.0201 50.7331 51.2293 49.4231 51.511C47.5314 48.4038 46.0153 44.9846 45.0731 42.6496L53.3084 50.9227ZM54.8218 46.0984C54.5405 47.4153 54.3318 48.7318 54.234 49.9998L45.9979 41.7258C48.324 42.6732 51.7288 44.1976 54.8218 46.0984V46.0984ZM54.1453 61.4863C49.1892 61.2897 43.1066 59.0285 39.6014 57.5417H52.6144C52.7414 59.0189 53.2936 60.3725 54.1453 61.4863V61.4863ZM39.3675 56.2313C42.8505 54.7406 49.1479 52.361 54.2236 52.1819C53.3262 53.3145 52.7453 54.7083 52.6144 56.2313H39.3675ZM59.467 36.121V49.3477C57.9731 49.4774 56.6053 50.0465 55.487 50.9258C55.6623 45.9089 57.9801 39.6537 59.467 36.121V36.121ZM58.8218 34.3097C57.8701 36.4421 56.1914 40.502 55.1327 44.7545C51.3988 42.512 47.3084 40.8125 45.1423 39.9787L58.8218 34.3097ZM59.467 24.6892V32.6246L46.0214 38.1966L59.467 24.6892ZM60.7714 36.1241C62.2588 39.6616 64.5779 45.9215 64.7527 50.9271C63.6344 50.0469 62.2662 49.4774 60.7714 49.3477V36.1241ZM60.7714 24.6892L74.6358 38.6172L60.7714 32.6316V24.6892ZM65.1057 44.7558C64.051 40.5264 62.384 36.4844 61.431 34.3425L74.7753 40.1032C72.5414 40.975 68.6631 42.6173 65.1057 44.7558V44.7558ZM66.0049 49.9976C65.9075 48.7309 65.6984 47.4158 65.4166 46.0993C68.5079 44.198 71.9105 42.6745 74.2375 41.7271L66.0049 49.9976ZM70.8118 51.5189C69.4997 51.2359 68.1871 51.0258 66.9227 50.9279L75.1692 42.6439C74.2253 44.982 72.7057 48.4086 70.8118 51.5189V51.5189ZM80.6384 57.5417C77.1249 59.0289 71.0257 61.2949 66.0897 61.4911C66.9431 60.3764 67.497 59.0211 67.624 57.5417H80.6384ZM67.624 56.2313C67.4936 54.7109 66.914 53.3193 66.0188 52.1876C71.0618 52.3689 77.3584 54.741 80.8523 56.2313H67.624ZM82.5023 55.5172C80.3679 54.558 76.3549 52.8878 72.1501 51.8308C74.2414 48.316 75.8584 44.4876 76.7375 42.2281L82.5023 55.5172ZM92.1692 56.2313H84.2344L78.1062 42.1036L92.1692 56.2313ZM60.1192 22.1812L25.5723 56.8865L60.1192 91.5923L94.6657 56.8865L60.1192 22.1812Z" fill="white"/>
<path fill-rule="evenodd" clip-rule="evenodd" d="M102.291 61.3582H119.873V60.0479H102.291V61.3582Z" fill="white"/>
<path fill-rule="evenodd" clip-rule="evenodd" d="M0.434326 61.3728H18.0161V60.0625H0.434326V61.3728Z" fill="white"/>
<path fill-rule="evenodd" clip-rule="evenodd" d="M16.0988 34.0127L14.8766 33.4575L13.4818 36.5547L12.0058 35.8843L13.2944 33.0229L12.0723 32.4678L10.7836 35.3291L9.34575 34.6757L10.7405 31.578L9.51793 31.0225L7.53662 35.423L14.1171 38.4137L16.0988 34.0127Z" fill="white"/>
<path fill-rule="evenodd" clip-rule="evenodd" d="M13.7304 26.5039L14.3469 25.6089C15.063 24.5689 16.2969 24.2169 17.4935 25.0485C18.6987 25.8863 18.7965 27.1643 18.0804 28.2043L17.4639 29.0988L13.7304 26.5039ZM19.1835 28.9708C20.34 27.2923 20.0348 25.0751 18.3039 23.8723C16.5817 22.6742 14.4004 23.1634 13.2439 24.8419L11.8174 26.9131L17.7569 31.0425L19.1835 28.9708Z" fill="white"/>
<path fill-rule="evenodd" clip-rule="evenodd" d="M26.9582 19.9316L26.0086 18.9794L23.6169 21.3861L22.4704 20.2361L24.6799 18.0128L23.7299 17.0611L21.5208 19.2843L20.4034 18.164L22.7947 15.7564L21.8451 14.8047L18.4478 18.2238L23.5608 23.3516L26.9582 19.9316Z" fill="white"/>
<path fill-rule="evenodd" clip-rule="evenodd" d="M33.3916 15.0127L32.609 13.9181L29.9699 15.8225L26.5399 11.0244L25.3838 11.8587L29.596 17.7513L33.3916 15.0127Z" fill="white"/>
<path fill-rule="evenodd" clip-rule="evenodd" d="M38.2133 12.3245L38.0438 7.61731L41.4238 10.877L42.1955 10.5289L41.892 2.71094L40.4516 3.36131L40.7455 8.29606L37.2416 4.8088L36.479 5.15255L36.7446 10.1004L33.269 6.60048L31.8281 7.24954L37.4507 12.6682L38.2133 12.3245Z" fill="white"/>
<path fill-rule="evenodd" clip-rule="evenodd" d="M52.7483 7.73156L52.4809 6.41205L49.1648 7.08906L48.8418 5.49481L51.9052 4.86846L51.6378 3.54807L48.5744 4.17398L48.2596 2.61991L51.5761 1.94246L51.3083 0.62207L46.5974 1.58517L48.0365 8.69467L52.7483 7.73156Z" fill="white"/>
<path fill-rule="evenodd" clip-rule="evenodd" d="M56.7591 1.45099L56.9664 6.00837L56.0999 6.04812L56.1617 7.39428L59.3164 7.24926L59.2547 5.9031L58.3891 5.94329L58.1817 1.38634L59.0478 1.34616L58.9864 0L55.8317 0.145011L55.893 1.49117L56.7591 1.45099Z" fill="white"/>
<path fill-rule="evenodd" clip-rule="evenodd" d="M66.0101 6.34786L65.9483 6.34087C64.8827 6.21813 64.2036 5.61843 63.937 5.1288L62.9175 5.87701C63.3927 6.71388 64.361 7.51406 65.7962 7.6796L65.8575 7.68615C67.4475 7.85868 68.7427 7.15241 68.8992 5.7831C69.0692 4.29018 68.0453 3.61884 66.6097 3.27684L66.0427 3.14887C65.4062 2.99163 64.8692 2.78459 64.9244 2.29976C64.9962 1.67211 65.7844 1.58606 66.2562 1.63979L66.3383 1.64896C66.861 1.70967 67.6183 2.07832 68.1023 2.57188L69.1223 1.82411C68.4644 1.03834 67.5053 0.427282 66.491 0.310661L66.4088 0.301052C64.9205 0.150799 63.6579 0.840477 63.504 2.18926C63.3597 3.45593 64.3531 4.12289 65.7079 4.44567L66.2644 4.57278C66.9923 4.75011 67.5566 4.99209 67.4849 5.62018C67.4223 6.16615 66.8414 6.43303 66.0101 6.34786" fill="white"/>
<path fill-rule="evenodd" clip-rule="evenodd" d="M74.3435 9.46065L74.4031 9.47856C75.937 9.93063 77.3361 9.46502 77.7305 8.14506C78.1601 6.70587 77.2701 5.86506 75.9179 5.27279L75.3827 5.04697C74.784 4.77966 74.2922 4.47959 74.4314 4.01267C74.6122 3.40817 75.4035 3.46277 75.8579 3.59992L75.937 3.62306C76.4409 3.7755 77.1218 4.273 77.5105 4.84474L78.6461 4.28916C78.1366 3.39943 77.3009 2.62808 76.3227 2.33325L76.2435 2.30923C74.8053 1.89734 73.4422 2.35203 73.0535 3.65189C72.6888 4.87182 73.5492 5.7052 74.8253 6.26341L75.3505 6.4866C76.0357 6.7906 76.5479 7.12911 76.367 7.73405C76.2101 8.26038 75.5914 8.4198 74.7883 8.18874L74.7292 8.17083C73.7014 7.86028 73.1388 7.14964 72.9631 6.6207L71.8279 7.17672C72.1488 8.08479 72.9605 9.04352 74.3435 9.46065" fill="white"/>
<path fill-rule="evenodd" clip-rule="evenodd" d="M87.8291 12.2901L90.1573 13.8455L88.5178 16.3225L89.7038 17.1144L93.7021 11.0728L92.5164 10.2809L90.8995 12.7234L88.5717 11.1685L90.1882 8.72597L89.0025 7.93408L85.0043 13.9756L86.1895 14.7675L87.8291 12.2901Z" fill="white"/>
<path fill-rule="evenodd" clip-rule="evenodd" d="M97.8892 18.1529L97.0618 20.1106L95.9497 19.0147L97.8892 18.1529ZM93.3566 20.2189L94.6501 19.6358L96.4684 21.4279L95.9123 22.7374L97.0388 23.8481L100.005 16.6089L99.4084 16.021L92.2301 19.109L93.3566 20.2189Z" fill="white"/>
<path fill-rule="evenodd" clip-rule="evenodd" d="M100.503 28.5594C101.373 29.8073 103.021 30.3825 104.728 29.1814L108.159 26.7677L107.343 25.5958L103.937 27.9911C102.83 28.7699 102.034 28.4056 101.602 27.7863C101.17 27.1665 101.101 26.2912 102.209 25.512L105.615 23.1167L104.798 21.9443L101.367 24.3589C99.6597 25.5591 99.6275 27.3028 100.503 28.5594" fill="white"/>
<path fill-rule="evenodd" clip-rule="evenodd" d="M107.778 34.894L107.955 35.4391C108.176 36.1584 108.258 36.7699 107.684 37.0303C107.185 37.2561 106.659 36.8909 106.306 36.13L106.281 36.0737C105.839 35.0901 106.004 34.1969 106.286 33.716L105.123 33.2193C104.651 34.0597 104.463 35.305 105.058 36.6284L105.083 36.6848C105.751 38.1449 107.019 38.901 108.27 38.3336C109.634 37.7151 109.683 36.4873 109.239 35.073L109.058 34.5188C108.866 33.8889 108.768 33.3185 109.211 33.118C109.785 32.8577 110.263 33.4941 110.458 33.9291L110.492 34.0042C110.708 34.486 110.782 35.329 110.607 36.0003L111.77 36.4969C112.104 35.526 112.135 34.3855 111.715 33.4495L111.681 33.3744C111.047 32.0129 109.81 31.277 108.578 31.8356C107.421 32.3602 107.359 33.5596 107.778 34.894" fill="white"/>
<path fill-rule="evenodd" clip-rule="evenodd" d="M12.4508 82.1146L13.6695 81.5368L12.3286 78.6833L13.7629 78.0032L15.2138 81.0917L16.4329 80.5138L14.3708 76.1255L7.80859 79.2371L9.87077 83.6259L11.0895 83.048L9.63816 79.9587L11.1099 79.2611L12.4508 82.1146Z" fill="white"/>
<path fill-rule="evenodd" clip-rule="evenodd" d="M17.8579 89.3302C16.6588 90.188 15.4227 89.8443 14.6897 88.8096L14.0588 87.9185L17.7749 85.2616L18.4058 86.1526C19.1388 87.1878 19.0488 88.4789 17.8579 89.3302M19.5036 85.3677L18.0432 83.3057L12.131 87.5328L13.5914 89.594C14.7758 91.2656 16.9645 91.7329 18.6875 90.5012C20.4023 89.2756 20.6879 87.0388 19.5036 85.3677" fill="white"/>
<path fill-rule="evenodd" clip-rule="evenodd" d="M23.9126 92.7884L26.3365 95.182L27.2813 94.2171L23.837 90.8159L18.7522 96.0132L22.1961 99.414L23.1405 98.4491L20.7161 96.0551L21.8565 94.8898L24.0961 97.1008L25.0405 96.1355L22.8009 93.9245L23.9126 92.7884Z" fill="white"/>
<path fill-rule="evenodd" clip-rule="evenodd" d="M29.8234 96.2837L25.6299 102.232L29.4616 104.958L30.2408 103.854L27.576 101.958L30.9912 97.114L29.8234 96.2837Z" fill="white"/>
<path fill-rule="evenodd" clip-rule="evenodd" d="M40.0764 107.449L40.3286 102.476L39.5612 102.133L36.0499 105.648L36.3312 100.687L34.8816 100.039L34.609 107.9L35.376 108.244L38.7725 104.962L38.6068 109.689L39.3834 110.036L45.009 104.57L43.5594 103.921L40.0764 107.449Z" fill="white"/>
<path fill-rule="evenodd" clip-rule="evenodd" d="M46.5319 112.281L51.2649 113.251L51.534 111.924L48.2027 111.242L48.5275 109.64L51.6049 110.27L51.874 108.943L48.7966 108.313L49.1132 106.752L52.4449 107.434L52.714 106.107L47.9806 105.139L46.5319 112.281Z" fill="white"/>
<path fill-rule="evenodd" clip-rule="evenodd" d="M55.923 107.787L56.793 107.83L56.5708 112.407L55.7008 112.364L55.6356 113.717L58.8048 113.872L58.87 112.519L58 112.477L58.2221 107.899L59.0917 107.941L59.1574 106.59L55.9882 106.434L55.923 107.787Z" fill="white"/>
<path fill-rule="evenodd" clip-rule="evenodd" d="M66.1051 109.098L65.5208 109.099C64.863 109.086 64.2904 109.001 64.2382 108.514C64.1708 107.882 64.9251 107.623 65.3995 107.572L65.4817 107.563C66.0073 107.506 66.8312 107.7 67.4143 108.077L68.2499 107.117C67.4325 106.493 66.3586 106.106 65.3378 106.216L65.2551 106.225C63.7625 106.407 62.676 107.362 62.8208 108.72C62.9573 109.994 64.0782 110.428 65.4773 110.444L66.0508 110.445C66.803 110.458 67.4095 110.571 67.4769 111.203C67.536 111.752 67.0247 112.142 66.1908 112.242L66.1291 112.249C65.0569 112.365 64.2595 111.927 63.8908 111.506L63.0547 112.466C63.7047 113.182 64.8295 113.751 66.2734 113.596L66.3347 113.589C67.9317 113.406 69.0473 112.427 68.8999 111.049C68.7395 109.547 67.5878 109.116 66.1051 109.098" fill="white"/>
<path fill-rule="evenodd" clip-rule="evenodd" d="M75.0318 107.258L74.457 107.36C73.8066 107.463 73.2287 107.479 73.0927 107.009C72.917 106.399 73.6144 106.011 74.0727 105.878L74.1522 105.855C74.6605 105.707 75.5048 105.754 76.144 106.024L76.8005 104.932C75.8874 104.461 74.7631 104.267 73.777 104.555L73.6974 104.577C72.2592 105.018 71.3548 106.149 71.7331 107.459C72.0879 108.69 73.2666 108.922 74.647 108.693L75.2122 108.594C75.9548 108.475 76.5718 108.48 76.7474 109.09C76.9009 109.62 76.4653 110.094 75.6613 110.339L75.6022 110.356C74.5661 110.657 73.7048 110.366 73.2692 110.016L72.6127 111.107C73.3766 111.698 74.5831 112.063 75.977 111.656L76.037 111.639C77.577 111.18 78.5057 110.02 78.1218 108.69C77.7035 107.239 76.4948 107.016 75.0318 107.258" fill="white"/>
<path fill-rule="evenodd" clip-rule="evenodd" d="M87.9479 97.9293L89.5362 100.408L87.174 101.935L85.5853 99.4571L84.3827 100.235L88.3114 106.365L89.5144 105.587L87.9031 103.074L90.2657 101.546L91.8766 104.059L93.0796 103.281L89.1509 97.1514L87.9479 97.9293Z" fill="white"/>
<path fill-rule="evenodd" clip-rule="evenodd" d="M97.7352 95.7683L96.5987 96.8493L95.8095 94.8602L97.7352 95.7683ZM93.7347 93.2481L96.5539 100.605L97.706 99.5098L97.1704 98.1837L99.0304 96.4156L100.319 97.0262L101.471 95.9308L94.3447 92.6685L93.7347 93.2481Z" fill="white"/>
<path fill-rule="evenodd" clip-rule="evenodd" d="M105.118 86.2802L101.722 83.7822L100.877 84.9423L104.248 87.4215C105.345 88.2274 105.257 89.1053 104.81 89.719C104.363 90.3322 103.556 90.6812 102.461 89.8753L99.0889 87.3966L98.2437 88.5562L101.641 91.0538C103.331 92.296 104.991 91.7627 105.898 90.5183C106.798 89.2831 106.808 87.5228 105.118 86.2802" fill="white"/>
<path fill-rule="evenodd" clip-rule="evenodd" d="M110.493 77.9302C109.139 77.275 108.166 78.0302 107.369 79.286L107.061 79.7843C106.703 80.3395 106.329 80.7828 105.89 80.5706C105.321 80.2945 105.499 79.514 105.706 79.0824L105.742 79.0073C105.972 78.5286 106.57 77.928 107.196 77.6301L106.826 76.4106C105.866 76.7789 104.973 77.4908 104.527 78.4198L104.492 78.495C103.858 79.8647 104.092 81.296 105.316 81.8883C106.465 82.4439 107.423 81.7167 108.176 80.5317L108.479 80.0425C108.887 79.4078 109.302 78.9497 109.872 79.2253C110.367 79.4646 110.428 80.1063 110.072 80.8711L110.046 80.9274C109.578 81.9036 108.787 82.3531 108.237 82.4452L108.607 83.6647C109.555 83.4878 110.63 82.8287 111.26 81.5149L111.287 81.4585C111.975 79.9997 111.735 78.5312 110.493 77.9302" fill="white"/>
</svg>
