<svg width="100" height="123" viewBox="0 0 100 123" fill="none" xmlns="http://www.w3.org/2000/svg">
<path fill-rule="evenodd" clip-rule="evenodd" d="M3.51237 108.294C4.19437 108.294 4.84437 108.25 5.02437 108.204C5.27437 108.143 5.48237 108.011 5.70637 107.743C5.86837 107.518 6.04637 107.102 6.04637 106.818C6.04637 106.714 6.09037 106.683 6.16437 106.683L6.56237 106.73C6.63637 106.744 6.69837 106.758 6.68237 106.848C6.63637 107.102 6.63637 107.876 6.63637 108.397C6.63637 109.068 6.69837 109.782 6.72637 110.096C6.74037 110.184 6.68237 110.2 6.60837 110.215L6.25237 110.291C6.19437 110.305 6.16437 110.275 6.13637 110.17C6.07437 109.931 5.92637 109.589 5.83837 109.412C5.67437 109.129 5.31837 108.934 5.02437 108.889C4.62437 108.829 4.16437 108.799 3.51237 108.799V109.694C3.51237 110.498 3.58637 111.944 3.58637 112.211C3.58637 112.986 3.74837 113.255 3.94237 113.343C4.16437 113.434 4.44437 113.478 5.18637 113.478C5.43837 113.478 6.06037 113.462 6.37237 113.434C6.66637 113.404 7.11237 113.255 7.49637 112.941C7.88437 112.63 8.71437 111.705 9.00837 111.349C9.06837 111.288 9.11237 111.272 9.15637 111.302L9.40837 111.451C9.46837 111.481 9.48237 111.526 9.46837 111.57L8.80237 113.82C8.75637 113.953 8.65237 114.043 8.47437 114.043C8.40037 114.043 8.07437 114.029 7.12837 114.015C6.16437 114.015 4.59437 113.999 2.03037 113.999C1.48037 113.999 1.06637 114.015 0.770366 114.015C0.460366 114.029 0.266366 114.043 0.134366 114.043C0.0303662 114.043 0.000366211 113.999 0.000366211 113.88V113.567C0.000366211 113.478 0.0443662 113.434 0.148366 113.434H0.592366C1.27437 113.434 1.33237 113.327 1.33237 112.807V107.818C1.33237 106.581 1.30437 104.747 1.29037 104.6C1.23037 104.122 1.08037 104.019 0.682366 104.019H0.104366C0.0443662 104.019 0.0303662 103.973 0.0303662 103.868V103.512C0.0303662 103.466 0.0443662 103.406 0.134366 103.406C0.460366 103.406 0.976366 103.452 2.32637 103.452L7.52637 103.436C7.76437 103.436 8.04637 103.406 8.12037 103.406C8.19437 103.406 8.22237 103.436 8.23837 103.482C8.29837 103.689 8.78837 105.73 8.84637 105.879C8.87637 105.954 8.87637 105.986 8.80237 106.03L8.56237 106.149C8.50437 106.179 8.43037 106.163 8.38837 106.088C8.31237 105.97 6.97837 104.628 6.63637 104.419C6.32637 104.226 5.91037 104.033 5.51237 104.019L3.55437 103.959L3.51237 108.294Z" fill="#FEFEFE"/>
<path fill-rule="evenodd" clip-rule="evenodd" d="M15.4147 108.607C15.4147 108.8 15.4287 111.332 15.4447 112.257C15.4447 112.554 15.5027 112.793 15.6967 113.075C15.8727 113.344 16.3767 113.433 16.8807 113.433C17.7407 113.433 18.8807 113.003 19.6507 111.973C20.2447 111.185 20.7047 109.962 20.7047 108.577C20.7047 107.354 20.2007 106.103 19.5047 105.329C18.7187 104.45 17.4147 103.974 16.5547 103.974C16.1407 103.974 15.9187 103.988 15.7247 104.092C15.5027 104.197 15.4447 104.436 15.4287 104.734C15.4147 105.359 15.4147 107.31 15.4147 107.549V108.607ZM13.1927 107.161C13.1927 106.775 13.1467 104.66 13.1187 104.436C13.0727 104.078 12.8787 104.018 12.6287 104.018H11.8867C11.8127 104.018 11.7687 104.004 11.7687 103.915V103.483C11.7687 103.423 11.8127 103.407 11.8727 103.407C12.0647 103.407 12.7167 103.453 14.2007 103.453C14.5847 103.453 16.0667 103.407 16.4067 103.407C18.4227 103.407 20.0227 103.586 21.4307 104.762C22.4087 105.582 23.0907 106.819 23.0907 108.547C23.0907 110.26 22.6007 111.392 21.6227 112.466C20.1867 114.03 17.6507 114.044 16.7167 114.044C16.4807 114.044 14.7327 114 13.9187 114C12.6287 114 12.0367 114.044 11.8287 114.044C11.7547 114.044 11.7247 114.014 11.7247 113.911V113.521C11.7247 113.463 11.7687 113.433 11.8447 113.433H12.6147C12.8947 113.433 13.0587 113.314 13.0887 113.075C13.1327 112.763 13.1927 109.411 13.1927 108.279V107.161Z" fill="#FEFEFE"/>
<path fill-rule="evenodd" clip-rule="evenodd" d="M29.116 108.294C29.798 108.294 30.448 108.25 30.628 108.204C30.88 108.143 31.086 108.011 31.31 107.743C31.472 107.518 31.65 107.102 31.65 106.818C31.65 106.714 31.694 106.683 31.768 106.683L32.168 106.73C32.24 106.744 32.302 106.758 32.286 106.848C32.24 107.102 32.24 107.876 32.24 108.397C32.24 109.068 32.302 109.782 32.33 110.096C32.346 110.184 32.286 110.2 32.212 110.215L31.856 110.291C31.798 110.305 31.768 110.275 31.74 110.17C31.678 109.931 31.53 109.589 31.442 109.412C31.28 109.129 30.922 108.934 30.628 108.889C30.228 108.829 29.768 108.799 29.116 108.799V109.694C29.116 110.498 29.19 111.944 29.19 112.211C29.19 112.986 29.352 113.255 29.546 113.343C29.768 113.434 30.05 113.478 30.79 113.478C31.042 113.478 31.664 113.462 31.976 113.434C32.272 113.404 32.716 113.255 33.1 112.941C33.488 112.63 34.318 111.705 34.612 111.349C34.672 111.288 34.718 111.272 34.76 111.302L35.012 111.451C35.074 111.481 35.086 111.526 35.074 111.57L34.406 113.82C34.36 113.953 34.256 114.043 34.078 114.043C34.004 114.043 33.678 114.029 32.732 114.015C31.768 114.015 30.198 113.999 27.634 113.999C27.084 113.999 26.67 114.015 26.374 114.015C26.064 114.029 25.87 114.043 25.738 114.043C25.634 114.043 25.604 113.999 25.604 113.88V113.567C25.604 113.478 25.65 113.434 25.752 113.434H26.196C26.878 113.434 26.936 113.327 26.936 112.807V107.818C26.936 106.581 26.908 104.747 26.894 104.6C26.834 104.122 26.686 104.019 26.286 104.019H25.708C25.65 104.019 25.634 103.973 25.634 103.868V103.512C25.634 103.466 25.65 103.406 25.738 103.406C26.064 103.406 26.58 103.452 27.93 103.452L33.132 103.436C33.368 103.436 33.65 103.406 33.724 103.406C33.798 103.406 33.826 103.436 33.842 103.482C33.902 103.689 34.392 105.73 34.45 105.879C34.48 105.954 34.48 105.986 34.406 106.03L34.168 106.149C34.108 106.179 34.034 106.163 33.992 106.088C33.916 105.97 32.582 104.628 32.24 104.419C31.93 104.226 31.516 104.033 31.116 104.019L29.158 103.959L29.116 108.294Z" fill="#FEFEFE"/>
<path fill-rule="evenodd" clip-rule="evenodd" d="M40.8992 109.336C40.8992 109.59 40.8992 112.807 40.9432 113.402H41.7872C42.4852 113.402 43.1512 113.402 43.9512 113.328C44.7512 113.255 45.7592 111.468 45.9812 110.917C46.0252 110.826 46.0692 110.782 46.1592 110.826L46.4532 110.945C46.4992 110.975 46.4992 110.991 46.4852 111.08C46.4412 111.184 45.8492 113.642 45.7592 114.044C45.3732 114.016 41.1072 113.999 39.7432 113.999C38.2752 113.999 37.7432 114.044 37.5492 114.044C37.4452 114.044 37.4312 114.016 37.4312 113.911V113.537C37.4312 113.463 37.4452 113.434 37.5352 113.434H37.9952C38.5412 113.434 38.6312 113.225 38.6312 113.062C38.6312 112.777 38.6772 109.069 38.6772 108.16V107.325C38.6772 106.372 38.6472 104.794 38.6312 104.554C38.6032 104.166 38.5272 104.018 38.1872 104.018H37.6392C37.5492 104.018 37.5352 103.943 37.5352 103.869V103.513C37.5352 103.436 37.5492 103.406 37.6392 103.406C37.8012 103.406 38.3352 103.452 39.6832 103.452C41.4172 103.452 42.0392 103.406 42.1732 103.406C42.2912 103.406 42.3052 103.452 42.3052 103.557V103.899C42.3052 103.973 42.2752 104.018 42.1592 104.018H41.4612C41.0032 104.018 40.9432 104.166 40.9432 104.569C40.9432 104.764 40.8992 107.014 40.8992 108.055V109.336Z" fill="#FEFEFE"/>
<path fill-rule="evenodd" clip-rule="evenodd" d="M52.3796 108.607C52.3796 108.8 52.3936 111.332 52.4096 112.257C52.4096 112.554 52.4676 112.793 52.6616 113.075C52.8376 113.344 53.3416 113.433 53.8456 113.433C54.7056 113.433 55.8456 113.003 56.6156 111.973C57.2096 111.185 57.6696 109.962 57.6696 108.577C57.6696 107.354 57.1656 106.103 56.4696 105.329C55.6836 104.45 54.3796 103.974 53.5196 103.974C53.1056 103.974 52.8836 103.988 52.6896 104.092C52.4676 104.197 52.4096 104.436 52.3936 104.734C52.3796 105.359 52.3796 107.31 52.3796 107.549V108.607ZM50.1576 107.161C50.1576 106.775 50.1116 104.66 50.0836 104.436C50.0376 104.078 49.8436 104.018 49.5936 104.018H48.8516C48.7776 104.018 48.7336 104.004 48.7336 103.915V103.483C48.7336 103.423 48.7776 103.407 48.8376 103.407C49.0296 103.407 49.6816 103.453 51.1656 103.453C51.5496 103.453 53.0316 103.407 53.3716 103.407C55.3876 103.407 56.9876 103.586 58.3956 104.762C59.3736 105.582 60.0536 106.819 60.0536 108.547C60.0536 110.26 59.5656 111.392 58.5876 112.466C57.1516 114.03 54.6156 114.044 53.6816 114.044C53.4456 114.044 51.6976 114 50.8836 114C49.5936 114 49.0016 114.044 48.7936 114.044C48.7196 114.044 48.6896 114.014 48.6896 113.911V113.521C48.6896 113.463 48.7336 113.433 48.8076 113.433H49.5796C49.8596 113.433 50.0236 113.314 50.0536 113.075C50.0976 112.763 50.1576 109.411 50.1576 108.279V107.161Z" fill="#FEFEFE"/>
<path fill-rule="evenodd" clip-rule="evenodd" d="M72.0222 108.98C72.0222 105.716 69.8902 103.928 68.6442 103.928C68.3482 103.928 67.6062 103.854 66.7022 104.733C65.8282 105.567 65.3842 107.132 65.3842 108.352C65.3842 112.167 67.5642 113.522 68.7922 113.522C71.5322 113.522 72.0222 110.2 72.0222 108.98M65.1922 113.255C64.1402 112.613 63.0142 111.005 63.0142 108.829C63.0142 107.922 63.2502 106.506 64.3922 105.121C65.6962 103.526 67.3702 103.229 68.7042 103.229C69.9322 103.229 71.0722 103.422 72.3162 104.405C73.4442 105.3 74.3482 106.804 74.3482 108.859C74.3482 109.947 74.0082 111.079 73.2362 112.123C72.2742 113.329 71.0142 114.222 68.6722 114.222C67.6502 114.222 66.3622 113.985 65.1922 113.255" fill="#FEFEFE"/>
<path fill-rule="evenodd" clip-rule="evenodd" d="M80.2038 108.83C80.4878 108.846 80.6638 108.846 80.7978 108.846C82.7518 108.846 83.2138 106.967 83.2138 106.268C83.2138 105.582 82.9758 104.926 82.6518 104.599C82.1158 104.122 81.4498 103.943 81.0038 103.943C80.7538 103.943 80.5598 103.973 80.4418 104.078C80.3518 104.138 80.3098 104.301 80.2798 104.48L80.2038 108.83ZM78.1318 107.221C78.1318 106.119 78.1318 105.166 78.1158 104.764C78.0998 104.271 77.9098 104.018 77.7018 104.018H77.1078C77.0338 104.018 77.0198 103.973 77.0198 103.915V103.511C77.0198 103.436 77.0338 103.406 77.1078 103.406C77.2418 103.406 77.7018 103.452 79.3178 103.452C80.1458 103.452 81.4498 103.406 82.0578 103.406C83.2138 103.406 84.0738 103.825 84.6798 104.39C85.2138 104.882 85.5238 105.463 85.5238 106.014C85.5238 107.907 84.1158 108.755 82.8138 108.874V108.98C83.2718 109.127 83.5078 109.413 83.7918 109.769C83.9838 110.006 84.7978 111.333 84.9158 111.512C85.0058 111.645 85.8058 112.777 86.1018 113.121C86.2798 113.314 86.8418 113.434 87.1838 113.434C87.2878 113.434 87.3018 113.493 87.3018 113.553V113.911C87.3018 113.999 87.2878 114.044 87.1838 114.044C87.0658 114.044 86.6798 113.999 85.5398 113.999C85.1078 113.999 84.5618 114.03 84.1318 114.044C83.6858 113.702 82.7678 111.973 82.5158 111.468C82.0118 110.454 81.4058 109.35 80.6938 109.35H80.1898V110.11C80.1898 110.991 80.2358 112.658 80.2638 112.851C80.2938 113.165 80.4118 113.434 80.6338 113.434H81.2438C81.3458 113.434 81.3598 113.479 81.3598 113.553V113.911C81.3598 114.016 81.3458 114.044 81.1238 114.044C81.1078 114.044 80.7398 113.999 79.1818 113.999C77.6118 113.999 77.2718 114.044 77.1078 114.044C76.9918 114.044 76.9918 113.999 76.9918 113.895V113.553C76.9918 113.479 76.9918 113.434 77.0638 113.434H77.5078C77.8338 113.434 78.0998 113.328 78.0998 112.956C78.1318 111.482 78.1318 110.082 78.1318 108.665V107.221Z" fill="#FEFEFE"/>
<mask id="mask0_0_863" style="mask-type:alpha" maskUnits="userSpaceOnUse" x="89" y="103" width="10" height="12">
<path fill-rule="evenodd" clip-rule="evenodd" d="M89.5471 103.347H98.5019V114.045H89.5471V103.347Z" fill="white"/>
</mask>
<g mask="url(#mask0_0_863)">
<path fill-rule="evenodd" clip-rule="evenodd" d="M93.1471 108.74C93.7251 108.74 94.3331 108.696 94.6131 108.652C94.8651 108.622 95.1471 108.427 95.3851 108.115C95.5471 107.906 95.6511 107.594 95.7111 107.325C95.7251 107.25 95.7711 107.206 95.8291 107.206L96.1711 107.236C96.2291 107.236 96.2591 107.28 96.2591 107.341C96.2291 107.594 96.2291 108.829 96.2291 109.038C96.2291 109.575 96.2731 110.291 96.3031 110.588C96.3031 110.663 96.2731 110.693 96.1991 110.707L95.8731 110.781C95.8151 110.795 95.7711 110.751 95.7571 110.663C95.7251 110.542 95.5631 110.096 95.4731 109.947C95.2971 109.695 95.0151 109.426 94.7491 109.352C94.2731 109.261 93.7551 109.247 93.1471 109.247V109.814C93.1471 110.261 93.1631 112.762 93.1631 112.957C93.1631 113.357 93.3111 113.434 93.5191 113.434H94.3911C94.4811 113.434 94.5251 113.464 94.5251 113.522V113.924C94.5251 114.015 94.4971 114.045 94.4071 114.045C94.2591 114.045 93.6671 113.999 92.1251 113.999C90.6731 113.999 90.1091 114.045 89.8871 114.045C89.8291 114.045 89.7991 114.015 89.7991 113.91V113.508C89.7991 113.448 89.8431 113.434 89.9031 113.434H90.4231C90.7331 113.434 90.8531 113.373 90.8651 113.136C90.8811 112.838 90.9251 110.96 90.9251 108.398V107.355C90.9251 106.699 90.8951 104.6 90.8951 104.449C90.8951 104.168 90.6891 104.019 90.2871 104.019H89.6811C89.5931 104.019 89.5471 103.989 89.5471 103.928V103.496C89.5471 103.438 89.5931 103.407 89.6511 103.407C89.8131 103.407 90.3771 103.452 92.1851 103.452C92.3911 103.452 96.2891 103.407 97.0011 103.407C97.3271 103.407 97.6531 103.347 97.7711 103.347C97.8451 103.347 97.8891 103.438 97.9191 103.601L98.4971 106.03C98.5111 106.09 98.4971 106.134 98.4511 106.148L98.1551 106.311C98.0811 106.343 98.0511 106.311 97.9471 106.162C97.7571 105.911 97.3991 105.432 96.7931 104.793C96.5251 104.495 96.1251 104.212 95.7711 104.123C95.3991 104.019 93.8291 103.973 93.1631 103.973C93.1631 104.168 93.1471 107.132 93.1471 108.041V108.74Z" fill="#FEFEFE"/>
</g>
<path fill-rule="evenodd" clip-rule="evenodd" d="M11.1374 122.461C11.2854 122.414 11.2854 122.298 11.2954 122.068C11.3014 121.879 11.3014 121.369 11.3014 120.93C11.3014 120.436 11.2954 119.842 11.2894 119.772C11.2794 119.643 11.2554 119.587 11.1594 119.553C11.0934 119.527 10.9854 119.517 10.8794 119.507C10.8634 119.497 10.8694 119.434 10.8794 119.43C11.0414 119.43 11.3054 119.444 11.4634 119.444H13.5694C13.7714 119.444 14.0154 119.43 14.1014 119.43C14.1074 119.45 14.1114 119.486 14.1014 119.501C14.0074 119.523 13.9294 119.531 13.8794 119.553C13.7654 119.587 13.7274 119.629 13.7214 119.822C13.7174 119.971 13.7054 120.42 13.7054 121.001C13.7054 121.445 13.7014 122.072 13.7214 122.225C13.7314 122.364 13.7534 122.424 13.8534 122.461C13.9154 122.487 13.9854 122.497 14.1334 122.511C14.1374 122.523 14.1374 122.573 14.1214 122.587C14.0194 122.587 13.7974 122.573 13.5694 122.573C13.3374 122.573 13.1174 122.583 12.9974 122.587C12.9854 122.583 12.9854 122.517 12.9974 122.511C13.0874 122.503 13.2234 122.481 13.2954 122.45C13.3714 122.414 13.3814 122.338 13.3874 122.215C13.3974 122.056 13.3914 121.17 13.3914 120.95C13.3914 120.715 13.3974 119.696 13.3814 119.617C13.3754 119.597 13.3494 119.583 13.3454 119.583C13.2854 119.571 11.7274 119.577 11.6454 119.583C11.6354 119.583 11.6254 119.609 11.6254 119.613C11.6154 119.69 11.6154 120.725 11.6154 120.96C11.6154 121.17 11.6194 121.94 11.6254 122.145C11.6294 122.318 11.6414 122.424 11.7614 122.461C11.8334 122.481 11.8834 122.491 12.0314 122.511C12.0314 122.533 12.0354 122.579 12.0214 122.587C11.7814 122.583 11.6674 122.573 11.4734 122.573C11.2794 122.573 10.9974 122.583 10.8794 122.587C10.8734 122.573 10.8734 122.527 10.8794 122.511C10.9854 122.497 11.0774 122.481 11.1374 122.461" fill="#FEFEFE"/>
<path fill-rule="evenodd" clip-rule="evenodd" d="M15.5534 119.43C15.6654 119.43 15.8114 119.446 16.0914 119.446H17.0714C17.2594 119.446 17.5074 119.44 17.5834 119.43C17.5894 119.43 17.5974 119.44 17.5974 119.446C17.5534 119.613 17.5214 119.924 17.5074 120.093C17.4974 120.103 17.4414 120.107 17.4274 120.099C17.4174 119.955 17.4014 119.864 17.3854 119.798C17.3494 119.675 17.3154 119.593 17.0954 119.583C16.9634 119.578 16.4014 119.572 16.3194 119.583C16.2834 119.589 16.2674 119.629 16.2674 119.655C16.2594 119.838 16.2534 120.807 16.2594 120.853C16.2594 120.873 16.2634 120.896 16.2734 120.896C16.4014 120.904 16.9374 120.9 17.0874 120.89C17.2494 120.88 17.2774 120.797 17.3034 120.721C17.3254 120.664 17.3414 120.598 17.3534 120.532C17.3694 120.522 17.4354 120.526 17.4414 120.538C17.4274 120.618 17.4054 120.827 17.4054 120.99C17.4054 121.211 17.4174 121.322 17.4174 121.398C17.4014 121.42 17.3414 121.424 17.3294 121.404C17.3194 121.328 17.3154 121.288 17.2994 121.231C17.2834 121.169 17.2634 121.063 17.0914 121.052C16.9374 121.042 16.4174 121.036 16.2774 121.048C16.2674 121.048 16.2594 121.083 16.2594 121.089C16.2534 121.175 16.2594 121.935 16.2674 122.237C16.2734 122.37 16.3414 122.41 16.3914 122.42C16.4934 122.44 16.6754 122.45 17.0354 122.45C17.3454 122.45 17.4054 122.384 17.4714 122.319C17.5474 122.251 17.6654 122.058 17.7454 121.859C17.7574 121.855 17.8014 121.879 17.8114 121.895C17.7854 122.058 17.6594 122.436 17.6034 122.532C17.5734 122.583 17.5574 122.589 17.2994 122.589C17.0454 122.589 16.8874 122.573 16.0954 122.573C15.7574 122.573 15.6334 122.589 15.4414 122.589C15.4294 122.579 15.4274 122.528 15.4414 122.512C15.5694 122.502 15.6714 122.496 15.7614 122.472C15.8834 122.44 15.9254 122.384 15.9374 122.175C15.9434 122.098 15.9494 121.497 15.9494 120.896C15.9494 120.389 15.9434 119.898 15.9374 119.822C15.9274 119.619 15.9094 119.572 15.7814 119.542C15.7214 119.526 15.6494 119.512 15.5474 119.502C15.5314 119.49 15.5374 119.44 15.5534 119.43" fill="#FEFEFE"/>
<path fill-rule="evenodd" clip-rule="evenodd" d="M20.0046 121.165C20.0046 121.161 20.0146 121.138 20.0186 121.138C20.0746 121.148 20.1286 121.161 20.2466 121.161C20.4146 121.161 20.5166 121.134 20.6226 121.074C20.8766 120.925 20.9386 120.674 20.9386 120.388C20.9386 119.924 20.7226 119.542 20.0586 119.542C20.0046 119.542 19.8906 119.548 19.8566 119.562C19.8406 119.568 19.8246 119.588 19.8206 119.628C19.8146 119.751 19.8046 120.133 19.8046 120.829C19.8046 121.161 19.7906 121.742 19.8046 122.144C19.8106 122.425 19.8566 122.445 20.0146 122.476C20.0846 122.492 20.1766 122.502 20.2466 122.512C20.2686 122.522 20.2626 122.584 20.2526 122.588C20.1266 122.588 19.8306 122.574 19.6486 122.574C19.4246 122.574 19.1506 122.588 19.0646 122.588C19.0486 122.578 19.0446 122.522 19.0586 122.512C19.1546 122.502 19.2366 122.492 19.2966 122.476C19.4046 122.445 19.4606 122.456 19.4746 122.166C19.4846 122.011 19.4966 121.732 19.4966 120.976C19.4966 120.664 19.5006 119.976 19.4906 119.833C19.4806 119.658 19.4606 119.578 19.3326 119.548C19.2686 119.532 19.1866 119.516 19.0806 119.506C19.0746 119.49 19.0846 119.435 19.0946 119.429C19.1806 119.429 19.4086 119.445 19.6426 119.445C19.8866 119.445 20.0526 119.435 20.3326 119.435C20.5106 119.435 20.7986 119.475 20.9826 119.622C21.1406 119.751 21.2786 119.95 21.2826 120.272C21.2886 120.746 21.0246 121.028 20.7546 121.161C20.5986 121.231 20.4566 121.267 20.2726 121.267C20.1966 121.267 20.1046 121.261 20.0486 121.241C20.0286 121.221 20.0046 121.175 20.0046 121.165" fill="#FEFEFE"/>
<path fill-rule="evenodd" clip-rule="evenodd" d="M22.4674 119.43C22.5634 119.43 22.7654 119.446 23.0514 119.446C23.3254 119.446 23.4354 119.434 23.5734 119.43C23.5854 119.446 23.5854 119.49 23.5734 119.506C23.5114 119.512 23.4074 119.532 23.3554 119.548C23.2554 119.578 23.2194 119.619 23.2134 119.766C23.2074 119.848 23.2034 120.737 23.2034 120.936C23.2034 121.981 23.1974 122.273 23.2194 122.36C23.2294 122.404 23.2594 122.41 23.2694 122.414C23.3254 122.426 24.2794 122.43 24.3414 122.426C24.3754 122.42 24.4114 122.404 24.4174 122.36C24.4314 122.164 24.4314 121.368 24.4314 120.93C24.4314 120.435 24.4314 119.834 24.4254 119.761C24.4174 119.635 24.3974 119.603 24.3194 119.566C24.2554 119.536 24.1874 119.526 24.0554 119.506C24.0454 119.486 24.0454 119.446 24.0554 119.43C24.1274 119.43 24.2334 119.446 24.5934 119.446C24.8674 119.446 24.9754 119.434 25.1154 119.43C25.1274 119.45 25.1214 119.49 25.1114 119.506C25.0514 119.512 24.9394 119.526 24.8894 119.542C24.7874 119.572 24.7614 119.629 24.7574 119.776C24.7474 119.858 24.7414 120.737 24.7414 120.936C24.7414 121.981 24.7474 122.227 24.7574 122.349C24.7574 122.37 24.7754 122.414 24.8134 122.414C25.0014 122.426 25.8514 122.436 25.9274 122.414C25.9434 122.41 25.9534 122.396 25.9594 122.374C25.9754 122.257 25.9694 121.975 25.9694 121.022C25.9694 120.781 25.9634 119.808 25.9594 119.725C25.9534 119.649 25.9194 119.583 25.8414 119.556C25.7754 119.532 25.6894 119.522 25.5974 119.506C25.5894 119.49 25.5894 119.446 25.5974 119.43C25.6954 119.43 25.9134 119.446 26.1474 119.446C26.3494 119.446 26.5974 119.43 26.6794 119.43C26.6894 119.44 26.6894 119.49 26.6794 119.506C26.5834 119.526 26.4934 119.536 26.4354 119.556C26.3314 119.593 26.3054 119.649 26.2994 119.844C26.2934 119.985 26.2834 120.419 26.2834 121.002C26.2834 121.863 26.2834 122.068 26.2934 122.247C26.3054 122.384 26.3314 122.426 26.4254 122.46C26.4934 122.486 26.6074 122.502 26.7054 122.512C26.7154 122.528 26.7154 122.573 26.6954 122.589C26.4934 122.589 26.3694 122.573 26.1814 122.573H23.0614C22.8674 122.573 22.5794 122.583 22.4614 122.589C22.4514 122.583 22.4514 122.522 22.4614 122.512C22.5694 122.496 22.6654 122.482 22.7254 122.46C22.8734 122.414 22.8674 122.327 22.8774 122.098C22.8834 121.909 22.8894 121.368 22.8894 120.93C22.8894 120.435 22.8834 119.844 22.8774 119.772C22.8674 119.643 22.8474 119.603 22.7714 119.566C22.7054 119.536 22.5754 119.522 22.4674 119.512C22.4514 119.502 22.4574 119.44 22.4674 119.43" fill="#FEFEFE"/>
<path fill-rule="evenodd" clip-rule="evenodd" d="M29.4517 119.843C29.3717 120.056 29.1177 120.818 29.0417 121.042C29.0417 121.062 29.0457 121.074 29.0617 121.078C29.1057 121.084 29.2337 121.084 29.5077 121.084C29.6197 121.084 29.8177 121.084 29.8417 121.078C29.8477 121.078 29.8577 121.062 29.8517 121.042C29.7317 120.654 29.5477 120.062 29.4717 119.839C29.4677 119.839 29.4517 119.839 29.4517 119.843M28.4877 122.047C28.7977 121.313 29.2537 120.002 29.3657 119.694C29.4017 119.592 29.4257 119.507 29.4357 119.439C29.4417 119.439 29.4837 119.445 29.5537 119.445C29.6297 119.445 29.6637 119.439 29.6697 119.439C29.6797 119.485 29.6997 119.568 29.7317 119.664C29.8237 119.92 30.4097 121.778 30.5637 122.154C30.6957 122.455 30.7157 122.471 31.0557 122.512C31.0657 122.528 31.0617 122.578 31.0457 122.588C30.9177 122.584 30.6297 122.574 30.5117 122.574C30.3917 122.574 30.0557 122.578 29.9497 122.588C29.9437 122.578 29.9397 122.524 29.9497 122.512C30.0517 122.497 30.1317 122.485 30.2037 122.461C30.2837 122.425 30.2837 122.389 30.2637 122.319C30.2077 122.099 30.0157 121.552 29.9177 121.271C29.9177 121.271 29.8897 121.247 29.8837 121.247C29.8317 121.241 29.7257 121.241 29.4097 121.241C29.0717 121.241 29.0457 121.241 28.9937 121.247C28.9797 121.247 28.9597 121.267 28.9537 121.283C28.8517 121.548 28.6457 122.109 28.6237 122.256C28.6097 122.349 28.6037 122.431 28.7717 122.471C28.8317 122.485 28.8777 122.497 28.9857 122.512C28.9937 122.524 28.9917 122.578 28.9797 122.588C28.8897 122.588 28.6237 122.574 28.4017 122.574C28.1537 122.574 27.9997 122.588 27.9237 122.588C27.9097 122.584 27.9097 122.524 27.9237 122.512C28.2797 122.465 28.3297 122.425 28.4877 122.047" fill="#FEFEFE"/>
<path fill-rule="evenodd" clip-rule="evenodd" d="M34.1608 122.048C34.4708 121.314 34.9328 120.007 35.0388 119.711C35.0748 119.608 35.1008 119.506 35.1108 119.439C35.1168 119.439 35.1568 119.445 35.2268 119.445C35.3028 119.445 35.3388 119.439 35.3448 119.439C35.3548 119.486 35.3728 119.582 35.4048 119.681C35.4968 119.954 36.0848 121.778 36.2368 122.154C36.3688 122.456 36.3888 122.472 36.7288 122.512C36.7408 122.528 36.7288 122.584 36.7188 122.588C36.5928 122.584 36.3028 122.574 36.1868 122.574C36.0648 122.574 35.7248 122.578 35.6188 122.588C35.6148 122.578 35.6088 122.522 35.6188 122.512C35.7188 122.498 35.8008 122.486 35.8708 122.462C35.9528 122.426 35.9528 122.389 35.9328 122.319C35.8368 121.975 35.3348 120.445 35.1408 119.86C35.1408 119.854 35.1248 119.86 35.1208 119.86C34.9828 120.272 34.4208 121.828 34.3128 122.14C34.2368 122.353 34.2868 122.436 34.4408 122.472C34.5008 122.486 34.5228 122.492 34.6548 122.512C34.6648 122.522 34.6588 122.578 34.6488 122.588C34.5568 122.588 34.2988 122.574 34.0748 122.574C33.8268 122.574 33.6748 122.588 33.5988 122.588C33.5888 122.584 33.5888 122.516 33.5988 122.512C33.9528 122.466 34.0048 122.426 34.1608 122.048" fill="#FEFEFE"/>
<path fill-rule="evenodd" clip-rule="evenodd" d="M37.9615 119.43C38.0535 119.43 38.3175 119.446 38.5495 119.446C38.7635 119.446 38.9155 119.43 39.0375 119.43C39.0475 119.446 39.0535 119.49 39.0415 119.506C38.9655 119.516 38.8795 119.526 38.8355 119.536C38.7235 119.566 38.7015 119.643 38.6915 119.802C38.6815 120.017 38.6755 120.526 38.6755 120.972C38.6755 121.451 38.6815 122.018 38.6875 122.187C38.6975 122.343 38.7135 122.43 38.8395 122.466C38.9115 122.486 39.0035 122.502 39.0975 122.512C39.1135 122.528 39.1035 122.579 39.0915 122.589C38.9875 122.589 38.8035 122.573 38.5815 122.573C38.3335 122.573 38.2315 122.589 37.9675 122.589C37.9515 122.573 37.9555 122.522 37.9675 122.512C38.0375 122.506 38.1335 122.49 38.1935 122.476C38.3215 122.45 38.3415 122.374 38.3515 122.257C38.3615 122.134 38.3675 121.252 38.3675 120.827C38.3675 120.445 38.3675 120.047 38.3575 119.812C38.3415 119.689 38.3455 119.583 38.2315 119.552C38.1735 119.536 38.0795 119.522 37.9555 119.506C37.9415 119.496 37.9515 119.44 37.9615 119.43" fill="#FEFEFE"/>
<path fill-rule="evenodd" clip-rule="evenodd" d="M40.4479 119.43C40.6099 119.43 40.8739 119.446 41.0319 119.446C41.3059 119.446 41.4159 119.434 41.5539 119.43C41.5639 119.446 41.5639 119.496 41.5499 119.506C41.4879 119.512 41.3919 119.526 41.3399 119.542C41.2399 119.572 41.1979 119.597 41.1939 119.766C41.1819 119.971 41.1819 120.316 41.1819 120.849C41.1819 120.869 41.1939 120.884 41.2039 120.89C41.2139 120.896 41.2839 120.9 42.1479 120.9C42.6499 120.9 42.9439 120.9 42.9899 120.896C42.9999 120.896 43.0099 120.873 43.0099 120.869C43.0099 120.602 43.0099 119.89 42.9999 119.731C42.9939 119.635 42.9699 119.578 42.8999 119.552C42.8079 119.526 42.7319 119.516 42.6399 119.506C42.6239 119.49 42.6239 119.446 42.6399 119.43C42.7379 119.43 42.9499 119.446 43.1819 119.446C43.3919 119.446 43.6399 119.43 43.7219 119.43C43.7319 119.446 43.7379 119.49 43.7219 119.506C43.6299 119.522 43.5479 119.532 43.4919 119.552C43.3859 119.589 43.3459 119.623 43.3399 119.844C43.3339 119.985 43.3239 120.419 43.3239 121.002C43.3239 121.445 43.3299 122.078 43.3399 122.231C43.3499 122.37 43.3759 122.426 43.4719 122.46C43.5379 122.486 43.6039 122.496 43.7499 122.512C43.7619 122.528 43.7619 122.573 43.7399 122.589C43.5379 122.589 43.4159 122.573 43.1819 122.573C42.9499 122.573 42.7379 122.583 42.6139 122.589C42.5979 122.569 42.6039 122.528 42.6139 122.512C42.6999 122.502 42.7719 122.496 42.8679 122.472C42.9759 122.44 42.9999 122.4 43.0039 122.217C43.0099 122.088 43.0099 121.414 43.0099 121.099C43.0099 121.079 42.9999 121.063 42.9899 121.063C42.9179 121.058 42.4059 121.058 42.1379 121.058C41.7819 121.058 41.2579 121.058 41.2039 121.063C41.1939 121.063 41.1819 121.089 41.1819 121.093C41.1819 121.354 41.1879 122.068 41.1939 122.144C41.2079 122.319 41.1979 122.42 41.3219 122.456C41.3919 122.476 41.4319 122.49 41.5999 122.512C41.6099 122.528 41.5999 122.583 41.5839 122.589C41.4259 122.583 41.2339 122.573 41.0419 122.573C40.8479 122.573 40.5639 122.583 40.4479 122.589C40.4319 122.573 40.4319 122.528 40.4479 122.512C40.5539 122.496 40.6459 122.482 40.7059 122.46C40.8539 122.414 40.8539 122.297 40.8639 122.068C40.8679 121.879 40.8679 121.368 40.8679 120.93C40.8679 120.435 40.8639 119.844 40.8579 119.772C40.8479 119.619 40.8039 119.572 40.7279 119.552C40.6519 119.532 40.5739 119.526 40.4479 119.506C40.4319 119.49 40.4359 119.446 40.4479 119.43" fill="#FEFEFE"/>
<path fill-rule="evenodd" clip-rule="evenodd" d="M45.1042 119.43C45.1962 119.43 45.4602 119.446 45.6942 119.446C45.9062 119.446 46.0602 119.43 46.1802 119.43C46.1902 119.446 46.1962 119.49 46.1862 119.506C46.1102 119.516 46.0242 119.526 45.9782 119.536C45.8662 119.566 45.8462 119.643 45.8342 119.802C45.8242 120.017 45.8202 120.526 45.8202 120.972C45.8202 121.451 45.8242 122.018 45.8302 122.187C45.8402 122.343 45.8562 122.43 45.9822 122.466C46.0542 122.486 46.1462 122.502 46.2402 122.512C46.2562 122.528 46.2462 122.579 46.2362 122.589C46.1302 122.589 45.9482 122.573 45.7242 122.573C45.4762 122.573 45.3742 122.589 45.1102 122.589C45.0942 122.573 45.1002 122.522 45.1102 122.512C45.1802 122.506 45.2782 122.49 45.3382 122.476C45.4662 122.45 45.4842 122.374 45.4942 122.257C45.5062 122.134 45.5102 121.252 45.5102 120.827C45.5102 120.445 45.5102 120.047 45.5002 119.812C45.4842 119.689 45.4902 119.583 45.3742 119.552C45.3162 119.536 45.2222 119.522 45.1002 119.506C45.0842 119.496 45.0942 119.44 45.1042 119.43" fill="#FEFEFE"/>
<path fill-rule="evenodd" clip-rule="evenodd" d="M49.2174 119.542C48.8474 119.542 48.5694 119.771 48.5694 120.205C48.5694 120.945 49.1874 121.016 49.5854 121.002C49.5934 121.002 49.6094 120.986 49.6094 120.976C49.6094 120.64 49.6094 119.813 49.5934 119.638C49.5934 119.618 49.5734 119.588 49.5434 119.578C49.4834 119.558 49.3954 119.542 49.2174 119.542M50.1114 119.542C50.0134 119.562 49.9334 119.608 49.9274 119.737C49.9194 119.92 49.9134 120.746 49.9134 121.042C49.9134 121.313 49.9254 122.043 49.9274 122.18C49.9334 122.369 49.9794 122.446 50.1014 122.476C50.1574 122.492 50.2594 122.502 50.3314 122.512C50.3414 122.516 50.3354 122.584 50.3254 122.588C50.2494 122.588 49.9634 122.574 49.7594 122.574C49.5474 122.574 49.2934 122.588 49.2334 122.588C49.2294 122.578 49.2234 122.522 49.2334 122.512C49.3594 122.498 49.4014 122.486 49.4674 122.472C49.5594 122.439 49.5934 122.399 49.6034 122.18C49.6134 121.991 49.6094 121.42 49.6094 121.148C49.6094 121.138 49.5974 121.114 49.5854 121.114C49.4974 121.114 49.4874 121.114 49.4074 121.124C49.2334 121.144 49.1274 121.247 49.0554 121.34C48.8234 121.639 48.5034 122.13 48.3094 122.339C48.2174 122.446 48.1534 122.492 48.0774 122.522C47.9274 122.588 47.6654 122.614 47.4874 122.604C47.4774 122.598 47.4714 122.542 47.4774 122.532C47.7114 122.512 47.7474 122.532 48.0014 122.256C48.2334 122.001 48.7314 121.217 48.9534 121.108C48.9594 121.104 48.9654 121.098 48.9534 121.088C48.5534 120.992 48.2294 120.706 48.2294 120.256C48.2294 119.797 48.5634 119.435 49.2554 119.435C49.4314 119.435 49.6954 119.445 49.8514 119.445C49.9854 119.445 50.1914 119.429 50.3154 119.429C50.3254 119.435 50.3314 119.498 50.3154 119.506C50.2494 119.516 50.1814 119.528 50.1114 119.542" fill="#FEFEFE"/>
<path fill-rule="evenodd" clip-rule="evenodd" d="M53.6902 122.461C53.8362 122.414 53.8362 122.298 53.8462 122.068C53.8522 121.879 53.8522 121.369 53.8522 120.93C53.8522 120.436 53.8462 119.842 53.8422 119.772C53.8302 119.643 53.8062 119.587 53.7102 119.553C53.6442 119.527 53.5382 119.517 53.4302 119.507C53.4142 119.497 53.4202 119.434 53.4302 119.43C53.5922 119.43 53.8562 119.444 54.0142 119.444H56.1202C56.3222 119.444 56.5662 119.43 56.6522 119.43C56.6582 119.45 56.6622 119.486 56.6522 119.501C56.5582 119.523 56.4822 119.531 56.4302 119.553C56.3182 119.587 56.2782 119.629 56.2722 119.822C56.2682 119.971 56.2582 120.42 56.2582 121.001C56.2582 121.445 56.2522 122.072 56.2722 122.225C56.2842 122.364 56.3042 122.424 56.4042 122.461C56.4662 122.487 56.5362 122.497 56.6842 122.511C56.6882 122.523 56.6882 122.573 56.6742 122.587C56.5722 122.587 56.3482 122.573 56.1202 122.573C55.8882 122.573 55.6682 122.583 55.5482 122.587C55.5382 122.583 55.5382 122.517 55.5482 122.511C55.6402 122.503 55.7762 122.481 55.8462 122.45C55.9222 122.414 55.9322 122.338 55.9382 122.215C55.9482 122.056 55.9422 121.17 55.9422 120.95C55.9422 120.715 55.9482 119.696 55.9322 119.617C55.9282 119.597 55.9022 119.583 55.8982 119.583C55.8362 119.571 54.2782 119.577 54.1982 119.583C54.1862 119.583 54.1762 119.609 54.1762 119.613C54.1662 119.69 54.1662 120.725 54.1662 120.96C54.1662 121.17 54.1722 121.94 54.1762 122.145C54.1822 122.318 54.1922 122.424 54.3142 122.461C54.3862 122.481 54.4362 122.491 54.5822 122.511C54.5822 122.533 54.5882 122.579 54.5722 122.587C54.3342 122.583 54.2182 122.573 54.0242 122.573C53.8302 122.573 53.5482 122.583 53.4302 122.587C53.4242 122.573 53.4242 122.527 53.4302 122.511C53.5382 122.497 53.6282 122.481 53.6902 122.461" fill="#FEFEFE"/>
<path fill-rule="evenodd" clip-rule="evenodd" d="M58.1042 119.43C58.2162 119.43 58.3642 119.446 58.6422 119.446H59.6222C59.8102 119.446 60.0602 119.44 60.1362 119.43C60.1402 119.43 60.1482 119.44 60.1482 119.446C60.1042 119.613 60.0722 119.924 60.0602 120.093C60.0482 120.103 59.9922 120.107 59.9782 120.099C59.9682 119.955 59.9522 119.864 59.9362 119.798C59.9002 119.675 59.8662 119.593 59.6462 119.583C59.5142 119.578 58.9522 119.572 58.8722 119.583C58.8342 119.589 58.8182 119.629 58.8182 119.655C58.8102 119.838 58.8062 120.807 58.8102 120.853C58.8102 120.873 58.8142 120.896 58.8242 120.896C58.9522 120.904 59.4902 120.9 59.6382 120.89C59.8002 120.88 59.8302 120.797 59.8562 120.721C59.8762 120.664 59.8922 120.598 59.9062 120.532C59.9202 120.522 59.9862 120.526 59.9922 120.538C59.9782 120.618 59.9582 120.827 59.9582 120.99C59.9582 121.211 59.9682 121.322 59.9682 121.398C59.9522 121.42 59.8922 121.424 59.8822 121.404C59.8702 121.328 59.8662 121.288 59.8502 121.231C59.8342 121.169 59.8142 121.063 59.6422 121.052C59.4902 121.042 58.9682 121.036 58.8302 121.048C58.8182 121.048 58.8102 121.083 58.8102 121.089C58.8062 121.175 58.8102 121.935 58.8182 122.237C58.8242 122.37 58.8922 122.41 58.9422 122.42C59.0442 122.44 59.2262 122.45 59.5862 122.45C59.8962 122.45 59.9582 122.384 60.0222 122.319C60.0982 122.251 60.2162 122.058 60.2982 121.859C60.3082 121.855 60.3522 121.879 60.3642 121.895C60.3382 122.058 60.2102 122.436 60.1542 122.532C60.1242 122.583 60.1102 122.589 59.8502 122.589C59.5962 122.589 59.4402 122.573 58.6462 122.573C58.3082 122.573 58.1862 122.589 57.9922 122.589C57.9822 122.579 57.9782 122.528 57.9922 122.512C58.1202 122.502 58.2222 122.496 58.3122 122.472C58.4342 122.44 58.4762 122.384 58.4902 122.175C58.4942 122.098 58.5002 121.497 58.5002 120.896C58.5002 120.389 58.4942 119.898 58.4902 119.822C58.4782 119.619 58.4602 119.572 58.3322 119.542C58.2722 119.526 58.2002 119.512 58.0982 119.502C58.0842 119.49 58.0882 119.44 58.1042 119.43" fill="#FEFEFE"/>
<path fill-rule="evenodd" clip-rule="evenodd" d="M61.5651 119.43C61.6571 119.43 61.8231 119.446 62.0991 119.446C62.3311 119.446 62.4991 119.43 62.5651 119.43C62.5751 119.44 62.5751 119.49 62.5651 119.506C62.3211 119.548 62.2911 119.589 62.2791 119.689C62.2711 119.792 62.2751 120.14 62.2791 120.329C62.2951 120.94 62.7211 120.99 63.0251 120.99C63.2151 120.99 63.4471 120.95 63.6151 120.863C63.6191 120.857 63.6251 120.843 63.6251 120.837C63.6251 120.495 63.6311 119.94 63.6151 119.745C63.6071 119.609 63.5751 119.572 63.4531 119.536C63.3911 119.522 63.3411 119.516 63.2551 119.506C63.2451 119.496 63.2451 119.44 63.2551 119.43C63.4031 119.43 63.5551 119.446 63.7931 119.446C64.1031 119.446 64.2351 119.43 64.3311 119.43C64.3471 119.44 64.3471 119.496 64.3371 119.506C64.2191 119.526 64.1691 119.536 64.1071 119.552C63.9971 119.583 63.9591 119.623 63.9551 119.802C63.9491 120.037 63.9391 120.588 63.9391 120.972C63.9391 120.972 63.9451 122.064 63.9551 122.263C63.9651 122.37 63.9911 122.44 64.1271 122.476C64.1891 122.49 64.2651 122.502 64.3651 122.512C64.3771 122.528 64.3711 122.579 64.3571 122.589C64.2191 122.589 64.0931 122.573 63.8391 122.573C63.5191 122.573 63.4031 122.589 63.2351 122.589C63.2251 122.583 63.2251 122.512 63.2351 122.512C63.3051 122.506 63.3871 122.496 63.4571 122.482C63.6011 122.45 63.6151 122.38 63.6191 122.088C63.6251 121.823 63.6251 121.268 63.6251 120.972C63.6251 120.966 63.6151 120.946 63.6091 120.95C63.3771 121.079 63.0831 121.169 62.8191 121.169C62.5151 121.169 62.2611 121.113 62.0831 120.88C62.0071 120.777 61.9551 120.618 61.9551 120.312C61.9551 120.312 61.9491 119.93 61.9491 119.808C61.9491 119.659 61.9211 119.572 61.7731 119.536C61.7111 119.522 61.6571 119.516 61.5591 119.506C61.5491 119.486 61.5491 119.45 61.5651 119.43" fill="#FEFEFE"/>
<path fill-rule="evenodd" clip-rule="evenodd" d="M65.7857 119.43C65.8997 119.43 66.0457 119.446 66.3257 119.446H67.3037C67.4937 119.446 67.7417 119.44 67.8177 119.43C67.8217 119.43 67.8317 119.44 67.8317 119.446C67.7857 119.613 67.7557 119.924 67.7417 120.093C67.7317 120.103 67.6737 120.107 67.6597 120.099C67.6497 119.955 67.6337 119.864 67.6177 119.798C67.5817 119.675 67.5477 119.593 67.3277 119.583C67.1977 119.578 66.6337 119.572 66.5537 119.583C66.5177 119.589 66.5017 119.629 66.5017 119.655C66.4937 119.838 66.4877 120.807 66.4937 120.853C66.4937 120.873 66.4957 120.896 66.5057 120.896C66.6337 120.904 67.1717 120.9 67.3197 120.89C67.4817 120.88 67.5117 120.797 67.5377 120.721C67.5577 120.664 67.5737 120.598 67.5877 120.532C67.6037 120.522 67.6697 120.526 67.6737 120.538C67.6597 120.618 67.6397 120.827 67.6397 120.99C67.6397 121.211 67.6497 121.322 67.6497 121.398C67.6337 121.42 67.5737 121.424 67.5637 121.404C67.5537 121.328 67.5477 121.288 67.5317 121.231C67.5177 121.169 67.4957 121.063 67.3257 121.052C67.1717 121.042 66.6497 121.036 66.5117 121.048C66.5017 121.048 66.4937 121.083 66.4937 121.089C66.4877 121.175 66.4937 121.935 66.5017 122.237C66.5057 122.37 66.5737 122.41 66.6237 122.42C66.7257 122.44 66.9097 122.45 67.2677 122.45C67.5777 122.45 67.6397 122.384 67.7057 122.319C67.7817 122.251 67.8977 122.058 67.9797 121.859C67.9897 121.855 68.0357 121.879 68.0457 121.895C68.0197 122.058 67.8937 122.436 67.8357 122.532C67.8077 122.583 67.7917 122.589 67.5317 122.589C67.2777 122.589 67.1217 122.573 66.3277 122.573C65.9897 122.573 65.8677 122.589 65.6737 122.589C65.6637 122.579 65.6597 122.528 65.6737 122.512C65.8017 122.502 65.9037 122.496 65.9937 122.472C66.1157 122.44 66.1577 122.384 66.1717 122.175C66.1757 122.098 66.1817 121.497 66.1817 120.896C66.1817 120.389 66.1757 119.898 66.1717 119.822C66.1617 119.619 66.1417 119.572 66.0137 119.542C65.9537 119.526 65.8837 119.512 65.7817 119.502C65.7657 119.49 65.7717 119.44 65.7857 119.43" fill="#FEFEFE"/>
<path fill-rule="evenodd" clip-rule="evenodd" d="M70.2369 121.165C70.2369 121.161 70.2469 121.138 70.2529 121.138C70.3069 121.148 70.3629 121.161 70.4809 121.161C70.6469 121.161 70.7489 121.134 70.8569 121.074C71.1109 120.925 71.1709 120.674 71.1709 120.388C71.1709 119.924 70.9569 119.542 70.2929 119.542C70.2369 119.542 70.1249 119.548 70.0909 119.562C70.0749 119.568 70.0589 119.588 70.0529 119.628C70.0489 119.751 70.0389 120.133 70.0389 120.829C70.0389 121.161 70.0249 121.742 70.0389 122.144C70.0429 122.425 70.0909 122.445 70.2469 122.476C70.3189 122.492 70.4089 122.502 70.4809 122.512C70.5009 122.522 70.4969 122.584 70.4849 122.588C70.3589 122.588 70.0649 122.574 69.8809 122.574C69.6589 122.574 69.3829 122.588 69.2969 122.588C69.2809 122.578 69.2789 122.522 69.2929 122.512C69.3889 122.502 69.4709 122.492 69.5309 122.476C69.6369 122.445 69.6949 122.456 69.7089 122.166C69.7189 122.011 69.7289 121.732 69.7289 120.976C69.7289 120.664 69.7349 119.976 69.7249 119.833C69.7129 119.658 69.6949 119.578 69.5669 119.548C69.5009 119.532 69.4209 119.516 69.3129 119.506C69.3069 119.49 69.3189 119.435 69.3289 119.429C69.4149 119.429 69.6429 119.445 69.8749 119.445C70.1189 119.445 70.2869 119.435 70.5669 119.435C70.7449 119.435 71.0329 119.475 71.2169 119.622C71.3729 119.751 71.5109 119.95 71.5169 120.272C71.5229 120.746 71.2569 121.028 70.9889 121.161C70.8309 121.231 70.6889 121.267 70.5069 121.267C70.4309 121.267 70.3389 121.261 70.2809 121.241C70.2629 121.221 70.2369 121.175 70.2369 121.165" fill="#FEFEFE"/>
<path fill-rule="evenodd" clip-rule="evenodd" d="M75.1842 119.588C75.0162 119.505 74.8182 119.471 74.5402 119.471C73.7362 119.471 73.2662 120.042 73.2662 120.935C73.2662 121.914 73.8242 122.518 74.7122 122.518C74.8602 122.518 75.1182 122.502 75.3202 122.309C75.4582 122.176 75.5342 122.053 75.6502 121.85C75.6662 121.844 75.7242 121.868 75.7242 121.89C75.6502 122.154 75.4482 122.512 75.3422 122.558C75.2002 122.604 74.9202 122.664 74.6162 122.664C73.5342 122.664 72.8942 122.053 72.8942 120.981C72.8942 120.426 73.1342 119.889 73.6882 119.592C73.9562 119.445 74.2862 119.353 74.7242 119.353C75.1182 119.353 75.4222 119.435 75.6502 119.455C75.6162 119.604 75.5642 119.976 75.5582 120.175C75.5502 120.189 75.4702 120.205 75.4702 120.185C75.4182 119.761 75.3422 119.664 75.1842 119.588" fill="#FEFEFE"/>
<path fill-rule="evenodd" clip-rule="evenodd" d="M78.9341 121.736C78.9341 121.191 78.6441 120.91 78.0141 120.91C77.8481 120.91 77.8381 120.914 77.7821 120.92C77.7721 120.92 77.7601 120.946 77.7601 120.956C77.7601 121.272 77.7601 122.058 77.7721 122.251C77.7761 122.297 77.7861 122.344 77.8221 122.374C77.9341 122.456 78.1121 122.476 78.2321 122.476C78.7401 122.476 78.9341 122.128 78.9341 121.736M77.3141 122.46C77.4161 122.436 77.4261 122.374 77.4421 122.191C77.4521 122.028 77.4581 121.676 77.4581 120.982C77.4581 120.196 77.4581 119.92 77.4461 119.746C77.4361 119.609 77.3941 119.567 77.3181 119.548C77.2281 119.522 77.1161 119.512 77.0701 119.506C77.0601 119.496 77.0661 119.44 77.0761 119.43C77.2321 119.434 77.4001 119.446 77.6041 119.446C77.8161 119.446 78.0041 119.426 78.1281 119.426C78.1381 119.44 78.1381 119.486 78.1281 119.502C78.0521 119.512 77.9541 119.526 77.9081 119.536C77.7981 119.567 77.7761 119.623 77.7721 119.808C77.7661 120.021 77.7601 120.339 77.7601 120.781C77.7601 120.793 77.7761 120.803 77.7761 120.803C77.9881 120.787 78.1781 120.781 78.3241 120.781C79.0041 120.781 79.2841 121.185 79.2841 121.614C79.2841 122.028 79.0521 122.354 78.6401 122.512C78.4921 122.569 78.3441 122.599 78.0001 122.599C77.7721 122.599 77.3061 122.589 77.0001 122.589C76.9901 122.583 76.9841 122.523 77.0001 122.512C77.1121 122.496 77.2041 122.486 77.3141 122.46" fill="#FEFEFE"/>
<path fill-rule="evenodd" clip-rule="evenodd" d="M80.6451 122.486C80.8391 122.45 80.8491 122.364 80.8571 122.104C80.8631 121.869 80.8671 121.109 80.8671 120.9C80.8671 120.691 80.8671 120.001 80.8571 119.792C80.8531 119.659 80.8431 119.573 80.7011 119.543C80.6291 119.526 80.5691 119.516 80.4671 119.506C80.4511 119.49 80.4571 119.434 80.4731 119.43C80.5751 119.43 80.8071 119.446 81.0291 119.446C81.2731 119.446 81.4331 119.426 81.5231 119.43C81.5431 119.434 81.5491 119.502 81.5231 119.506C81.4271 119.522 81.4111 119.522 81.3471 119.537C81.1931 119.567 81.1871 119.649 81.1831 119.828C81.1791 120.027 81.1791 120.608 81.1791 120.9C81.1791 120.91 81.1831 120.92 81.1971 120.92C81.5271 120.92 81.6451 120.823 81.7251 120.705C81.8271 120.558 81.8831 120.462 81.9851 120.256C82.3191 119.567 82.5091 119.354 82.8231 119.354C82.8491 119.354 82.9291 119.38 82.9651 119.41C82.9751 119.414 82.9951 119.456 82.9951 119.466C82.9951 119.549 82.9591 119.699 82.9251 119.746C82.9091 119.766 82.8831 119.776 82.8771 119.772C82.8231 119.736 82.6951 119.669 82.6191 119.669C82.4731 119.669 82.3811 119.762 82.2071 120.104C81.9911 120.532 81.8331 120.811 81.6811 120.914C81.6751 120.92 81.6711 120.93 81.6751 120.936C81.7511 120.976 81.8131 121.037 81.9031 121.155C82.1271 121.461 82.3471 121.752 82.5851 122.052C82.9391 122.497 83.0291 122.503 83.3911 122.513C83.4111 122.513 83.4011 122.589 83.3851 122.589C83.2651 122.609 82.8631 122.583 82.7911 122.573C82.6391 122.553 82.5851 122.513 82.5031 122.436C82.3311 122.267 82.0051 121.793 81.6551 121.318C81.5091 121.119 81.4011 121.012 81.1871 121.012C81.1831 121.012 81.1731 121.023 81.1731 121.033C81.1731 121.288 81.1791 122.002 81.1831 122.221C81.1871 122.396 81.2131 122.436 81.3511 122.472C81.4111 122.486 81.4571 122.497 81.5691 122.513C81.5891 122.529 81.5851 122.579 81.5691 122.589C81.4931 122.589 81.1831 122.573 80.9911 122.573C80.8071 122.573 80.6091 122.583 80.4571 122.589C80.4371 122.589 80.4371 122.517 80.4471 122.513L80.6451 122.486Z" fill="#FEFEFE"/>
<path fill-rule="evenodd" clip-rule="evenodd" d="M86.0242 119.843C85.9422 120.056 85.6882 120.818 85.6122 121.042C85.6122 121.062 85.6182 121.074 85.6342 121.078C85.6782 121.084 85.8062 121.084 86.0782 121.084C86.1902 121.084 86.3902 121.084 86.4142 121.078C86.4182 121.078 86.4302 121.062 86.4242 121.042C86.3042 120.654 86.1202 120.062 86.0442 119.839C86.0382 119.839 86.0242 119.839 86.0242 119.843M85.0602 122.047C85.3682 121.313 85.8242 120.002 85.9382 119.694C85.9742 119.592 85.9982 119.507 86.0082 119.439C86.0122 119.439 86.0542 119.445 86.1262 119.445C86.2022 119.445 86.2362 119.439 86.2402 119.439C86.2522 119.485 86.2722 119.568 86.3042 119.664C86.3942 119.92 86.9822 121.778 87.1362 122.154C87.2662 122.455 87.2882 122.471 87.6282 122.512C87.6382 122.528 87.6322 122.578 87.6182 122.588C87.4902 122.584 87.2022 122.574 87.0842 122.574C86.9622 122.574 86.6282 122.578 86.5202 122.588C86.5162 122.578 86.5102 122.524 86.5202 122.512C86.6222 122.497 86.7042 122.485 86.7742 122.461C86.8562 122.425 86.8562 122.389 86.8342 122.319C86.7802 122.099 86.5862 121.552 86.4902 121.271C86.4902 121.271 86.4602 121.247 86.4562 121.247C86.4042 121.241 86.2982 121.241 85.9822 121.241C85.6442 121.241 85.6182 121.241 85.5662 121.247C85.5522 121.247 85.5322 121.267 85.5262 121.283C85.4242 121.548 85.2162 122.109 85.1962 122.256C85.1802 122.349 85.1762 122.431 85.3422 122.471C85.4042 122.485 85.4502 122.497 85.5582 122.512C85.5662 122.524 85.5622 122.578 85.5522 122.588C85.4602 122.588 85.1962 122.574 84.9742 122.574C84.7242 122.574 84.5702 122.588 84.4942 122.588C84.4822 122.584 84.4822 122.524 84.4942 122.512C84.8502 122.465 84.9002 122.425 85.0602 122.047" fill="#FEFEFE"/>
<path fill-rule="evenodd" clip-rule="evenodd" d="M90.0104 51.9226L87.9824 49.8836L90.4504 47.4022L87.8404 44.78L90.0564 42.55L90.1204 42.6143L94.7564 47.2614L90.0564 51.9869L90.0104 51.9226ZM90.0564 41.3817L85.9064 45.5542L86.4884 46.1394L87.2764 45.3632L87.3224 45.4114L89.2884 47.4022L87.4004 49.3165L87.3544 49.2522L50.9484 12.6484L50.3684 13.2336L90.0564 53.1552L95.9204 47.2614L90.0564 41.3817Z" fill="#FEFEFE"/>
<path fill-rule="evenodd" clip-rule="evenodd" d="M8.42832 51.9866L8.36632 51.9223L3.74432 47.2611L8.42832 42.5517L8.47432 42.614L10.6763 44.8119L8.11432 47.3878L10.5523 49.837L8.42832 51.9866ZM11.1343 49.2519L11.0843 49.2056L9.27832 47.3878L11.2583 45.397L11.3203 45.4433L47.5523 81.8721L48.1363 81.2869L8.42832 41.3813L2.58032 47.2611L8.42832 53.157L12.5783 48.9844L11.9963 48.3993L11.1343 49.2519Z" fill="#FEFEFE"/>
<path fill-rule="evenodd" clip-rule="evenodd" d="M54.4226 12.3171L84.6326 42.6932L85.2146 42.108L55.0046 11.7319L54.4226 12.3171Z" fill="#FEFEFE"/>
<path fill-rule="evenodd" clip-rule="evenodd" d="M84.8854 36.1656L60.9154 12.0654L60.3334 12.6486L84.3054 36.7508L84.8854 36.1656Z" fill="#FEFEFE"/>
<path fill-rule="evenodd" clip-rule="evenodd" d="M44.6295 82.9151L14.4195 52.5391L13.8375 53.1403L44.0315 83.5164L44.6295 82.9151Z" fill="#FEFEFE"/>
<path fill-rule="evenodd" clip-rule="evenodd" d="M14.2291 58.987L38.2151 83.1053L38.7971 82.5201L14.8111 58.4019L14.2291 58.987Z" fill="#FEFEFE"/>
<path fill-rule="evenodd" clip-rule="evenodd" d="M54.4226 82.4567L55.0046 83.0418L85.2146 52.6818L84.6326 52.0806L54.4226 82.4567Z" fill="#FEFEFE"/>
<path fill-rule="evenodd" clip-rule="evenodd" d="M60.2078 82.0137L60.7898 82.5828L84.7598 58.4806L84.1778 57.8975L60.2078 82.0137Z" fill="#FEFEFE"/>
<path fill-rule="evenodd" clip-rule="evenodd" d="M44.6295 11.843L44.0315 11.2739L13.8375 41.6339L14.4195 42.2191L44.6295 11.843Z" fill="#FEFEFE"/>
<path fill-rule="evenodd" clip-rule="evenodd" d="M38.6726 12.1433L38.0906 11.5581L14.1206 35.6603L14.7026 36.2455L38.6726 12.1433Z" fill="#FEFEFE"/>
<path fill-rule="evenodd" clip-rule="evenodd" d="M51.907 86.265L53.937 88.304L49.251 93.0295L49.189 92.9672L44.551 88.304L46.689 86.1705L49.297 88.7947L51.861 86.2027L51.907 86.265ZM50.367 84.7166L51.281 85.6336L49.297 87.6082L47.271 85.5853L83.677 48.9836L83.079 48.3984L43.387 88.304L49.251 94.1999L55.099 88.304L50.949 84.1315L50.367 84.7166Z" fill="#FEFEFE"/>
<path fill-rule="evenodd" clip-rule="evenodd" d="M44.5514 6.23227L49.2514 1.50675L49.2974 1.5711L53.9354 6.23227L53.8874 6.28053L51.7194 8.44623L49.2814 5.99499L46.7994 8.4764L44.5514 6.23227ZM48.1194 9.80357L47.3814 9.07764L49.2814 7.16531L49.3314 7.22765L51.1374 9.02938L14.8274 45.5547L15.3934 46.1378L55.0974 6.23227L49.2514 0.336426L43.3874 6.23227L47.5374 10.3887L48.1194 9.80357Z" fill="#FEFEFE"/>
<path fill-rule="evenodd" clip-rule="evenodd" d="M54.8619 35.2335C54.8299 35.8348 54.7519 36.434 54.6579 36.8764C54.0919 39.2009 52.3179 40.4175 49.6439 41.6341C48.2599 42.2494 47.3179 43.1825 46.7999 44.4151L46.6419 44.7791V44.7328C45.9959 46.0761 45.3359 46.8804 44.1739 47.1177C43.3399 47.2927 42.1299 46.802 41.1719 46.4079C40.2439 46.0439 39.5379 45.7584 39.0499 45.9011C38.4979 46.0761 38.2159 45.8851 38.1539 45.8227C38.0599 45.696 37.9019 45.6639 37.7599 45.7121L37.7439 45.7282C37.6979 45.7443 36.7379 46.2028 36.1719 47.355C36.0939 47.5138 36.0479 47.5923 36.0159 47.6244L35.9859 47.6546H35.9539C35.9199 47.6385 35.8899 47.6385 35.8739 47.6385C35.6399 47.5923 35.3719 47.5762 35.0099 47.735L34.9299 47.7813L34.8999 47.6868C34.7899 47.2283 34.7419 46.6592 34.7419 46.438V46.3918L34.7739 46.3596C35.8739 45.6478 36.5339 45.0324 36.6459 44.6524C36.7699 44.21 36.9759 43.9265 37.2419 43.7676C37.4919 43.6409 37.8079 43.6248 38.1999 43.7515C39.4259 44.1155 42.0359 43.9727 44.1439 43.4036L44.2679 43.3715L44.2379 43.4841C44.1899 43.7998 44.1899 44.1316 44.2219 44.4795C44.5979 44.3849 44.8819 44.0833 44.9279 43.7033C45.1019 42.3298 46.4039 41.6502 48.5279 40.6548C49.0479 40.4014 49.5659 40.1641 50.0999 39.8806C51.6879 39.0582 53.8399 37.351 54.7219 35.2013L54.8959 34.775L54.8619 35.2335ZM55.7419 40.3532L55.7899 40.2587C56.8259 38.284 57.1099 35.501 56.4819 33.3373C55.9939 31.6763 55.0039 30.4457 53.6219 29.764C53.3539 29.591 53.0699 29.4643 52.7719 29.3538L52.5979 29.2753C51.9719 28.5313 51.2459 28.1211 50.5399 28.1211H50.4459C50.3059 28.1211 50.1779 28.2156 50.1319 28.3584C50.1319 28.3584 50.0999 28.4529 50.0379 28.5957C49.9099 28.9596 49.6579 29.6554 49.4719 30.2064L49.4399 30.2546H49.3939C48.8899 30.3029 48.0879 30.4135 47.1759 30.6347H47.1599C45.5579 31.0931 44.8339 31.4873 44.6599 31.994C44.5819 32.2293 44.6299 32.4525 44.7719 32.7038L44.8199 32.7843L44.7379 32.8144C44.2219 33.0678 43.5139 33.464 43.1379 34.0169C42.7279 34.6484 43.0579 35.328 43.3399 35.6276L43.4839 35.8026L43.6859 35.7382C43.7339 35.7382 43.9539 35.6759 44.4579 35.4064L44.2999 35.0747C44.2059 34.9017 43.9859 34.8394 43.8139 34.9178L43.7339 34.9641L43.7019 34.8856C43.6399 34.7127 43.6539 34.5538 43.7339 34.4272C44.0779 33.9063 45.0059 33.464 45.4479 33.3051L46.5319 33.0377V33.1322C46.5479 33.3373 46.6099 33.5102 46.7219 33.6369C46.8299 33.7475 46.9859 33.8259 47.1599 33.842C47.3179 33.8581 47.5059 33.842 47.6939 33.7797C48.4179 33.5585 48.7339 33.464 48.8579 33.4318C48.7959 33.2588 48.6699 33.1161 48.5119 33.0196C48.3219 32.9271 48.1199 32.8949 47.9139 32.9572L47.4899 33.0839C47.4279 33.1161 47.3819 33.1161 47.3319 33.1322L47.2379 33.1462V33.0377C47.2379 33.0055 47.2539 32.9572 47.2539 32.911L47.2699 32.8627L47.3179 32.8466L48.5599 32.547C48.9679 32.4525 49.2199 32.0724 49.1719 31.6622L45.5259 32.547L45.4639 32.4525C45.4159 32.3881 45.3679 32.3258 45.3519 32.2775L45.3359 32.2293L45.3519 32.1991C45.4319 32.0885 45.7619 31.7889 47.3479 31.3304C48.3219 31.0931 49.2499 30.9986 49.7079 30.9504C49.8639 30.9504 50.0059 30.8398 50.0539 30.697C50.2259 30.1923 50.4919 29.4483 50.6659 28.9918L50.7139 28.849L50.7759 28.8651C51.4039 28.9918 52.0499 29.5749 52.5199 30.4296C52.8039 30.9504 52.9779 31.5195 53.0079 32.0242L53.0399 32.356L52.8659 32.0724C52.6319 31.6763 52.2999 31.2983 51.9379 30.9826C51.8139 30.872 51.6419 30.8076 51.4839 30.8076C51.2459 30.8076 51.0279 30.9343 50.9019 31.1253C51.2939 31.3445 53.0399 32.5309 52.6159 34.4111C52.4099 35.2657 51.4359 36.0861 49.7079 36.8764C49.0939 37.1619 48.5119 37.4133 48.0079 37.6365C47.2379 37.9844 46.5639 38.2679 45.9819 38.5675L45.9039 38.5997L45.8719 38.5213C45.8399 38.3946 45.7939 38.284 45.7619 38.1734C45.7299 38.109 45.7139 38.0306 45.6819 37.9522L45.6519 37.8577H45.7459C46.5319 37.7612 47.1599 37.0192 47.6319 36.4823C47.7899 36.3073 47.9299 36.1344 48.0579 36.0238L48.1039 35.9755L48.1519 36.0077C48.2919 36.1183 48.5279 36.3556 48.7799 36.6391C48.9039 36.5144 48.9839 36.3234 48.9839 36.1344C48.9999 35.9132 48.9039 35.7081 48.7339 35.5653C48.1659 35.0606 47.9139 35.2335 47.8199 35.2958C47.5839 35.4386 47.3659 35.7081 47.0979 36.0077C46.6259 36.5446 46.0439 37.2243 45.5099 37.1298C44.7879 37.0192 44.3779 36.2611 44.2679 36.0238L43.6079 36.2772C43.7019 36.5144 44.0939 37.3027 44.8499 37.6667L44.8979 37.6988V37.731C44.9279 37.9522 45.0059 38.2056 45.0859 38.4107C45.1339 38.5514 45.1959 38.7264 45.2279 38.8832L45.2419 38.9476L45.1959 38.9797C43.7019 39.8324 43.0579 40.701 42.7739 42.2977C43.0419 42.2333 43.2939 42.171 43.5459 42.0926C43.9859 40.1963 45.1639 39.6735 48.2919 38.3001C48.8119 38.0628 49.3779 37.8094 50.0059 37.5259C51.9719 36.6391 53.0559 35.6598 53.3079 34.5699C53.3699 34.2542 53.4019 33.9365 53.3859 33.6208V33.6047L53.4019 33.5746C53.6999 33.1 53.8099 32.4827 53.6999 31.7567L53.6539 31.3928L53.8559 31.7085C54.2979 32.4203 54.4539 33.1945 54.3279 34.0009C53.9979 36.056 51.7979 38.2056 49.7699 39.2472C49.2659 39.5006 48.7639 39.7378 48.2919 39.9751L48.2299 39.9912C46.7219 40.7171 45.2899 41.3807 44.6139 42.4867L44.5979 42.5028L44.5679 42.5189C43.9379 42.724 43.1999 42.8989 42.4599 43.0256L42.3979 43.0397L42.3819 42.9934C42.2399 42.7883 41.9739 42.4244 41.5959 42.2494C40.9359 41.8714 40.1499 41.7608 39.9919 41.7447C39.4419 41.6823 38.9399 41.5074 38.5139 41.1756C38.1679 40.9222 38.0119 40.685 37.9959 40.685C37.9019 40.5442 37.7299 40.4959 37.5719 40.5583L37.3679 40.6387L37.3199 40.5904C37.2099 40.4014 37.0539 40.0535 36.9439 39.4221C36.8319 38.8209 36.9599 37.9663 37.0839 37.2082C37.2419 36.245 37.3519 35.5492 37.0379 35.1692C36.7379 34.7911 36.4079 34.7429 36.0319 35.0445L36.0159 35.0606H35.9539C35.6859 34.9641 35.5739 34.7429 35.4339 34.4111L35.4179 34.3809C35.3399 34.1738 35.1359 34.0009 34.8199 33.8742L34.7419 33.8581L34.7739 33.7797C34.9139 33.4479 35.1819 32.9271 35.5279 32.9271H35.6079C35.7959 32.9733 35.9859 33.0196 36.1879 33.0537C36.9439 33.1945 37.8859 33.3855 38.0279 33.8581C38.1059 34.0954 38.1839 34.4593 38.2959 34.8695C38.5459 35.9293 38.8759 37.3831 39.3179 38.0145C39.9139 38.8993 40.1019 38.9637 40.1799 38.9958L40.2299 39.0099C40.2759 39.026 41.6739 39.3578 43.0579 39.5951C43.2939 39.39 43.5619 39.1849 43.8759 38.9958C42.6799 38.8209 41.2039 38.5052 40.4799 38.3323H40.4479L40.4319 38.3162C40.3699 38.2357 40.1979 38.0628 39.8999 37.6043C39.5539 37.0815 39.2079 35.6437 38.9879 34.6966C38.8759 34.2703 38.7979 33.9063 38.7199 33.653C38.4519 32.7682 37.2739 32.5309 36.3299 32.3419H36.3159C36.1099 32.3097 35.9379 32.2775 35.7799 32.2293C34.7419 31.9779 34.1299 33.2428 33.9399 34.0169L33.9239 34.0793C33.9079 34.1577 33.9239 34.2542 33.9739 34.3166C34.0199 34.395 34.0979 34.4432 34.1759 34.4593H34.2379C34.3979 34.4895 34.6639 34.5699 34.7579 34.6484L34.7899 34.6966C34.9139 35.0123 35.1519 35.5331 35.7339 35.7382C35.9699 35.8187 36.1879 35.7865 36.3939 35.6598L36.5019 35.5975L36.5179 35.7081C36.5499 35.9594 36.4719 36.5305 36.3779 37.0976C36.2499 37.9039 36.0939 38.837 36.2359 39.5629C36.5019 40.9705 36.9759 41.3023 37.1159 41.3807L37.2579 41.4612L37.6039 41.3184L37.6359 41.3506C37.9819 41.7125 38.7359 42.3459 39.9139 42.4565C39.9919 42.4726 40.1339 42.4867 40.3079 42.5189C40.3379 42.535 40.9359 42.8044 41.2039 43.0578L41.3139 43.1825L41.1399 43.1985C40.0079 43.293 39.0019 43.2468 38.4039 43.0578C37.8219 42.8828 37.3199 42.915 36.8959 43.1362C36.4559 43.3876 36.1419 43.8159 35.9539 44.4473C35.8419 44.7167 34.9479 45.4125 34.1919 45.9011L34.0199 45.9956V46.2028C34.0199 46.3596 34.0359 47.8135 34.4759 48.5092C34.5219 48.6037 34.6159 48.6681 34.7119 48.6822C34.8199 48.6982 34.9139 48.6681 34.9939 48.6037C35.3879 48.288 35.5599 48.3202 35.7479 48.3504C36.1879 48.4147 36.5019 48.3363 36.8179 47.6707C37.1159 47.0554 37.5719 46.6753 37.8219 46.5185L37.8539 46.4863L37.9019 46.5024C38.1219 46.6291 38.5939 46.802 39.2539 46.5969C39.4879 46.5185 40.1339 46.7698 40.8899 47.0715C42.0039 47.5138 43.2619 48.0347 44.3159 47.8296C45.1339 47.6546 45.7779 47.2605 46.3419 46.5647L46.4379 46.4541L46.4859 46.5969C46.6559 47.2142 47.1139 48.0045 47.6619 48.9034C47.7279 48.9999 47.7739 49.0944 47.8359 49.1889C47.8839 49.2512 48.1039 49.6313 48.1979 49.8203C48.3079 50.0737 48.5119 50.6267 48.7019 51.5597L48.7179 51.6703L48.6059 51.6542C46.6559 51.4169 45.3999 49.4724 44.8039 48.288C44.6599 48.3363 44.5039 48.3665 44.3459 48.3986C44.2519 48.4147 44.1739 48.4288 44.0779 48.4449C44.2219 48.7304 44.4239 49.1426 44.7079 49.583L44.7559 49.6474L44.6759 49.6936C43.6239 50.2627 41.1079 51.7165 40.2299 53.0136C39.0499 54.7208 39.0799 56.3013 40.3079 57.3429C40.7319 57.7069 41.3759 58.103 41.9579 58.4348C42.5399 58.7968 43.4179 59.3196 43.6079 59.6032L43.6399 59.6353L43.6079 59.6836C43.5299 59.8083 43.4519 59.951 43.3719 60.0938L43.3559 60.124C42.8379 61.0731 42.4759 61.5155 41.9879 61.3586C40.4939 60.868 39.3959 60.9002 38.6879 61.4049C38.1539 61.801 37.8859 62.4807 37.8859 63.3816V63.4117C37.8859 63.6188 38.0439 63.7757 38.2479 63.7757C38.7979 63.7757 39.0959 64.2663 39.1739 64.4232C39.4419 64.946 39.8679 64.9782 41.2979 64.9621C41.6439 64.946 41.9419 64.9782 42.1939 64.9923H42.2719C43.0259 65.0405 43.6079 65.0566 44.1099 64.391C44.2999 64.1718 44.6139 63.6973 45.0219 63.096L45.0379 63.0638C45.8879 61.7849 46.8299 60.4095 47.1299 60.1883L47.1459 60.1722C47.4759 60.0455 47.7279 59.7137 47.7579 59.3337C47.8059 58.8933 47.5839 58.4811 47.1759 58.2297C46.9719 58.103 46.6879 58.0226 46.3579 57.9281C45.7779 57.7713 45.0539 57.5641 44.8339 57.1378C44.7239 56.9488 44.7239 56.7115 44.8199 56.4119C45.1499 55.3844 47.3979 54.9882 48.4339 54.8615C48.4039 54.6564 48.3719 54.4212 48.3539 54.1517C46.9239 54.3246 44.5819 54.8153 44.1439 56.1887C43.9859 56.6794 43.9999 57.1217 44.1899 57.4857C44.5679 58.1815 45.4479 58.4188 46.1539 58.6239C46.4219 58.6882 46.6879 58.7666 46.7999 58.8451C47.0339 58.9878 47.0679 59.1447 47.0519 59.2553C47.0339 59.3659 46.9719 59.4765 46.8779 59.4926C46.5479 59.6192 46.0439 60.2667 44.4239 62.6858L44.3939 62.7321C44.0319 63.269 43.7179 63.7435 43.5459 63.9506C43.2779 64.3126 43.0579 64.3287 42.2719 64.2824C42.0359 64.2663 41.7059 64.2503 41.3439 64.2503H41.0459C40.2919 64.2503 39.9619 64.2181 39.8679 64.1557L39.8499 64.1397C39.8339 64.1397 39.8199 64.1236 39.8199 64.0914C39.7259 63.9185 39.3639 63.3011 38.6719 63.1121L38.6099 63.096V63.0176C38.6719 62.543 38.8439 62.1952 39.1119 61.99C39.4579 61.7367 40.2139 61.5316 41.7679 62.0383C42.9159 62.4163 43.5759 61.1998 43.9859 60.4718C44.0779 60.2989 44.1739 60.124 44.2519 60.0154C44.3459 59.8565 44.3779 59.6997 44.3459 59.5086C44.2379 58.9878 43.4979 58.5293 42.3199 57.8175C41.7379 57.4696 41.1399 57.1217 40.7779 56.806C39.5839 55.7785 40.1339 54.4051 40.8099 53.4077C41.6439 52.2072 44.3159 50.7051 45.1179 50.2627L45.1639 50.2305L45.2119 50.2949C46.2479 51.606 47.4439 52.3178 48.7639 52.3801L48.8259 52.3962L48.8419 52.4606C48.8739 52.7602 48.9039 53.0759 48.9359 53.3916C49.1419 56.064 49.4719 58.3222 51.6719 58.9235C52.5679 59.1608 53.4939 59.1768 54.2339 59.1929H54.2659C54.5959 59.1929 55.0359 59.209 55.2399 59.2553L55.3039 59.2714V59.3337C55.2719 59.951 55.0679 61.4672 54.5959 61.8794C54.1399 62.2897 54.0139 62.2736 52.7559 61.974H52.7259C52.1899 61.8332 51.6719 62.0061 51.2619 62.4163C50.6519 63.0337 50.3679 64.1557 50.5859 65.0083V65.0244C50.6339 65.1672 50.8079 65.2939 50.9659 65.2778H51.0119C51.3899 65.2778 51.8919 65.5774 51.9559 65.7986L51.9879 65.861C52.2379 66.3194 52.5359 66.4139 52.8979 66.4139C53.0699 66.4139 53.2599 66.3999 53.4479 66.3838C53.6059 66.3677 53.7939 66.3355 53.9979 66.3194C54.1859 66.3194 54.3919 66.3054 54.5799 66.2893H54.6119C55.6799 66.241 56.7799 66.1927 57.1899 65.2778C57.3159 65.0083 57.5039 64.4232 57.7539 63.6651C58.3679 61.8171 58.9819 60.0455 59.3119 59.7459L59.3419 59.7298C59.6259 59.5871 59.7979 59.3035 59.7979 58.9396C59.8159 58.2599 59.2799 57.2806 58.4639 56.9327C58.0839 56.7739 57.5979 56.79 57.0939 56.8221C56.5459 56.8382 55.9019 56.8523 55.6959 56.617C55.5859 56.4903 55.5559 56.2691 55.6179 55.9534C55.6959 55.509 55.7579 55.131 55.8359 54.753L55.8519 54.6886C56.0419 53.7234 56.1999 52.903 56.2139 52.0483C56.2319 51.8271 56.1359 51.622 55.9799 51.4813C55.8359 51.3546 55.6639 51.2742 55.4759 51.2742C55.5699 52.3661 55.3979 53.283 55.1459 54.5458C55.0679 54.942 54.9879 55.3522 54.9099 55.8268C54.8159 56.3637 54.8959 56.79 55.1459 57.0755C55.5859 57.5963 56.4039 57.5641 57.1099 57.532C57.5179 57.5179 57.9599 57.5018 58.1799 57.5963C58.5259 57.7552 58.8719 58.1493 59.0279 58.5917C59.1219 58.8451 59.0899 58.9878 59.0739 59.02V59.0662H59.0279C58.5259 59.2874 58.0379 60.5362 57.0779 63.4439C56.8419 64.1397 56.6399 64.7389 56.5299 64.9923C56.3099 65.499 55.4599 65.5292 54.5799 65.5774H54.4859C54.3139 65.5935 54.1239 65.5935 53.9359 65.6096C53.7319 65.6257 53.5419 65.6418 53.3859 65.6558C52.9919 65.7041 52.8199 65.7041 52.7399 65.6719C52.7099 65.6558 52.6779 65.6257 52.6319 65.5452C52.4419 65.0405 51.8139 64.6766 51.2939 64.582L51.2459 64.566L51.2319 64.5036C51.1999 63.9325 51.4199 63.287 51.7659 62.9231C52.0019 62.6858 52.2679 62.6054 52.5679 62.6697H52.5819C53.8879 62.9854 54.3279 63.096 55.0679 62.4163C55.8359 61.7206 56.0099 59.6675 56.0259 59.1929C56.0259 58.5454 55.3499 58.4972 54.2479 58.465C53.5419 58.465 52.6619 58.4489 51.8599 58.2297C50.2559 57.7853 49.8639 56.237 49.6439 53.3453C49.4559 50.8016 48.9039 49.6152 48.7339 49.3156L48.6059 49.0783C48.5119 48.9194 48.4179 48.7626 48.3079 48.5876L48.2759 48.5253C47.7099 47.5923 47.1139 46.5808 47.1299 46.1545C47.1599 45.3481 47.5059 43.3715 49.9259 42.2816C52.7259 41.0168 54.7219 39.6594 55.3499 37.0352C55.5559 36.1505 55.7279 34.6021 55.4899 33.1462L55.5699 33.1322L55.6499 33.1C55.6959 33.2588 55.7579 33.3996 55.7899 33.5424C56.4659 35.8187 55.9479 38.3946 55.1599 39.943L55.0979 40.0535C55.0199 40.1802 54.9579 40.2908 54.8779 40.4014C53.4319 42.6456 51.4519 43.6731 49.8479 44.4795L49.4859 44.6685C49.2979 44.7791 49.1559 44.9379 49.0939 45.143C49.0479 45.316 49.0639 45.505 49.1419 45.6799C49.4399 45.505 49.7699 45.3321 50.1159 45.1591L50.1779 45.127C51.2619 44.574 52.4879 43.9426 53.6539 42.915L53.8879 42.7079L53.7779 42.9934C53.2599 44.4312 52.9779 45.696 52.9299 46.7397C52.8819 47.9241 53.1959 48.9034 53.7939 49.5046C54.2479 49.9631 54.8459 50.2004 55.5699 50.2004C55.6339 50.2004 55.6959 50.2004 55.7579 50.1843C57.7859 50.0898 61.4959 49.03 63.3659 47.0071C65.1739 45.0485 64.9379 42.2675 62.7859 40.1018C62.4559 39.768 62.1259 39.4362 61.8119 39.1366C60.3479 37.7149 58.9659 36.3877 58.8719 35.0606L58.8559 35.0445C58.7439 34.1899 58.6659 31.8352 59.6099 30.9986C59.9399 30.7131 60.2539 30.6347 60.5699 30.7774C61.1359 31.061 61.6539 32.1046 61.6379 32.9271C61.5899 34.1577 61.0559 34.7911 61.0559 34.7911L60.7399 35.1531C60.7099 35.1853 60.7099 35.2335 60.7259 35.2657C60.7399 35.2958 60.7739 35.328 60.8059 35.328L61.2759 35.3924C61.3379 35.3924 62.8019 35.5331 63.7119 34.4272C64.1999 33.8259 64.3239 32.9411 64.0419 32.1046C63.8219 31.441 63.3499 30.9504 62.8019 30.7935C62.7539 31.1555 62.8479 31.5195 63.0999 31.8191C63.2099 31.9618 63.3039 32.1348 63.3659 32.3419C63.5699 32.9271 63.4919 33.5585 63.1619 33.9687C62.8959 34.2844 62.5499 34.4895 62.1259 34.6021L61.9679 34.6484L62.0299 34.4895C62.2199 34.0169 62.3279 33.5102 62.3439 32.9411C62.3759 31.9458 61.8259 30.5864 60.8679 30.1279C60.3019 29.8605 59.6879 29.9711 59.1399 30.4597C57.7699 31.6763 58.0999 34.775 58.1479 35.1229C58.2739 36.7195 59.7499 38.1412 61.3079 39.6594L61.4499 39.8002C61.7319 40.0535 62.0139 40.3391 62.2819 40.6065C64.1679 42.5189 64.3899 44.8273 62.8479 46.5185C61.1359 48.3825 57.5819 49.3779 55.7279 49.4724H55.5859C55.0519 49.4724 54.6119 49.3156 54.2979 48.9999C53.8399 48.5414 53.6059 47.735 53.6539 46.7698C53.7459 44.3668 55.2399 41.3023 55.6959 40.4316C55.7119 40.4014 55.7279 40.3693 55.7419 40.3532V40.3532Z" fill="#FEFEFE"/>
</svg>
