<svg width="140" height="54" viewBox="0 0 140 54" fill="none" xmlns="http://www.w3.org/2000/svg">
<path fill-rule="evenodd" clip-rule="evenodd" d="M70.9334 2.76646L80.1044 11.9487L80.5258 11.5275L70.9334 1.92334L70.5099 2.34734L70.932 2.76785L70.9334 2.76646Z" fill="#FEFEFE"/>
<path fill-rule="evenodd" clip-rule="evenodd" d="M69.273 19.0476L67.2078 16.9799H72.7883L69.998 19.7736L69.273 19.0476ZM67.6703 16.3836H72.3153V15.823H67.6703V16.3836ZM66.9675 15.2267H73.0669V12.4791H66.9675V15.2267ZM66.9675 11.8828H67.8493V9.45808H66.9675V11.8828ZM68.4448 11.8828H71.5903V9.45808H68.4448V11.8828ZM70.0175 8.56406C70.751 8.56336 71.4837 8.66378 72.1893 8.86183H67.8458C68.5514 8.66378 69.2841 8.56336 70.0175 8.56406V8.56406ZM67.9008 5.80317L69.998 3.7034L70.7231 4.42936L72.1148 5.8227L70.035 7.90504C70.0315 7.90783 70.0294 7.90923 70.0273 7.90992C70.0245 7.91132 70.021 7.91202 70.0175 7.91202C70.0141 7.91202 70.0106 7.91132 70.0078 7.90992C70.005 7.90923 70.0029 7.90783 70.0001 7.90504L67.9008 5.80317ZM72.1858 11.8828H73.0669V9.45808H72.1858V11.8828ZM73.6304 16.9799H73.6722V16.9381L77.6953 12.9094L78.444 12.1604L78.9587 12.675L69.7877 21.8573L70.2084 22.2792L79.8008 12.675L78.8654 11.7385L78.6551 11.5272L73.4437 6.30946L73.0216 6.73067L78.0233 11.7385L73.3838 16.3836H72.9109V15.823H73.6722V15.2267H73.6624V8.77606L73.4862 8.69725C72.6281 8.3144 71.7108 8.08287 70.7809 8.00128L71.3221 7.45942L71.3186 7.45873L72.9568 5.8227L72.9847 5.79411L71.3618 4.16924L70.0141 2.82611L67.0497 5.79411L67.0587 5.80317L67.9719 6.71742L69.2542 8.00128C68.3243 8.08287 67.407 8.3144 66.5489 8.69725L66.372 8.77606V15.2602H66.3838V15.823H67.0741V16.3836H66.6123L61.9728 11.7385L62.6978 11.0125L66.9828 6.72161L66.5607 6.3011L61.5514 11.3166L61.0373 10.8019L70.2084 1.61896L69.7877 1.19775L60.1946 10.8019L66.1971 16.8118L69.5766 20.1955L69.0396 20.7331L59.8916 11.5279L59.4695 11.9484L69.0382 21.5776L73.6304 16.9799Z" fill="#FEFEFE"/>
<path fill-rule="evenodd" clip-rule="evenodd" d="M70.4277 14.0217C70.3942 14.1012 70.3371 14.1695 70.2661 14.2176C70.195 14.2664 70.1107 14.2936 70.0174 14.2936C69.9554 14.2936 69.8976 14.2818 69.8447 14.2588C69.7646 14.2253 69.6963 14.1681 69.6482 14.097C69.6002 14.0258 69.5723 13.9415 69.5723 13.848C69.5723 13.786 69.5849 13.7281 69.6072 13.6751C69.6413 13.5956 69.6977 13.5272 69.7687 13.4784C69.8405 13.4303 69.9241 13.4031 70.0174 13.4024C70.0794 13.4031 70.1372 13.415 70.1908 13.438C70.2702 13.4714 70.3385 13.5279 70.3866 13.5998C70.4346 13.6709 70.4625 13.7553 70.4625 13.848C70.4625 13.9108 70.4499 13.9687 70.4277 14.0217M70.5997 12.9847C70.4339 12.8724 70.2319 12.8062 70.0174 12.8062C69.8746 12.8062 69.7367 12.8354 69.6127 12.8884C69.4254 12.9679 69.2666 13.0997 69.1544 13.2657C69.043 13.4317 68.9768 13.6332 68.9768 13.848C68.9768 13.9917 69.0061 14.1291 69.059 14.2539C69.1377 14.4415 69.2693 14.5998 69.4358 14.7121C69.6009 14.8243 69.8029 14.8906 70.0174 14.8899C70.1602 14.8899 70.2974 14.8613 70.4228 14.8076C70.6094 14.7288 70.7676 14.597 70.8797 14.431C70.9925 14.265 71.058 14.0628 71.058 13.848C71.058 13.7051 71.0287 13.5677 70.9758 13.4428C70.8971 13.2553 70.7655 13.097 70.5997 12.9847" fill="#FEFEFE"/>
<mask id="mask0_0_865" style="mask-type:alpha" maskUnits="userSpaceOnUse" x="136" y="30" width="4" height="4">
<path fill-rule="evenodd" clip-rule="evenodd" d="M136.803 30.0249H139.995V33.2209H136.803V30.0249Z" fill="white"/>
</mask>
<g mask="url(#mask0_0_865)">
<path fill-rule="evenodd" clip-rule="evenodd" d="M138.399 30.0249L136.803 31.6233L138.399 33.2209L139.995 31.6233L138.399 30.0249Z" fill="#FEFEFE"/>
</g>
<path fill-rule="evenodd" clip-rule="evenodd" d="M0.00012207 31.6233L1.59654 33.2216L3.19226 31.6233L1.59654 30.0249L0.00012207 31.6233Z" fill="#FEFEFE"/>
<path fill-rule="evenodd" clip-rule="evenodd" d="M61.1254 44.1584L61.2925 43.9785L61.3441 43.8753L61.4597 43.7344C61.631 43.5628 61.8281 43.3397 62.051 43.0649C62.2732 42.7909 62.5024 42.4987 62.7378 42.1897C62.9739 41.8808 63.2072 41.5705 63.4385 41.2573C63.6697 40.9442 63.8773 40.659 64.0619 40.4017C64.2457 40.1443 64.3976 39.9316 64.5181 39.765C64.6379 39.5969 64.7061 39.5097 64.7236 39.5007C64.7236 39.493 64.734 39.4581 64.7556 39.3982C64.7772 39.3382 64.7946 39.274 64.8071 39.205C64.8197 39.1366 64.8218 39.0739 64.8134 39.0188C64.8051 38.963 64.7751 38.9393 64.7236 38.9477C64.6462 38.9309 64.5843 38.9477 64.5369 38.9993C64.4902 39.0509 64.445 39.0983 64.4025 39.1408L64.2221 39.3466C64.0681 39.5355 63.9093 39.735 63.747 39.9449C63.5841 40.1548 63.4301 40.3501 63.2846 40.53C63.0185 40.8389 62.7573 41.1737 62.5003 41.5335C62.3631 41.7141 62.1875 41.9282 61.9737 42.1772C61.7592 42.4261 61.5412 42.6786 61.3183 42.9366C61.0954 43.1932 60.883 43.4485 60.6824 43.7016C60.4811 43.9548 60.3244 44.18 60.2129 44.3774C60.1871 44.4032 60.1635 44.4311 60.1426 44.4611C60.121 44.491 60.1015 44.5189 60.0848 44.5447C59.9817 44.6814 59.8807 44.8104 59.7825 44.9304C59.6843 45.0503 59.5916 45.1793 59.5066 45.3167C59.352 45.5057 59.2023 45.6961 59.0567 45.8886C58.9104 46.0817 58.7697 46.277 58.6325 46.4744C58.5636 46.5434 58.5037 46.6159 58.4528 46.6933C58.4013 46.7707 58.3407 46.8433 58.2724 46.9116C58.2641 46.9632 58.2425 47.0044 58.2083 47.0343C58.1742 47.0643 58.1484 47.1006 58.1317 47.1431C57.9855 47.3147 57.8503 47.4953 57.7263 47.6836C57.6024 47.8726 57.4631 48.0483 57.3091 48.2115C57.2834 48.254 57.2555 48.2903 57.2256 48.3203C57.1949 48.351 57.1636 48.3865 57.1287 48.4298C57.112 48.4556 57.0883 48.4898 57.0584 48.533C57.0284 48.5755 56.9915 48.6055 56.949 48.623C56.9748 48.2973 57.0215 47.9584 57.0904 47.6062C57.1587 47.2547 57.2144 46.929 57.2576 46.6285C57.3001 46.2345 57.36 45.823 57.4373 45.3934C57.5146 44.9646 57.587 44.5189 57.656 44.0559C57.6985 43.9868 57.7222 43.908 57.7263 43.8174C57.7305 43.7274 57.75 43.6437 57.7842 43.5663C57.7925 43.5496 57.7925 43.5363 57.7842 43.528C57.7758 43.5196 57.7758 43.5064 57.7842 43.4896C57.7925 43.4206 57.8058 43.3543 57.8232 43.2902C57.8399 43.226 57.8573 43.164 57.8747 43.1033C57.8831 43.0433 57.8914 42.9875 57.8998 42.9366C57.9081 42.885 57.9214 42.8376 57.9388 42.7943C57.9729 42.6228 58.0008 42.4519 58.0217 42.2804C58.0433 42.1088 58.0711 41.9498 58.106 41.8041C58.1227 41.7267 58.1422 41.6493 58.1638 41.5726C58.1847 41.4951 58.2083 41.4226 58.2341 41.3536C58.2766 41.2678 58.3156 41.1862 58.3497 41.1095C58.3839 41.0321 58.3797 40.9421 58.3372 40.8389C58.2682 40.7538 58.1909 40.6848 58.106 40.6332C58.0203 40.5823 57.9256 40.5349 57.8232 40.4916C57.6003 40.5091 57.4157 40.5823 57.2701 40.7106C57.1503 41.302 57.0479 41.8982 56.9616 42.4987C56.8759 43.0991 56.7902 43.6953 56.7046 44.2874C56.6704 44.5106 56.6384 44.7393 56.6084 44.975C56.5785 45.2114 56.5423 45.4409 56.4991 45.664C56.4225 46.1787 56.3556 46.7017 56.2999 47.2331C56.2442 47.7652 56.1954 48.2931 56.1522 48.8161C56.1522 49.0044 56.2142 49.1592 56.3389 49.2792C56.4629 49.3991 56.6363 49.4507 56.8592 49.4333C56.9365 49.4507 57.0048 49.4486 57.0647 49.427C57.1246 49.4054 57.1803 49.374 57.2318 49.3308C57.2834 49.2875 57.33 49.2408 57.3732 49.1892C57.4157 49.1376 57.454 49.0902 57.4888 49.0477C57.6518 48.8419 57.8204 48.6188 57.9966 48.3782C58.1721 48.1383 58.3372 47.9068 58.4911 47.6836C58.4911 47.6662 58.4932 47.6536 58.4981 47.6452C58.5016 47.6362 58.5037 47.6236 58.5037 47.6062C58.6583 47.4095 58.7997 47.2331 58.9278 47.079C59.0567 46.9249 59.1939 46.7491 59.3395 46.5518C59.3903 46.4744 59.4488 46.4228 59.5129 46.397C59.577 46.3711 59.6264 46.3112 59.6606 46.217C59.7031 46.1654 59.7442 46.1124 59.7825 46.0566C59.8208 46.0008 59.8619 45.943 59.9051 45.8823V45.8049C59.9475 45.7714 59.9775 45.7282 59.9942 45.6766C60.0116 45.6257 60.0458 45.5824 60.0973 45.5483C60.2261 45.3418 60.3675 45.1431 60.5215 44.9499C60.6754 44.7567 60.8252 44.5657 60.9714 44.3774C60.9965 44.3341 61.0202 44.2979 61.0418 44.2679C61.0634 44.2379 61.0912 44.2016 61.1254 44.1584" fill="#FEFEFE"/>
<path fill-rule="evenodd" clip-rule="evenodd" d="M63.0336 42.8717C62.9904 42.8201 62.9347 42.8068 62.8664 42.8326C62.7981 42.8584 62.7292 42.9017 62.6609 42.9616C62.5927 43.0216 62.5328 43.0865 62.4812 43.1548C62.4297 43.2232 62.4081 43.2706 62.4164 43.2964C62.4081 43.3306 62.3949 43.3731 62.3781 43.4247C62.3607 43.4763 62.3503 43.5279 62.3461 43.5795C62.3419 43.6304 62.3482 43.6758 62.3656 43.7141C62.3823 43.7532 62.4164 43.7811 62.468 43.7978C62.5021 43.8152 62.5258 43.8194 62.539 43.811C62.5516 43.8027 62.5669 43.7978 62.5836 43.7978C62.6094 43.7636 62.6505 43.7357 62.7062 43.7141C62.7612 43.6932 62.7981 43.6611 62.8155 43.6179C62.8323 43.6179 62.8406 43.6158 62.8406 43.6116C62.8406 43.6074 62.849 43.6095 62.8664 43.6179C62.8664 43.5921 62.8817 43.5663 62.9117 43.5405C62.9416 43.5147 62.9521 43.4889 62.9437 43.4638C62.9778 43.4805 62.9925 43.4721 62.989 43.438C62.9841 43.4038 62.9952 43.3947 63.021 43.4121C63.021 43.3947 63.0252 43.3843 63.0336 43.3801C63.0419 43.3759 63.0419 43.3647 63.0336 43.348C63.1018 43.3138 63.1471 43.2469 63.1687 43.1478C63.1896 43.0495 63.1708 42.9658 63.1109 42.8975C63.1018 42.8975 63.0914 42.8933 63.0781 42.8849C63.0656 42.8759 63.0503 42.8717 63.0336 42.8717" fill="#FEFEFE"/>
<path fill-rule="evenodd" clip-rule="evenodd" d="M70.8851 42.9745L70.9234 42.8455C71.2487 42.7688 71.5942 42.7088 71.9585 42.6656C72.322 42.6231 72.6585 42.5805 72.967 42.5373L72.9795 42.5115C73.0053 42.4947 73.0353 42.4857 73.0694 42.4857C73.1035 42.4857 73.1425 42.4724 73.185 42.4473C73.1934 42.4383 73.1983 42.4173 73.1983 42.3825C73.1983 42.349 73.2066 42.3225 73.224 42.3058C73.215 42.3058 73.2108 42.3141 73.2108 42.3316C73.2108 42.3399 73.2066 42.3441 73.1983 42.3441C73.1899 42.3267 73.1808 42.312 73.1725 42.2988C73.1634 42.2862 73.1683 42.2716 73.185 42.2541C73.0736 42.2109 72.9691 42.1921 72.8709 42.1963C72.772 42.2005 72.6752 42.2067 72.5811 42.2158C72.4356 42.2332 72.3353 42.2437 72.2789 42.2479C72.2231 42.2521 72.1786 42.2521 72.1444 42.2479C72.1103 42.2437 72.0671 42.2437 72.0163 42.2479C71.9647 42.2521 71.87 42.2625 71.7328 42.28C71.6388 42.2974 71.5405 42.312 71.4375 42.3246C71.3351 42.3371 71.232 42.3567 71.1296 42.3825H71.1164C71.202 42.1942 71.2898 42.0094 71.3796 41.8295C71.4695 41.6495 71.5573 41.4647 71.6429 41.2757C71.7544 41.0791 71.8533 40.8734 71.939 40.6586C72.0239 40.4445 72.1145 40.2339 72.2085 40.0282C72.2259 39.9856 72.2364 39.9466 72.2405 39.9124C72.2454 39.8782 72.2559 39.844 72.2733 39.8092C72.3074 39.7666 72.3353 39.7262 72.3562 39.6871C72.3778 39.6488 72.3798 39.6125 72.3631 39.5777C72.3457 39.5093 72.2942 39.4556 72.2085 39.4173C72.1228 39.3782 72.0372 39.3594 71.9515 39.3594C71.8832 39.3594 71.8017 39.3761 71.7077 39.411C71.613 39.4452 71.5573 39.4751 71.5405 39.5009C71.5148 39.5267 71.4953 39.5651 71.4827 39.6167C71.4695 39.6683 71.4549 39.715 71.4375 39.7583C71.4207 39.8182 71.3992 39.8671 71.3734 39.9061C71.3476 39.9445 71.3302 39.9856 71.3218 40.0282C71.3051 40.0456 71.2961 40.0665 71.2961 40.093C71.2961 40.1181 71.2877 40.1439 71.2703 40.1697C71.2536 40.2297 71.2236 40.2938 71.1804 40.3629C71.138 40.4745 71.0927 40.5881 71.0453 40.7039C70.9987 40.8197 70.945 40.9333 70.8851 41.0442C70.7653 41.3106 70.6518 41.5721 70.5445 41.8295C70.4373 42.0868 70.3363 42.349 70.2429 42.614C70.1997 42.6314 70.1594 42.644 70.1203 42.653C70.082 42.6614 70.0416 42.6698 69.9985 42.6788C69.9727 42.6788 69.9128 42.6872 69.8188 42.704C69.724 42.7221 69.6216 42.743 69.5102 42.7688C69.3988 42.7946 69.2894 42.8176 69.1821 42.8392C69.0749 42.8609 68.992 42.8804 68.9321 42.8971L68.7775 42.9613C68.7607 42.9961 68.7412 43.0345 68.7196 43.077C68.6988 43.1203 68.6793 43.1635 68.6618 43.2061C68.6451 43.2751 68.6361 43.3351 68.6361 43.386C68.6361 43.4383 68.6577 43.4766 68.7008 43.5017C68.7092 43.5192 68.7287 43.5261 68.7587 43.5213C68.7886 43.5171 68.8248 43.5108 68.868 43.5017C68.9014 43.4941 68.9335 43.4766 68.9641 43.4508C68.9941 43.425 69.0219 43.4034 69.0477 43.386C69.1076 43.3692 69.1696 43.3497 69.2337 43.3281C69.2978 43.3072 69.3556 43.2876 69.4071 43.2702C69.5527 43.2019 69.6746 43.1524 69.7735 43.1224C69.8717 43.0924 69.9769 43.0687 70.0883 43.0519C70.0451 43.1719 70.0047 43.2939 69.9664 43.4188C69.9274 43.5429 69.887 43.6691 69.8438 43.7981C69.7498 44.1238 69.6474 44.4453 69.536 44.7626C69.4245 45.0806 69.3256 45.4063 69.2399 45.741C69.2365 45.7563 69.2337 45.7738 69.2302 45.7891C69.1954 45.817 69.1626 45.8456 69.1181 45.8693C69.054 45.9042 68.9878 45.9425 68.9189 45.9851C68.859 45.9851 68.8116 45.9941 68.7782 46.0109C68.7176 46.0367 68.6577 46.0729 68.5978 46.1204C68.5379 46.1678 68.4773 46.2166 68.4181 46.2682C68.3233 46.3198 68.2683 46.3519 68.2509 46.3644C68.2335 46.3777 68.2209 46.3861 68.2126 46.3902C68.2035 46.3951 68.1882 46.4014 68.1673 46.4098C68.1457 46.4181 68.0879 46.4446 67.9939 46.4872C67.9082 46.5297 67.8358 46.5639 67.7759 46.5904C67.7153 46.6155 67.647 46.6462 67.5697 46.6796C67.5613 46.6113 67.5655 46.4997 67.5829 46.3449C67.5997 46.1908 67.6233 46.0283 67.6533 45.8568C67.6832 45.6852 67.7132 45.522 67.7431 45.3679C67.7731 45.2131 67.7926 45.1015 67.8009 45.0332C67.8267 44.9383 67.8546 44.84 67.8845 44.7375C67.9145 44.6343 67.9249 44.5359 67.9166 44.4418C67.9082 44.3644 67.8546 44.2933 67.7564 44.2291C67.6575 44.1649 67.5655 44.1329 67.4798 44.1329C67.36 44.1412 67.2402 44.1803 67.1197 44.2486C66.9999 44.317 66.8934 44.3818 66.7987 44.4418C66.5242 44.6043 66.2846 44.7849 66.0792 44.9816C65.8737 45.1789 65.6598 45.3763 65.4363 45.5736C65.3854 45.6078 65.3381 45.6482 65.2956 45.6957C65.2524 45.7431 65.2008 45.771 65.1409 45.7793C65.1925 45.6336 65.2461 45.5011 65.3018 45.3805C65.3576 45.2605 65.4112 45.1406 65.462 45.0206C65.4795 44.9774 65.4878 44.93 65.4878 44.8783C65.4878 44.8274 65.4969 44.7758 65.5143 44.7242C65.5568 44.6559 65.5993 44.5827 65.6424 44.5053C65.6849 44.4278 65.6849 44.3386 65.6424 44.2354C65.625 44.1496 65.5589 44.0896 65.4432 44.0555C65.3276 44.0213 65.2224 44.038 65.1284 44.1071C65.1026 44.1238 65.079 44.1475 65.0574 44.1775C65.0365 44.2075 65.017 44.2312 64.9996 44.2486C64.9912 44.2912 64.9821 44.3407 64.9738 44.3965C64.9654 44.4523 64.9522 44.5101 64.9355 44.5701C64.9188 44.6133 64.8923 44.6601 64.8582 44.7117C64.824 44.7626 64.7983 44.81 64.7815 44.8532C64.7223 45.0039 64.6555 45.144 64.5928 45.2905C64.5148 45.3079 64.4423 45.3309 64.3831 45.3679C64.3142 45.4104 64.2459 45.4537 64.1777 45.4962C64.1345 45.522 64.0725 45.552 63.991 45.5862C63.9095 45.6203 63.8385 45.6468 63.7793 45.6636C63.5647 45.741 63.3509 45.831 63.1364 45.9335C62.9225 46.0367 62.7275 46.1287 62.552 46.2103C62.3765 46.2919 62.2281 46.3568 62.1083 46.4035C61.9885 46.4509 61.9161 46.4614 61.8896 46.4356C61.8645 46.4098 61.8645 46.354 61.8896 46.2682C61.9161 46.1824 61.9586 46.082 62.0185 45.9662C62.0784 45.8505 62.1424 45.7277 62.2114 45.5994C62.2797 45.4704 62.3437 45.3463 62.4043 45.2263C62.421 45.218 62.4294 45.2047 62.4294 45.1873C62.4294 45.1705 62.4385 45.1573 62.4552 45.1489C62.4642 45.1406 62.4698 45.1385 62.4747 45.1426C62.4789 45.1468 62.4851 45.1447 62.4942 45.1364C62.5109 45.1015 62.5241 45.0694 62.5325 45.0394C62.5408 45.0095 62.5541 44.9816 62.5708 44.9558C62.614 44.8874 62.6307 44.8226 62.6223 44.7626C62.6398 44.72 62.646 44.6817 62.6418 44.6468C62.637 44.6133 62.6307 44.5659 62.6223 44.5053C62.614 44.4627 62.5945 44.4278 62.5645 44.4027C62.5346 44.3769 62.5067 44.347 62.4809 44.3121C62.4552 44.3302 62.4231 44.3274 62.3848 44.3065C62.3465 44.2849 62.3096 44.2828 62.2755 44.2995C62.2156 44.3086 62.1508 44.3344 62.0825 44.3769C61.9627 44.5485 61.8513 44.7347 61.7489 44.9362C61.6458 45.1385 61.5469 45.3379 61.4529 45.5346C61.4271 45.6036 61.3972 45.6768 61.363 45.7535C61.3289 45.831 61.2941 45.9042 61.2606 45.9725C61.2432 46.0409 61.2196 46.105 61.1896 46.1657C61.1597 46.2257 61.1318 46.2898 61.106 46.3589C61.0628 46.4872 61.0294 46.6029 61.0029 46.7061C60.9779 46.8087 60.9779 46.9119 61.0029 47.0144C61.0719 47.1092 61.1555 47.1713 61.2537 47.2013C61.3519 47.2313 61.4703 47.2459 61.6075 47.2459C61.6333 47.2459 61.65 47.248 61.6584 47.2522C61.6674 47.2571 61.6848 47.2459 61.7099 47.2201C61.7698 47.2459 61.8812 47.2096 62.0442 47.1106C62.2072 47.013 62.3848 46.8986 62.5778 46.7703C62.7707 46.6413 62.9546 46.5172 63.1301 46.3972C63.3056 46.2766 63.4407 46.1999 63.5348 46.1657C63.6379 46.1134 63.7423 46.0583 63.8496 45.9976C63.9569 45.9383 64.0488 45.8735 64.1261 45.8051C64.2201 45.7626 64.3058 45.7131 64.3831 45.6573C64.411 45.6371 64.4347 45.6155 64.4618 45.5945C64.4389 45.6441 64.4194 45.6985 64.3957 45.7473C64.2585 46.0346 64.1519 46.3589 64.0746 46.7187C64.0488 46.7787 64.0251 46.8428 64.0042 46.9119C63.9826 46.9802 63.9764 47.0318 63.9847 47.066C64.0021 47.1343 64.0551 47.1943 64.1449 47.2459C64.2355 47.2975 64.3142 47.315 64.3831 47.2975C64.4688 47.2801 64.6018 47.1685 64.7815 46.9628C64.9612 46.7571 65.1967 46.4997 65.4878 46.1908C65.5825 46.0973 65.6807 46.0109 65.7838 45.9335C65.8862 45.8568 65.9802 45.7793 66.0666 45.7019C66.2122 45.5562 66.3578 45.4237 66.5033 45.303C66.6489 45.1831 66.7987 45.0631 66.9526 44.9432C67.0041 44.9 67.0557 44.8574 67.1072 44.8142C67.1588 44.7716 67.2187 44.7417 67.2869 44.7242C67.2702 44.8191 67.2486 44.9132 67.2228 45.0074C67.1971 45.1015 67.1797 45.2089 67.1713 45.3288C67.1629 45.3805 67.1434 45.4746 67.1135 45.612C67.0835 45.7494 67.0536 45.893 67.0236 46.043C66.9937 46.1936 66.9658 46.3345 66.94 46.4676C66.9143 46.6008 66.9017 46.6887 66.9017 46.7313C66.9017 46.8254 66.938 46.9307 67.0111 47.0465C67.0835 47.1622 67.1671 47.2117 67.2611 47.1943C67.321 47.1943 67.3879 47.1901 67.4603 47.1818C67.5335 47.1734 67.6129 47.1601 67.6986 47.1434C67.8009 47.1092 67.9103 47.0513 68.0266 46.9698C68.1415 46.8882 68.246 46.8219 68.3407 46.7703C68.4438 46.7013 68.51 46.6587 68.5399 46.6413C68.5699 46.6239 68.5915 46.6092 68.6047 46.596C68.6173 46.5834 68.6361 46.566 68.6625 46.5451C68.6876 46.5234 68.7475 46.4746 68.8422 46.3972C68.9021 46.3714 68.9488 46.3414 68.9836 46.3066C69.0178 46.2724 69.0602 46.2257 69.1118 46.1657C69.1306 46.1552 69.1383 46.1413 69.1564 46.1301C69.1215 46.287 69.0846 46.4384 69.054 46.6029C68.9983 46.9028 68.962 47.2117 68.9446 47.529C68.9446 47.5723 68.9488 47.6148 68.9572 47.6574C68.9662 47.7006 69.0045 47.7389 69.0728 47.7731H69.086C69.1201 47.7564 69.1605 47.7459 69.2079 47.741C69.2553 47.7369 69.2915 47.7264 69.3173 47.7097C69.3604 47.7006 69.3772 47.6901 69.3688 47.6769C69.3604 47.6643 69.3772 47.649 69.4203 47.6323C69.4287 47.589 69.4329 47.5465 69.4329 47.5032C69.4329 47.4607 69.4412 47.4175 69.4587 47.3749L69.536 47.2459C69.5443 47.2201 69.5485 47.1818 69.5485 47.1301C69.5485 47.0792 69.5527 47.0318 69.5617 46.9886L69.5868 46.8603C69.5959 46.817 69.6084 46.7745 69.6258 46.7313C69.6258 46.7061 69.6363 46.6796 69.6579 46.6538C69.6795 46.6287 69.6941 46.6071 69.7024 46.5904C69.7373 46.5213 69.7602 46.4446 69.7735 46.3589C69.786 46.2724 69.8139 46.1957 69.8571 46.1266C69.8738 46.0492 69.8995 45.9767 69.9344 45.9084C69.9685 45.8393 69.9943 45.771 70.011 45.7019C70.1398 45.248 70.2812 44.7926 70.4352 44.3386C70.5898 43.8839 70.7395 43.4292 70.8851 42.9745" fill="#FEFEFE"/>
<mask id="mask1_0_865" style="mask-type:alpha" maskUnits="userSpaceOnUse" x="70" y="43" width="15" height="11">
<path fill-rule="evenodd" clip-rule="evenodd" d="M70.1299 43.6953H84.3942V53.1881H70.1299V43.6953Z" fill="white"/>
</mask>
<g mask="url(#mask1_0_865)">
<path fill-rule="evenodd" clip-rule="evenodd" d="M80.587 44.5266C80.5821 44.5315 80.5766 44.5356 80.5717 44.5405C80.5682 44.5412 80.5654 44.5433 80.5536 44.5315C80.5661 44.5252 80.5766 44.5259 80.587 44.5266M81.1756 44.7888C81.411 44.574 81.6827 44.4115 81.9912 44.2999C81.9912 44.325 81.9829 44.3383 81.9654 44.3383C81.8199 44.5105 81.6576 44.6793 81.4772 44.8467C81.2975 45.014 81.122 45.1661 80.9506 45.3034C80.8816 45.3467 80.8113 45.3892 80.7382 45.4318C80.6657 45.475 80.5905 45.4966 80.5139 45.4966C80.7187 45.2386 80.9395 45.0036 81.1756 44.7888M76.4992 47.7477C76.4776 47.7652 76.4755 47.791 76.4929 47.8251C76.4072 48.0225 76.2958 48.2707 76.1586 48.5713C76.0214 48.8712 75.8674 49.1906 75.6961 49.5295C75.5247 49.8684 75.3339 50.2073 75.1242 50.5463C74.9139 50.8852 74.6917 51.1976 74.4563 51.4856C74.2202 51.7729 73.9722 52.0128 73.7103 52.206C73.4491 52.3992 73.1775 52.517 72.8947 52.5596C72.8522 52.517 72.8348 52.4675 72.8431 52.4117C72.8522 52.3559 72.8431 52.3197 72.8174 52.3022C72.8522 52.0449 72.9205 51.805 73.0235 51.5818C73.1259 51.3587 73.2478 51.1467 73.3899 50.9452C73.5306 50.7436 73.679 50.5525 73.8329 50.3726C73.9868 50.1927 74.1324 50.0163 74.2696 49.8447C74.3212 49.7854 74.411 49.6843 74.5392 49.5427C74.668 49.4012 74.8226 49.2401 75.0016 49.0602C75.182 48.8802 75.3792 48.685 75.5937 48.4751C75.8075 48.2645 76.0172 48.0608 76.2226 47.8635C76.2401 47.8209 76.2825 47.791 76.3515 47.7735C76.4198 47.7561 76.4755 47.7261 76.5187 47.6836C76.527 47.7094 76.5208 47.731 76.4992 47.7477M84.2786 44.9045C84.2702 44.9045 84.2591 44.9087 84.2465 44.9171C84.2333 44.9262 84.2229 44.9304 84.2145 44.9304C84.1455 44.9478 84.0898 44.9666 84.0473 44.9882C84.0041 45.0092 83.9575 45.0419 83.9059 45.0845C83.7778 45.1535 83.6427 45.2239 83.5013 45.2965C83.3599 45.3697 83.2206 45.4408 83.0834 45.5092C82.912 45.6033 82.7706 45.6807 82.6599 45.7407C82.5477 45.8007 82.4412 45.8565 82.3381 45.9081C82.2357 45.9597 82.1263 46.0134 82.0107 46.0685C81.8951 46.1249 81.7474 46.1954 81.567 46.2812C81.4904 46.3153 81.3999 46.3502 81.2975 46.3844C81.1944 46.4185 81.0955 46.4485 81.0022 46.4743C80.8817 46.5085 80.7577 46.551 80.6295 46.6026C80.5007 46.6542 80.3509 46.6717 80.1796 46.6542C80.1106 46.5943 80.0744 46.519 80.0702 46.429C80.066 46.339 80.0786 46.2491 80.1085 46.1591C80.1385 46.0685 80.1796 45.9834 80.2304 45.9018C80.2827 45.8202 80.3335 45.7539 80.385 45.7023C80.5306 45.7191 80.6741 45.7149 80.8155 45.6891C80.9569 45.6633 81.0704 45.6159 81.1561 45.5475C81.4988 45.316 81.8415 45.0503 82.1841 44.7497C82.2009 44.7156 82.2266 44.6793 82.2615 44.6409C82.2956 44.6019 82.3339 44.5614 82.3771 44.5182C82.4022 44.4757 82.4412 44.4331 82.4927 44.3899C82.5442 44.3467 82.5742 44.3083 82.5826 44.2741C82.5826 44.1709 82.5352 44.0663 82.4412 43.9589C82.3464 43.8515 82.1451 43.7978 81.8373 43.7978C81.7941 43.7978 81.7621 43.8069 81.7405 43.8236C81.7196 43.8411 81.691 43.8578 81.6576 43.8752C81.5719 43.9178 81.4772 43.961 81.3748 44.0035C81.2717 44.0468 81.1728 44.0984 81.0788 44.1584C80.9158 44.2469 80.7577 44.3704 80.6024 44.5126C80.4268 44.5621 80.2583 44.6214 80.1036 44.6988C79.9323 44.7846 79.761 44.8746 79.5896 44.9687C79.598 44.9687 79.6022 44.9736 79.6022 44.9813C79.5339 44.9903 79.474 45.0092 79.4225 45.0391C79.3709 45.0698 79.3242 45.1019 79.2811 45.1361C79.2643 45.1361 79.2448 45.1444 79.2233 45.1619C79.2024 45.1793 79.1829 45.196 79.1654 45.2128H79.1271C79.0756 45.256 78.9857 45.3076 78.8576 45.3676C78.7287 45.4276 78.5943 45.4966 78.4529 45.5733C78.3108 45.6507 78.1764 45.7323 78.0475 45.8181C77.9194 45.9039 77.8295 45.9897 77.778 46.0754C77.8031 45.9555 77.84 45.8369 77.8873 45.7212C77.934 45.6054 77.966 45.4834 77.9834 45.3544C78.0176 45.286 78.0413 45.2114 78.0538 45.1298C78.067 45.0482 78.0865 44.9736 78.1116 44.9045C78.129 44.8271 78.1311 44.763 78.1186 44.7114C78.1053 44.6598 78.0649 44.5998 77.996 44.5315C77.9793 44.514 77.9577 44.5077 77.9319 44.5119C77.9061 44.5161 77.8887 44.5105 77.8804 44.4931C77.8462 44.5015 77.8184 44.4994 77.7968 44.4861C77.7759 44.4736 77.7522 44.4673 77.7264 44.4673C77.6575 44.4673 77.6087 44.4861 77.5788 44.5252C77.5488 44.5635 77.521 44.5956 77.4952 44.6214C77.452 44.6647 77.4332 44.6898 77.4374 44.6988C77.4416 44.7072 77.4353 44.733 77.4179 44.7755C77.4179 44.8188 77.3921 44.855 77.3406 44.885C77.2897 44.9157 77.2424 44.9478 77.1999 44.9813C77.1567 45.0245 77.1114 45.0719 77.0647 45.1228C77.0174 45.1744 76.9728 45.2128 76.9296 45.2386C76.7583 45.385 76.5828 45.5308 76.4031 45.6765C76.2227 45.8223 76.0471 45.9555 75.8758 46.0754C75.8333 46.0929 75.7985 46.1096 75.7734 46.1263C75.7476 46.1438 75.7128 46.1696 75.6703 46.2037C75.5937 46.247 75.5268 46.2874 75.4711 46.3265C75.4154 46.3648 75.3534 46.4053 75.2851 46.4485C75.2677 46.4569 75.2482 46.466 75.2273 46.4743C75.2057 46.4827 75.1779 46.4785 75.1437 46.4611C75.1437 46.4443 75.15 46.4227 75.1626 46.3969C75.1758 46.3711 75.1821 46.3453 75.1821 46.3195C75.2245 46.1828 75.2782 46.058 75.343 45.9464C75.407 45.8348 75.4732 45.7281 75.5422 45.6249C75.6104 45.565 75.6682 45.4924 75.7156 45.406C75.7623 45.3209 75.8284 45.256 75.9148 45.2128C75.9489 45.1619 75.9893 45.1103 76.0367 45.0587C76.0833 45.0071 76.1328 44.9603 76.1843 44.9171C76.2018 44.8488 76.2359 44.7972 76.2874 44.763C76.3383 44.7288 76.3856 44.6898 76.4288 44.6472C76.463 44.5789 76.5061 44.5231 76.557 44.4799C76.6085 44.4373 76.6642 44.3941 76.7241 44.3515C76.7673 44.2999 76.8398 44.2379 76.9429 44.1646C77.0452 44.0914 77.1351 44.0231 77.2124 43.9589C77.2897 43.8948 77.3343 43.8369 77.3475 43.7853C77.3601 43.7337 77.2981 43.7037 77.1609 43.6953C77.1441 43.6953 77.1184 43.6974 77.0842 43.7016C77.0494 43.7058 77.0153 43.7162 76.9812 43.7337C76.8871 43.7685 76.7924 43.8174 76.6984 43.8815C76.6043 43.9457 76.5096 44.0035 76.4156 44.0552C76.3982 44.0552 76.3731 44.0684 76.3383 44.0935C76.3041 44.12 76.2658 44.1458 76.2227 44.1709C76.1802 44.1967 76.1412 44.2225 76.107 44.2483C76.0729 44.2741 76.0513 44.2916 76.043 44.2999L75.7797 44.5635C75.655 44.6877 75.5247 44.8209 75.3875 44.9624C75.2503 45.104 75.1284 45.2414 75.0219 45.3739C74.9271 45.491 74.87 45.5789 74.8387 45.6459C74.7913 45.6605 74.7572 45.6668 74.6987 45.6891C74.5789 45.7581 74.4417 45.8439 74.2877 45.9464C74.1331 46.0496 73.9833 46.1263 73.8378 46.1786C73.7779 46.2037 73.7096 46.2407 73.6323 46.2874C73.555 46.3349 73.4846 46.3711 73.4199 46.3969C73.3558 46.4227 73.3029 46.4269 73.2597 46.4095C73.2165 46.3927 73.1956 46.3279 73.1956 46.217L73.2729 45.9339C73.298 45.8823 73.3133 45.8439 73.3175 45.8181C73.3217 45.7923 73.3279 45.7581 73.337 45.7149C73.3537 45.6549 73.3795 45.6159 73.4136 45.5991V45.535C73.4568 45.475 73.4867 45.406 73.5041 45.3285C73.555 45.2518 73.6044 45.1793 73.6518 45.1103C73.6985 45.0419 73.7354 44.9687 73.7612 44.8913C73.7612 44.7972 73.7305 44.7372 73.6706 44.7114C73.6107 44.6856 73.564 44.6647 73.5292 44.6472H73.3621H73.2854C73.2513 44.6472 73.2214 44.6514 73.1956 44.6598C73.1782 44.6772 73.1698 44.6988 73.1698 44.7239C73.1698 44.7497 73.1656 44.772 73.1573 44.7888C73.1482 44.823 73.1357 44.8488 73.1183 44.8655C73.1009 44.8829 73.0883 44.9045 73.08 44.9304V44.9429H73.041C72.9727 45.0377 72.9017 45.1061 72.8292 45.1493C72.7561 45.1919 72.6816 45.2477 72.6042 45.316C72.3215 45.5308 72.047 45.7344 71.7817 45.9276C71.5163 46.1208 71.2377 46.3028 70.9465 46.4743C70.895 46.5252 70.8267 46.5643 70.7411 46.5901C70.7494 46.521 70.7794 46.4569 70.8309 46.3969C70.8825 46.3369 70.9166 46.2686 70.934 46.1912C70.9674 46.148 71.0002 46.1033 71.0301 46.0559C71.0601 46.0085 71.1005 45.9722 71.152 45.9464V45.9339V45.9206C71.1861 45.8948 71.2035 45.8648 71.2035 45.8307C71.2634 45.8049 71.3129 45.7686 71.3512 45.7212C71.3895 45.6744 71.4306 45.6333 71.4738 45.5991C71.5421 45.5308 71.6145 45.4624 71.6918 45.3934C71.7691 45.3251 71.8416 45.2602 71.9105 45.2002C71.953 45.1661 71.9913 45.134 72.0261 45.104C72.0603 45.074 72.0986 45.0377 72.1418 44.9945C72.21 44.9513 72.2783 44.9066 72.3472 44.8592C72.4162 44.8125 72.4844 44.7804 72.5527 44.763C72.5701 44.7114 72.5931 44.6793 72.6237 44.666C72.6537 44.6535 72.6816 44.6472 72.7073 44.6472L72.7331 44.6214L72.887 44.5182C72.9643 44.4499 73.0451 44.3983 73.1308 44.3641C73.1656 44.3467 73.1998 44.3404 73.2339 44.3446C73.268 44.3494 73.298 44.3383 73.3237 44.3125C73.3579 44.2957 73.3836 44.2658 73.4011 44.2225C73.4185 44.18 73.4136 44.1458 73.3885 44.12C73.3885 44.0684 73.3669 44.0231 73.3237 43.9847C73.2813 43.9457 73.2423 43.9052 73.2081 43.862C73.1399 43.862 73.08 43.8494 73.0284 43.8236C73.011 43.8411 72.9915 43.8473 72.9706 43.8432C72.949 43.839 72.9295 43.8369 72.9128 43.8369C72.9037 43.8369 72.8996 43.839 72.8996 43.8432C72.8996 43.8473 72.8954 43.8494 72.887 43.8494C72.7665 43.8843 72.6788 43.9331 72.6237 43.9973C72.568 44.0614 72.4928 44.1151 72.3988 44.1584C72.3472 44.1667 72.2532 44.2246 72.116 44.332C71.9788 44.4394 71.829 44.5635 71.666 44.7051C71.5031 44.8467 71.3491 44.9861 71.2035 45.1228C71.058 45.2602 70.9507 45.3592 70.8825 45.4192C70.8051 45.5308 70.7236 45.6375 70.638 45.7407C70.5523 45.8439 70.4757 45.9555 70.4067 46.0754C70.3559 46.1438 70.3064 46.2191 70.2591 46.3C70.2117 46.3823 70.1838 46.4701 70.1755 46.5643C70.1755 46.581 70.1713 46.5901 70.163 46.5901C70.1539 46.5901 70.1497 46.5943 70.1497 46.6026C70.1072 46.7658 70.133 46.8774 70.227 46.9374C70.2695 46.989 70.3259 47.0169 70.3942 47.0211C70.4625 47.0252 70.5307 47.0315 70.5997 47.0399C70.6429 47.0573 70.6784 47.0657 70.709 47.0657H70.8184C70.8783 47.0748 70.9403 47.0643 71.0043 47.0336C71.0684 47.0036 71.1304 46.9674 71.191 46.9241C71.4132 46.83 71.6235 46.7142 71.8207 46.5768C71.8374 46.551 71.8632 46.5322 71.8973 46.519C71.9314 46.5064 71.9572 46.4952 71.9746 46.4869C71.983 46.4869 71.985 46.4806 71.9816 46.4674C71.9767 46.4548 71.9788 46.4485 71.9878 46.4485C72.0045 46.4311 72.0282 46.4144 72.0582 46.3969C72.0881 46.3795 72.1118 46.3544 72.1285 46.3195C72.1884 46.2937 72.2379 46.2595 72.2762 46.217C72.3152 46.1738 72.3556 46.1263 72.3988 46.0754C72.4245 46.058 72.4461 46.0434 72.4629 46.0301C72.4796 46.0175 72.497 46.0071 72.5144 45.998C72.5228 45.998 72.529 45.9917 72.5332 45.9792C72.5374 45.9659 72.5485 45.9639 72.5659 45.9722C72.5485 46.0754 72.5423 46.1759 72.5464 46.2749C72.5506 46.3732 72.5618 46.4569 72.5785 46.5252C72.6042 46.5859 72.6321 46.6389 72.6621 46.6863C72.692 46.7337 72.7456 46.7742 72.823 46.8084C72.8487 46.8174 72.8717 46.8279 72.8933 46.8404C72.9149 46.8537 72.9337 46.86 72.9511 46.86C73.1308 46.9032 73.2875 46.9032 73.4199 46.86C73.5529 46.8174 73.6776 46.7568 73.7932 46.68C73.9088 46.6026 74.0224 46.5169 74.1331 46.4227C74.2452 46.3279 74.3692 46.2512 74.5064 46.1912C74.5197 46.1982 74.5524 46.1835 74.5886 46.1654C74.5726 46.2302 74.5601 46.2986 74.5524 46.3711C74.544 46.4485 74.544 46.521 74.5524 46.5901C74.5608 46.6591 74.5824 46.7184 74.6165 46.77C74.6513 46.77 74.6722 46.7784 74.6813 46.7958C74.6896 46.8132 74.7022 46.8258 74.7196 46.8342H74.6938C74.7105 46.8516 74.76 46.8649 74.8415 46.8732C74.923 46.8816 75.0086 46.8907 75.0985 46.8983C75.189 46.9074 75.274 46.9116 75.3555 46.9116C75.437 46.9116 75.4864 46.9074 75.5032 46.8983C75.5463 46.8907 75.6041 46.8711 75.6766 46.8404C75.7497 46.8105 75.8249 46.7763 75.9016 46.7379C75.9789 46.6989 76.0513 46.6605 76.1203 46.6222C76.1885 46.5831 76.2359 46.551 76.2617 46.5252C76.3299 46.4569 76.4051 46.3948 76.4866 46.339C76.5674 46.2832 76.6468 46.217 76.7241 46.1396C76.7416 46.1138 76.7708 46.0929 76.814 46.0754L76.8655 46.0238C76.883 46.0071 76.8997 45.9897 76.9164 45.9722C76.9164 45.9639 76.9296 45.9597 76.9554 45.9597C76.9728 45.9081 76.9895 45.8823 77.0069 45.8823C77.0236 45.9339 77.0264 45.9806 77.0132 46.0238C77.0007 46.0664 76.9853 46.1096 76.9686 46.1528C76.9429 46.2212 76.9254 46.2707 76.9164 46.3C76.908 46.3307 76.8976 46.3586 76.885 46.3844C76.8718 46.4095 76.8572 46.4374 76.8398 46.4674C76.8224 46.498 76.7966 46.5434 76.7625 46.6026C76.7799 46.6026 76.7729 46.641 76.743 46.7184C76.713 46.7958 76.6942 46.8342 76.6851 46.8342C76.6768 46.8432 76.6573 46.8579 76.6273 46.8795C76.5974 46.9011 76.5396 46.9332 76.4539 46.9757C76.4031 47.0106 76.3299 47.072 76.2359 47.1626C76.1412 47.2526 76.0645 47.3188 76.0046 47.3614C75.6104 47.7135 75.1946 48.1062 74.7579 48.5392C74.3212 48.9723 73.9186 49.427 73.5501 49.9026C73.1817 50.3789 72.8815 50.8615 72.6502 51.3503C72.419 51.8392 72.3124 52.3064 72.3291 52.7527C72.3033 52.7611 72.3187 52.8106 72.3744 52.9006C72.4301 52.9905 72.5046 53.0693 72.5994 53.1391C72.7018 53.1816 72.8069 53.197 72.9142 53.1837C73.0215 53.1712 73.1259 53.1467 73.229 53.1133C73.7855 52.8901 74.2717 52.5637 74.6875 52.1349C75.1027 51.706 75.469 51.2241 75.7859 50.6878C76.1029 50.1515 76.3835 49.5923 76.6273 49.0086C76.8718 48.4256 77.1093 47.8719 77.3406 47.3488C77.3837 47.2547 77.42 47.1564 77.4499 47.0531C77.4799 46.9499 77.5335 46.8732 77.6108 46.8216C77.6366 46.7616 77.6728 46.717 77.7202 46.6863C77.7668 46.6563 77.8205 46.6201 77.8804 46.5768L77.9834 46.5001C78.0259 46.466 78.067 46.4353 78.1053 46.4095C78.1443 46.3844 78.1889 46.3627 78.2405 46.3453C78.3087 46.277 78.3819 46.217 78.4585 46.1654C78.5358 46.1138 78.6131 46.0629 78.6904 46.0106C78.7587 45.9597 78.8597 45.8885 78.992 45.7986C79.125 45.7086 79.2623 45.6145 79.4036 45.5154C79.5443 45.4171 79.6753 45.323 79.7951 45.2323C79.9156 45.1424 79.9964 45.0761 80.0396 45.0329C80.0138 45.0329 80.0054 45.0245 80.0138 45.0071C80.0821 44.9387 80.1615 44.8899 80.252 44.8592C80.2597 44.8564 80.268 44.8509 80.2764 44.8481C80.1573 44.9771 80.0361 45.1033 79.9226 45.2386C79.9142 45.2735 79.8968 45.316 79.871 45.3676C79.8452 45.4192 79.8111 45.4624 79.7679 45.4966C79.7164 45.5908 79.6676 45.6954 79.6203 45.8118C79.5729 45.9276 79.5367 46.0434 79.5116 46.1591C79.4851 46.2749 79.4768 46.3885 79.4851 46.5001C79.4942 46.6117 79.5283 46.7059 79.5882 46.7826C79.6655 46.8948 79.7617 46.9736 79.8773 47.0211C79.9929 47.0685 80.1148 47.0943 80.2436 47.0985C80.3718 47.1027 80.5007 47.0915 80.6295 47.0657C80.7577 47.0399 80.8733 47.0141 80.9764 46.989C81.053 46.9632 81.1324 46.9395 81.2139 46.9179C81.2954 46.8969 81.3699 46.8649 81.4389 46.8216L82.3638 46.3844C82.4237 46.3586 82.5136 46.3111 82.6334 46.2421C82.7539 46.1738 82.8821 46.0991 83.0193 46.0175C83.1565 45.936 83.2937 45.8544 83.4309 45.7728C83.5674 45.6912 83.6831 45.6159 83.7778 45.5475C83.8377 45.505 83.8864 45.4729 83.9254 45.4513C83.9637 45.4297 83.9979 45.4087 84.0278 45.3864C84.0578 45.3655 84.0689 45.3544 84.0599 45.3544C84.0947 45.3034 84.1393 45.2518 84.195 45.2002C84.2507 45.1493 84.2981 45.0998 84.3364 45.0524C84.3747 45.0057 84.3942 44.9687 84.3942 44.9429C84.3942 44.9171 84.3559 44.9045 84.2786 44.9045" fill="#FEFEFE"/>
</g>
<mask id="mask2_0_865" style="mask-type:alpha" maskUnits="userSpaceOnUse" x="0" y="1" width="140" height="53">
<path fill-rule="evenodd" clip-rule="evenodd" d="M0 53.1882H139.995V1.19727H0V53.1882Z" fill="white"/>
</mask>
<g mask="url(#mask2_0_865)">
<path fill-rule="evenodd" clip-rule="evenodd" d="M84.9926 43.0699H122.738V42.4019H84.9926V43.0699Z" fill="#FEFEFE"/>
<path fill-rule="evenodd" clip-rule="evenodd" d="M17.2583 43.0699H55.0033V42.4019H17.2583V43.0699Z" fill="#FEFEFE"/>
<path fill-rule="evenodd" clip-rule="evenodd" d="M84.9926 20.8443H122.738V20.1763H84.9926V20.8443Z" fill="#FEFEFE"/>
<path fill-rule="evenodd" clip-rule="evenodd" d="M17.2576 20.8443H55.0025V20.1763H17.2576V20.8443Z" fill="#FEFEFE"/>
<path fill-rule="evenodd" clip-rule="evenodd" d="M5.46521 26.7715H6.08581H6.20839C6.39158 26.7715 6.52392 26.8154 6.60332 26.9033C6.68342 26.9912 6.72382 27.1383 6.72382 27.3461V33.727C6.72382 33.9495 6.67924 34.1015 6.59148 34.1838C6.50372 34.2661 6.33516 34.3072 6.08581 34.3072H5.46521V34.8693H9.287V34.3072H8.64899C8.40312 34.3072 8.23805 34.2661 8.15446 34.1838C8.07018 34.1015 8.02839 33.9495 8.02839 33.727V27.3105C8.02839 27.1111 8.0667 26.9674 8.14262 26.8796C8.21854 26.7917 8.34043 26.7478 8.50829 26.7478H11.4462H11.5632C11.7506 26.7478 11.8836 26.7903 11.9616 26.874C12.0396 26.9584 12.0786 27.1034 12.0786 27.3105V33.727C12.0786 33.9495 12.0348 34.1015 11.947 34.1838C11.8592 34.2661 11.6921 34.3072 11.4462 34.3072H10.8089V34.8693H14.6418V34.3072H14.0101C13.76 34.3072 13.5915 34.2661 13.5037 34.1838C13.416 34.1015 13.3721 33.9495 13.3721 33.727V27.3461C13.3721 27.1467 13.4118 27.0009 13.4919 26.9089C13.572 26.8175 13.696 26.7715 13.8638 26.7715H14.6418V26.2031H5.46521V26.7715Z" fill="#FEFEFE"/>
<path fill-rule="evenodd" clip-rule="evenodd" d="M26.8643 33.5395C26.4388 34.2034 25.7973 34.5354 24.9385 34.5354C24.0685 34.5354 23.4228 34.2069 23.0014 33.5479C22.5801 32.8896 22.3697 31.8868 22.3697 30.5394C22.3697 29.1914 22.5814 28.1886 23.0042 27.5303C23.4277 26.872 24.0727 26.5428 24.9385 26.5428C25.8049 26.5428 26.4485 26.8692 26.8699 27.5219C27.2913 28.174 27.5023 29.1803 27.5023 30.5394C27.5023 31.8756 27.2892 32.8749 26.8643 33.5395M24.9385 25.9863C23.737 25.9863 22.7486 26.4131 21.9741 27.2667C21.1996 28.1203 20.813 29.211 20.813 30.5394C20.813 31.8679 21.1989 32.9558 21.9713 33.8031C22.7437 34.6504 23.7328 35.0751 24.9385 35.0751C26.1441 35.0751 27.1304 34.6525 27.8973 33.8087C28.6634 32.9649 29.0472 31.8756 29.0472 30.5394C29.0472 29.2075 28.662 28.1154 27.8917 27.2632C27.1207 26.4117 26.1365 25.9863 24.9385 25.9863" fill="#FEFEFE"/>
<path fill-rule="evenodd" clip-rule="evenodd" d="M40.4454 34.3068H36.8577C37.3104 33.4511 37.6517 32.4211 37.8822 31.2153C38.1121 30.011 38.2472 28.5291 38.2855 26.771H40.4454V34.3068ZM41.8705 26.9091C41.9506 26.817 42.0746 26.771 42.2424 26.771H43.0205V26.2026H36.3193V26.771H36.7407C37.084 26.771 37.3132 26.8442 37.4281 26.9907C37.543 27.1371 37.6016 27.4767 37.6016 28.0074C37.6016 29.2341 37.4706 30.4071 37.2094 31.5263C36.9475 32.6456 36.5902 33.5724 36.1382 34.3068H34.9207V37.2601H35.3595C35.4256 36.3654 35.6227 35.7433 35.9508 35.394C36.2789 35.0439 36.8326 34.8695 37.6127 34.8695H40.311C41.0953 34.8695 41.6511 35.0439 41.9792 35.394C42.3065 35.7433 42.5016 36.3654 42.5642 37.2601H43.0205V34.3068H41.7507V27.3456C41.7507 27.1462 41.7904 27.0004 41.8705 26.9091V26.9091Z" fill="#FEFEFE"/>
<path fill-rule="evenodd" clip-rule="evenodd" d="M55.5961 27.5214C56.0175 28.1735 56.2278 29.1798 56.2278 30.539C56.2278 31.8751 56.0154 32.8751 55.5905 33.539C55.1649 34.2036 54.5227 34.5356 53.6646 34.5356C52.7947 34.5356 52.149 34.2064 51.7276 33.5481C51.3062 32.8898 51.0952 31.887 51.0952 30.539C51.0952 29.1916 51.3069 28.1881 51.7304 27.5298C52.1539 26.8715 52.7982 26.5423 53.6646 26.5423C54.5311 26.5423 55.1747 26.8687 55.5961 27.5214M50.7002 27.2662C49.9257 28.1198 49.5385 29.2105 49.5385 30.539C49.5385 31.8674 49.9243 32.9553 50.6975 33.8026C51.4699 34.6506 52.459 35.0746 53.6646 35.0746C54.8703 35.0746 55.8566 34.6527 56.6234 33.8089C57.3896 32.9651 57.7727 31.8751 57.7727 30.539C57.7727 29.207 57.3875 28.1156 56.6172 27.2634C55.8468 26.4119 54.8626 25.9858 53.6646 25.9858C52.4631 25.9858 51.4748 26.4126 50.7002 27.2662" fill="#FEFEFE"/>
<path fill-rule="evenodd" clip-rule="evenodd" d="M86.5132 34.184C86.4254 34.2656 86.2562 34.3068 86.0068 34.3068H85.3862V34.8695H89.2087V34.3068H88.6696C88.3618 34.3068 88.1646 34.267 88.079 34.1868C87.9933 34.1073 87.9501 33.9532 87.9501 33.7272V27.3456C87.9501 27.0995 88.0065 26.9384 88.1201 26.8616C88.2329 26.7856 88.5157 26.748 88.9684 26.748C90.1156 26.748 90.8713 26.9119 91.2363 27.2396C91.6013 27.5681 91.8673 28.2438 92.0352 29.2676H92.5499L92.3981 26.2026H85.3862V26.7717H86.0068H86.1301C86.3133 26.7717 86.4449 26.8156 86.525 26.9035C86.6044 26.9914 86.6448 27.1385 86.6448 27.3456V33.7272C86.6448 33.9497 86.601 34.1017 86.5132 34.184" fill="#FEFEFE"/>
<path fill-rule="evenodd" clip-rule="evenodd" d="M101.646 27.3333C101.646 27.115 101.685 26.9644 101.763 26.8821C101.841 26.8005 101.973 26.7593 102.161 26.7593C102.165 26.7593 102.17 26.7573 102.178 26.7531C102.209 26.7496 102.239 26.7475 102.266 26.7475H102.893C103.677 26.7475 104.224 26.8863 104.534 27.1638C104.844 27.4414 104.999 27.9135 104.999 28.5816C104.999 29.2887 104.811 29.7831 104.437 30.0642C104.063 30.3452 103.368 30.4861 102.354 30.4861C102.154 30.4861 102.007 30.484 101.912 30.4805C101.816 30.4763 101.727 30.4666 101.646 30.4512V27.3333ZM100.209 34.1835C100.121 34.2651 99.9519 34.307 99.7025 34.307H99.0819V34.869H103.01V34.307H102.266C102.021 34.307 101.855 34.2651 101.772 34.1835C101.688 34.1012 101.646 33.9492 101.646 33.7268V31.0077C101.813 31.0196 101.984 31.0279 102.158 31.0342C102.331 31.0398 102.56 31.0426 102.845 31.0426C104.024 31.0426 104.91 30.839 105.502 30.4303C106.096 30.0223 106.392 29.41 106.392 28.5934C106.392 27.765 106.138 27.1596 105.631 26.7768C105.124 26.3939 104.314 26.2021 103.203 26.2021H99.0819V26.7712H99.7025H99.8251C100.009 26.7712 100.141 26.8151 100.221 26.903C100.3 26.9909 100.341 27.138 100.341 27.3458V33.7268C100.341 33.9492 100.297 34.1012 100.209 34.1835V34.1835Z" fill="#FEFEFE"/>
<path fill-rule="evenodd" clip-rule="evenodd" d="M114.002 31.4354L115.371 27.9549L116.793 31.4354H114.002ZM117.531 34.2249C117.437 34.2709 117.267 34.2947 117.021 34.2947H116.483V34.8693H120.065V34.2947H119.814C119.563 34.2947 119.39 34.257 119.293 34.181C119.195 34.1043 119.098 33.9453 119 33.7033L115.945 26.0615H115.476L112.662 33.287C112.501 33.6893 112.336 33.9578 112.164 34.0931C111.992 34.2277 111.746 34.2947 111.427 34.2947H111.327V34.8693H114.423V34.2947H114.124C113.824 34.2947 113.603 34.2437 113.461 34.1426C113.318 34.0408 113.247 33.8867 113.247 33.6796C113.247 33.6168 113.263 33.5178 113.296 33.3811C113.33 33.2444 113.369 33.1112 113.417 32.9822L113.785 32.0505H117.01L117.56 33.5624C117.599 33.6642 117.628 33.7479 117.645 33.8142C117.663 33.8804 117.672 33.9355 117.672 33.978C117.672 34.0959 117.624 34.1782 117.531 34.2249V34.2249Z" fill="#FEFEFE"/>
<path fill-rule="evenodd" clip-rule="evenodd" d="M129.795 26.7715H131.955V34.3072H128.368C128.82 33.4516 129.162 32.4216 129.392 31.2158C129.622 30.0115 129.756 28.5295 129.795 26.7715V26.7715ZM127.829 26.7715H128.251C128.594 26.7715 128.823 26.8447 128.938 26.9912C129.053 27.1376 129.111 27.4765 129.111 28.0079C129.111 29.2346 128.98 30.4076 128.719 31.5261C128.457 32.6454 128.1 33.5722 127.647 34.3072H126.43V37.2606H126.869C126.936 36.3659 127.133 35.7438 127.46 35.3937C127.788 35.0444 128.343 34.8693 129.123 34.8693H131.82C132.605 34.8693 133.161 35.0444 133.488 35.3937C133.816 35.7438 134.012 36.3659 134.074 37.2606H134.53V34.3072H133.261V27.3461C133.261 27.1467 133.3 27.0009 133.38 26.9089C133.461 26.8175 133.584 26.7715 133.752 26.7715H134.53V26.2031H127.829V26.7715Z" fill="#FEFEFE"/>
<path fill-rule="evenodd" clip-rule="evenodd" d="M71.6989 26.9056C71.7748 26.8156 71.8967 26.771 72.0645 26.771H72.8432V26.2026H65.9895V26.771H66.3935C66.7292 26.771 66.9549 26.8393 67.0719 26.976C67.1896 27.1127 67.2481 27.3923 67.2481 27.8143C67.2481 27.9726 67.2203 28.6657 67.2015 28.9879C67.1269 30.2578 66.8198 32.8792 66.3684 33.4427C66.1072 33.7635 65.7053 33.9755 65.123 34.1261L65.1969 34.3326L65.4706 35.0934L65.4845 35.1317C65.5215 35.1213 65.5577 35.1101 65.5925 35.0983C67.4243 34.4895 67.5372 32.4392 67.7642 30.094C67.7998 29.7285 67.8583 28.6957 67.8624 28.6295C67.9035 27.9049 67.9349 27.4921 67.9565 27.3923C68.0066 27.158 68.1034 26.9955 68.2462 26.9056C68.3883 26.8156 68.6272 26.771 68.9629 26.771H70.2794V33.7265C70.2794 33.9497 70.2355 34.101 70.1477 34.1833C70.06 34.2656 69.8914 34.3068 69.642 34.3068H69.0096V34.8688H72.8432V34.3068H72.2108C71.9656 34.3068 71.7999 34.2656 71.7135 34.1833C71.6278 34.101 71.5846 33.9497 71.5846 33.7265V27.3456C71.5846 27.142 71.6229 26.9955 71.6989 26.9056" fill="#FEFEFE"/>
</g>
</svg>
