<svg width="25" height="25" viewBox="0 0 25 25" fill="none" xmlns="http://www.w3.org/2000/svg">
<path d="M12.41 24.02C18.98 24.02 24.29 18.71 24.29 12.14C24.29 5.57 18.98 0.26 12.41 0.26C5.87 0.26 0.53 5.57 0.53 12.14C0.53 18.71 5.87 24.02 12.41 24.02ZM12.41 21.95C6.98 21.95 2.6 17.57 2.6 12.14C2.6 6.71 6.98 2.33 12.41 2.33C17.84 2.33 22.22 6.71 22.22 12.14C22.22 17.57 17.84 21.95 12.41 21.95ZM12.41 20.51C17.06 20.51 20.81 16.79 20.81 12.14C20.81 7.49 17.06 3.77 12.41 3.77C7.76 3.77 4.04 7.49 4.04 12.14C4.04 16.79 7.76 20.51 12.41 20.51Z" fill="#DF6933"/>
</svg>
