<svg width="20" height="24" viewBox="0 0 20 24" fill="none" xmlns="http://www.w3.org/2000/svg">
<g id="Building icon">
<path id="Fill 1" fill-rule="evenodd" clip-rule="evenodd" d="M5.38477 -0.000488281V1.49951H1.53861V5.99951H0.000152588V23.9995H10.7694H12.3078H20.0002V8.99951H18.4617V5.99951H12.3078H10.7694V1.49951H6.92323V-0.000488281H5.38477ZM3.07708 6.00026H9.23015V3.00026H3.07708V6.00026ZM12.3078 8.99951H16.9232V7.49951H12.3078V8.99951ZM1.53861 7.49951H10.7694V8.99951V10.4995V22.4995H6.92323V20.2458H3.07708V22.4995H1.53861V7.49951ZM12.3078 10.4995H18.4617V11.9995H13.8463V13.4995H18.4617V14.9995H13.8463V16.5003H18.4617V17.9995H13.8463V19.4995H18.4617V22.4995H16.9232V20.2458H13.8463V22.4995H12.3078V10.4995Z" fill="black"/>
<path id="Fill 2" fill-rule="evenodd" clip-rule="evenodd" d="M3.84616 5.25H7.69231V3.75H3.84616V5.25Z" fill="black"/>
<path id="Fill 3" fill-rule="evenodd" clip-rule="evenodd" d="M3.07693 10.5H9.22617V9H3.07693V10.5Z" fill="black"/>
<path id="Fill 4" fill-rule="evenodd" clip-rule="evenodd" d="M3.07693 13.5H9.22617V12H3.07693V13.5Z" fill="black"/>
<path id="Fill 5" fill-rule="evenodd" clip-rule="evenodd" d="M3.07693 16.5H9.22617V15H3.07693V16.5Z" fill="black"/>
<path id="Fill 6" fill-rule="evenodd" clip-rule="evenodd" d="M3.07693 19.5H9.22617V18H3.07693V19.5Z" fill="black"/>
</g>
</svg>
