<svg width="16" height="23" viewBox="0 0 16 23" fill="none" xmlns="http://www.w3.org/2000/svg">
<g id="Location icon">
<path id="Stroke 1" fill-rule="evenodd" clip-rule="evenodd" d="M8.19831 21.7975C8.19831 15.7095 13.9783 13.3665 14.5413 8.20349C14.5743 7.93949 14.5953 7.67249 14.5953 7.39949C14.5953 3.86549 11.7323 1.00049 8.19831 1.00049C4.66331 1.00049 1.79931 3.86549 1.79931 7.39949H1.79831C1.79831 7.40649 1.79931 7.41149 1.79931 7.41749C1.80131 7.68349 1.82231 7.94349 1.85331 8.19849C2.41331 13.3655 8.19831 15.7075 8.19831 21.7975Z" stroke="black" stroke-width="2" stroke-linecap="round" stroke-linejoin="round"/>
<path id="Stroke 3" fill-rule="evenodd" clip-rule="evenodd" d="M9.798 7.39932C9.798 8.28232 9.081 8.99932 8.198 8.99932C7.315 8.99932 6.599 8.28232 6.599 7.39932C6.599 6.51532 7.315 5.79932 8.198 5.79932C9.081 5.79932 9.798 6.51532 9.798 7.39932Z" stroke="black" stroke-width="2" stroke-linecap="round" stroke-linejoin="round"/>
</g>
</svg>
