<svg width="22" height="27" viewBox="0 0 22 27" fill="none" xmlns="http://www.w3.org/2000/svg">
<g id="Premium icon">
<path id="Stroke 1" fill-rule="evenodd" clip-rule="evenodd" d="M18.9002 8.93431C18.9002 13.3154 15.383 16.8681 11.0457 16.8681C6.70773 16.8681 3.19125 13.3154 3.19125 8.93431C3.19125 4.55176 6.70773 1.00049 11.0457 1.00049C15.383 1.00049 18.9002 4.55176 18.9002 8.93431Z" stroke="black" stroke-width="2"/>
<path id="Stroke 3" fill-rule="evenodd" clip-rule="evenodd" d="M15.7583 8.93407C15.7583 11.5624 13.6479 13.6941 11.0459 13.6941C8.44305 13.6941 6.33273 11.5624 6.33273 8.93407C6.33273 6.30425 8.44305 4.17334 11.0459 4.17334C13.6479 4.17334 15.7583 6.30425 15.7583 8.93407Z" stroke="black" stroke-width="2"/>
<path id="Stroke 5" d="M5.43679 14.4873L2.40631 22.0589L5.84431 21.6284L8.00287 24.3069L10.5567 16.8662" stroke="black" stroke-width="2"/>
<path id="Stroke 7" d="M16.6552 14.4873L19.6864 22.0589L16.2484 21.6284L14.0898 24.3069L11.536 16.8662" stroke="black" stroke-width="2"/>
</g>
</svg>
